<?xml version="1.0" encoding="UTF-8"?>
<svg xmlns="http://www.w3.org/2000/svg"
     xmlns:xlink="http://www.w3.org/1999/xlink"
     xmlns:gadfly="http://www.gadflyjl.org/ns"
     version="1.2"
     width="190.5mm" height="114.3mm" viewBox="0 0 190.5 114.3"
     stroke="none"
     fill="#000000"
     stroke-width="0.3"
     font-size="3.88"
>
<g class="plotroot xscalable yscalable" id="img-7e917b2c-1">
  <g font-size="3.88" font-family="'PT Sans','Helvetica Neue','Helvetica',sans-serif" fill="#564A55" stroke="#000000" stroke-opacity="0.000" id="img-7e917b2c-2">
    <text x="101.95" y="102.77" text-anchor="middle" dy="0.6em">gamma value</text>
  </g>
  <g class="guide xlabels" font-size="2.82" font-family="'PT Sans Caption','Helvetica Neue','Helvetica',sans-serif" fill="#6C606B" id="img-7e917b2c-3">
    <text x="20.41" y="96.66" text-anchor="middle" dy="0.6em">0</text>
    <text x="53.03" y="96.66" text-anchor="middle" dy="0.6em">1</text>
    <text x="85.64" y="96.66" text-anchor="middle" dy="0.6em">2</text>
    <text x="118.26" y="96.66" text-anchor="middle" dy="0.6em">3</text>
    <text x="150.88" y="96.66" text-anchor="middle" dy="0.6em">4</text>
    <text x="183.5" y="96.66" text-anchor="middle" dy="0.6em">5</text>
  </g>
<g clip-path="url(#img-7e917b2c-4)">
  <g id="img-7e917b2c-5">
    <g pointer-events="visible" opacity="1" fill="#000000" fill-opacity="0.000" stroke="#000000" stroke-opacity="0.000" class="guide background" id="img-7e917b2c-6">
      <rect x="18.41" y="5" width="167.09" height="90.66"/>
    </g>
    <g class="guide ygridlines xfixed" stroke-dasharray="0.5,0.5" stroke-width="0.2" stroke="#D0D0E0" id="img-7e917b2c-7">
      <path fill="none" d="M18.41,93.66 L 185.5 93.66"/>
      <path fill="none" d="M18.41,71.99 L 185.5 71.99"/>
      <path fill="none" d="M18.41,50.33 L 185.5 50.33"/>
      <path fill="none" d="M18.41,28.66 L 185.5 28.66"/>
      <path fill="none" d="M18.41,7 L 185.5 7"/>
    </g>
    <g class="guide xgridlines yfixed" stroke-dasharray="0.5,0.5" stroke-width="0.2" stroke="#D0D0E0" id="img-7e917b2c-8">
      <path fill="none" d="M20.41,5 L 20.41 95.66"/>
      <path fill="none" d="M53.03,5 L 53.03 95.66"/>
      <path fill="none" d="M85.64,5 L 85.64 95.66"/>
      <path fill="none" d="M118.26,5 L 118.26 95.66"/>
      <path fill="none" d="M150.88,5 L 150.88 95.66"/>
      <path fill="none" d="M183.5,5 L 183.5 95.66"/>
    </g>
    <g class="plotpanel" id="img-7e917b2c-9">
      <g stroke-width="0.3" fill="#000000" fill-opacity="0.000" class="geometry" stroke-dasharray="none" stroke="#00BFFF" id="img-7e917b2c-10">
        <path fill="none" d="M20.41,50.43 L 53.03 88.42 85.64 7.38 118.26 59.56 150.88 68.27 183.5 28.19"/>
      </g>
    </g>
  </g>
</g>
  <g class="guide ylabels" font-size="2.82" font-family="'PT Sans Caption','Helvetica Neue','Helvetica',sans-serif" fill="#6C606B" id="img-7e917b2c-11">
    <text x="17.41" y="93.66" text-anchor="end" dy="0.35em">-4</text>
    <text x="17.41" y="71.99" text-anchor="end" dy="0.35em">-2</text>
    <text x="17.41" y="50.33" text-anchor="end" dy="0.35em">0</text>
    <text x="17.41" y="28.66" text-anchor="end" dy="0.35em">2</text>
    <text x="17.41" y="7" text-anchor="end" dy="0.35em">4</text>
  </g>
  <g font-size="3.88" font-family="'PT Sans','Helvetica Neue','Helvetica',sans-serif" fill="#564A55" stroke="#000000" stroke-opacity="0.000" id="img-7e917b2c-12">
    <text x="9.12" y="48.33" text-anchor="middle" dy="0.35em" transform="rotate(-90, 9.12, 50.33)">γ (restricted)</text>
  </g>
</g>
<defs>
  <clipPath id="img-7e917b2c-4">
  <path d="M18.41,5 L 185.5 5 185.5 95.66 18.41 95.66" />
</clipPath>
</defs>
</svg>
