<?xml version="1.0" encoding="UTF-8"?>
<svg xmlns="http://www.w3.org/2000/svg"
     xmlns:xlink="http://www.w3.org/1999/xlink"
     xmlns:gadfly="http://www.gadflyjl.org/ns"
     version="1.2"
     width="190.5mm" height="228.6mm" viewBox="0 0 190.5 228.6"
     stroke="none"
     fill="#000000"
     stroke-width="0.3"
     font-size="3.88"
>
<g class="plotroot xscalable yscalable" id="img-8dd4bcdc-1">
  <g font-size="3.88" font-family="'PT Sans','Helvetica Neue','Helvetica',sans-serif" fill="#564A55" stroke="#000000" stroke-opacity="0.000" id="img-8dd4bcdc-2">
    <text x="105.13" y="217.78" text-anchor="middle" dy="0.6em">Iteration</text>
  </g>
  <g class="guide xlabels" font-size="2.82" font-family="'PT Sans Caption','Helvetica Neue','Helvetica',sans-serif" fill="#6C606B" id="img-8dd4bcdc-3">
    <text x="26.76" y="211.66" text-anchor="middle" dy="0.6em">0.10</text>
    <text x="105.13" y="211.66" text-anchor="middle" dy="0.6em">0.15</text>
    <text x="183.5" y="211.66" text-anchor="middle" dy="0.6em">0.20</text>
  </g>
<g clip-path="url(#img-8dd4bcdc-4)">
  <g id="img-8dd4bcdc-5">
    <g pointer-events="visible" opacity="1" fill="#000000" fill-opacity="0.000" stroke="#000000" stroke-opacity="0.000" class="guide background" id="img-8dd4bcdc-6">
      <rect x="24.76" y="162.57" width="160.74" height="48.09"/>
    </g>
    <g class="guide ygridlines xfixed" stroke-dasharray="0.5,0.5" stroke-width="0.2" stroke="#D0D0E0" id="img-8dd4bcdc-7">
      <path fill="none" d="M24.76,208.66 L 185.5 208.66"/>
      <path fill="none" d="M24.76,199.84 L 185.5 199.84"/>
      <path fill="none" d="M24.76,191.03 L 185.5 191.03"/>
      <path fill="none" d="M24.76,182.21 L 185.5 182.21"/>
      <path fill="none" d="M24.76,173.39 L 185.5 173.39"/>
      <path fill="none" d="M24.76,164.58 L 185.5 164.58"/>
    </g>
    <g class="guide xgridlines yfixed" stroke-dasharray="0.5,0.5" stroke-width="0.2" stroke="#D0D0E0" id="img-8dd4bcdc-8">
      <path fill="none" d="M26.76,162.57 L 26.76 210.66"/>
      <path fill="none" d="M105.13,162.57 L 105.13 210.66"/>
      <path fill="none" d="M183.5,162.57 L 183.5 210.66"/>
    </g>
    <g class="plotpanel" id="img-8dd4bcdc-9">
      <g shape-rendering="crispEdges" stroke-width="0.3" id="img-8dd4bcdc-10">
        <g stroke="#000000" stroke-opacity="0.000" class="geometry" fill="#00BFFF" id="img-8dd4bcdc-11">
          <rect x="39.3" y="208.65" width="0.98" height="0.01"/>
          <rect x="40.23" y="208.66" width="0.98" height="0.01"/>
          <rect x="41.16" y="208.66" width="0.98" height="0.01"/>
          <rect x="42.1" y="208.66" width="0.98" height="0.01"/>
          <rect x="43.03" y="208.65" width="0.98" height="0.01"/>
          <rect x="43.96" y="208.65" width="0.98" height="0.01"/>
          <rect x="44.89" y="208.65" width="0.98" height="0.01"/>
          <rect x="45.83" y="208.65" width="0.98" height="0.01"/>
          <rect x="46.76" y="208.63" width="0.98" height="0.03"/>
          <rect x="47.69" y="208.64" width="0.98" height="0.02"/>
          <rect x="48.62" y="208.61" width="0.98" height="0.05"/>
          <rect x="49.55" y="208.6" width="0.98" height="0.06"/>
          <rect x="50.49" y="208.6" width="0.98" height="0.06"/>
          <rect x="51.42" y="208.56" width="0.98" height="0.1"/>
          <rect x="52.35" y="208.54" width="0.98" height="0.12"/>
          <rect x="53.28" y="208.48" width="0.98" height="0.18"/>
          <rect x="54.22" y="208.48" width="0.98" height="0.19"/>
          <rect x="55.15" y="208.44" width="0.98" height="0.22"/>
          <rect x="56.08" y="208.34" width="0.98" height="0.32"/>
          <rect x="57.01" y="208.25" width="0.98" height="0.41"/>
          <rect x="57.94" y="208.17" width="0.98" height="0.49"/>
          <rect x="58.88" y="208.14" width="0.98" height="0.52"/>
          <rect x="59.81" y="207.89" width="0.98" height="0.77"/>
          <rect x="60.74" y="207.83" width="0.98" height="0.83"/>
          <rect x="61.67" y="207.65" width="0.98" height="1.01"/>
          <rect x="62.61" y="207.43" width="0.98" height="1.23"/>
          <rect x="63.54" y="207.18" width="0.98" height="1.48"/>
          <rect x="64.47" y="206.89" width="0.98" height="1.77"/>
          <rect x="65.4" y="206.53" width="0.98" height="2.13"/>
          <rect x="66.33" y="206.43" width="0.98" height="2.23"/>
          <rect x="67.27" y="205.88" width="0.98" height="2.78"/>
          <rect x="68.2" y="205.46" width="0.98" height="3.2"/>
          <rect x="69.13" y="204.97" width="0.98" height="3.69"/>
          <rect x="70.06" y="204.23" width="0.98" height="4.43"/>
          <rect x="71" y="203.67" width="0.98" height="4.99"/>
          <rect x="71.93" y="202.94" width="0.98" height="5.72"/>
          <rect x="72.86" y="202.18" width="0.98" height="6.48"/>
          <rect x="73.79" y="201.35" width="0.98" height="7.31"/>
          <rect x="74.72" y="200.42" width="0.98" height="8.24"/>
          <rect x="75.66" y="199.37" width="0.98" height="9.29"/>
          <rect x="76.59" y="198.19" width="0.98" height="10.47"/>
          <rect x="77.52" y="196.99" width="0.98" height="11.68"/>
          <rect x="78.45" y="196.04" width="0.98" height="12.62"/>
          <rect x="79.39" y="194.62" width="0.98" height="14.05"/>
          <rect x="80.32" y="193.1" width="0.98" height="15.56"/>
          <rect x="81.25" y="191.55" width="0.98" height="17.11"/>
          <rect x="82.18" y="190.43" width="0.98" height="18.23"/>
          <rect x="83.11" y="189.19" width="0.98" height="19.47"/>
          <rect x="84.05" y="187.38" width="0.98" height="21.28"/>
          <rect x="84.98" y="186.12" width="0.98" height="22.54"/>
          <rect x="85.91" y="184.3" width="0.98" height="24.36"/>
          <rect x="86.84" y="183.1" width="0.98" height="25.56"/>
          <rect x="87.78" y="180.71" width="0.98" height="27.95"/>
          <rect x="88.71" y="179.68" width="0.98" height="28.99"/>
          <rect x="89.64" y="177.62" width="0.98" height="31.04"/>
          <rect x="90.57" y="176.46" width="0.98" height="32.21"/>
          <rect x="91.5" y="175.56" width="0.98" height="33.1"/>
          <rect x="92.44" y="173.51" width="0.98" height="35.15"/>
          <rect x="93.37" y="172.72" width="0.98" height="35.94"/>
          <rect x="94.3" y="171.81" width="0.98" height="36.85"/>
          <rect x="95.23" y="170.82" width="0.98" height="37.84"/>
          <rect x="96.17" y="169.56" width="0.98" height="39.1"/>
          <rect x="97.1" y="168.68" width="0.98" height="39.98"/>
          <rect x="98.03" y="168.29" width="0.98" height="40.37"/>
          <rect x="98.96" y="167.62" width="0.98" height="41.04"/>
          <rect x="99.89" y="167.6" width="0.98" height="41.06"/>
          <rect x="100.83" y="167.52" width="0.98" height="41.14"/>
          <rect x="101.76" y="167.19" width="0.98" height="41.47"/>
          <rect x="102.69" y="167.1" width="0.98" height="41.56"/>
          <rect x="103.62" y="167.47" width="0.98" height="41.19"/>
          <rect x="104.56" y="167.92" width="0.98" height="40.74"/>
          <rect x="105.49" y="168.2" width="0.98" height="40.46"/>
          <rect x="106.42" y="168.73" width="0.98" height="39.93"/>
          <rect x="107.35" y="169.42" width="0.98" height="39.24"/>
          <rect x="108.28" y="170.57" width="0.98" height="38.09"/>
          <rect x="109.22" y="171.09" width="0.98" height="37.57"/>
          <rect x="110.15" y="172.44" width="0.98" height="36.22"/>
          <rect x="111.08" y="173.66" width="0.98" height="35"/>
          <rect x="112.01" y="174.31" width="0.98" height="34.35"/>
          <rect x="112.95" y="176.31" width="0.98" height="32.35"/>
          <rect x="113.88" y="176.96" width="0.98" height="31.7"/>
          <rect x="114.81" y="178.31" width="0.98" height="30.35"/>
          <rect x="115.74" y="180.02" width="0.98" height="28.64"/>
          <rect x="116.67" y="181.34" width="0.98" height="27.32"/>
          <rect x="117.61" y="182.8" width="0.98" height="25.86"/>
          <rect x="118.54" y="184.26" width="0.98" height="24.4"/>
          <rect x="119.47" y="185.6" width="0.98" height="23.06"/>
          <rect x="120.4" y="187.12" width="0.98" height="21.54"/>
          <rect x="121.34" y="188.48" width="0.98" height="20.18"/>
          <rect x="122.27" y="189.89" width="0.98" height="18.78"/>
          <rect x="123.2" y="191.09" width="0.98" height="17.57"/>
          <rect x="124.13" y="192.51" width="0.98" height="16.15"/>
          <rect x="125.06" y="193.83" width="0.98" height="14.83"/>
          <rect x="126" y="194.69" width="0.98" height="13.97"/>
          <rect x="126.93" y="195.8" width="0.98" height="12.86"/>
          <rect x="127.86" y="196.81" width="0.98" height="11.85"/>
          <rect x="128.79" y="197.93" width="0.98" height="10.73"/>
          <rect x="129.73" y="199" width="0.98" height="9.66"/>
          <rect x="130.66" y="199.9" width="0.98" height="8.77"/>
          <rect x="131.59" y="200.7" width="0.98" height="7.96"/>
          <rect x="132.52" y="201.16" width="0.98" height="7.5"/>
          <rect x="133.45" y="202.06" width="0.98" height="6.6"/>
          <rect x="134.39" y="202.72" width="0.98" height="5.94"/>
          <rect x="135.32" y="203.52" width="0.98" height="5.14"/>
          <rect x="136.25" y="203.83" width="0.98" height="4.83"/>
          <rect x="137.18" y="204.44" width="0.98" height="4.23"/>
          <rect x="138.12" y="205.11" width="0.98" height="3.55"/>
          <rect x="139.05" y="205.38" width="0.98" height="3.29"/>
          <rect x="139.98" y="205.63" width="0.98" height="3.03"/>
          <rect x="140.91" y="206.02" width="0.98" height="2.65"/>
          <rect x="141.84" y="206.32" width="0.98" height="2.34"/>
          <rect x="142.78" y="206.59" width="0.98" height="2.07"/>
          <rect x="143.71" y="206.91" width="0.98" height="1.75"/>
          <rect x="144.64" y="207.08" width="0.98" height="1.58"/>
          <rect x="145.57" y="207.24" width="0.98" height="1.42"/>
          <rect x="146.51" y="207.52" width="0.98" height="1.14"/>
          <rect x="147.44" y="207.64" width="0.98" height="1.02"/>
          <rect x="148.37" y="207.74" width="0.98" height="0.92"/>
          <rect x="149.3" y="207.92" width="0.98" height="0.74"/>
          <rect x="150.23" y="207.99" width="0.98" height="0.67"/>
          <rect x="151.17" y="208.08" width="0.98" height="0.59"/>
          <rect x="152.1" y="208.19" width="0.98" height="0.47"/>
          <rect x="153.03" y="208.26" width="0.98" height="0.4"/>
          <rect x="153.96" y="208.28" width="0.98" height="0.38"/>
          <rect x="154.9" y="208.33" width="0.98" height="0.33"/>
          <rect x="155.83" y="208.38" width="0.98" height="0.28"/>
          <rect x="156.76" y="208.45" width="0.98" height="0.21"/>
          <rect x="157.69" y="208.48" width="0.98" height="0.18"/>
          <rect x="158.62" y="208.51" width="0.98" height="0.15"/>
          <rect x="159.56" y="208.55" width="0.98" height="0.11"/>
          <rect x="160.49" y="208.57" width="0.98" height="0.1"/>
          <rect x="161.42" y="208.59" width="0.98" height="0.07"/>
          <rect x="162.35" y="208.57" width="0.98" height="0.09"/>
          <rect x="163.29" y="208.62" width="0.98" height="0.04"/>
          <rect x="164.22" y="208.61" width="0.98" height="0.05"/>
          <rect x="165.15" y="208.63" width="0.98" height="0.03"/>
          <rect x="166.08" y="208.62" width="0.98" height="0.04"/>
          <rect x="167.01" y="208.64" width="0.98" height="0.02"/>
          <rect x="167.95" y="208.63" width="0.98" height="0.03"/>
          <rect x="168.88" y="208.64" width="0.98" height="0.02"/>
          <rect x="169.81" y="208.65" width="0.98" height="0.01"/>
          <rect x="170.74" y="208.66" width="0.98" height="0.01"/>
          <rect x="171.68" y="208.65" width="0.98" height="0.01"/>
          <rect x="172.61" y="208.66" width="0.98" height="0.01"/>
          <rect x="173.54" y="208.66" width="0.98" height="0.01"/>
          <rect x="174.47" y="208.65" width="0.98" height="0.01"/>
          <rect x="175.4" y="208.66" width="0.98" height="0.01"/>
          <rect x="176.34" y="208.66" width="0.98" height="0.01"/>
          <rect x="177.27" y="208.66" width="0.98" height="0.01"/>
          <rect x="178.2" y="208.66" width="0.98" height="0.01"/>
        </g>
      </g>
    </g>
  </g>
</g>
  <g class="guide ylabels" font-size="2.82" font-family="'PT Sans Caption','Helvetica Neue','Helvetica',sans-serif" fill="#6C606B" id="img-8dd4bcdc-12">
    <text x="23.76" y="208.66" text-anchor="end" dy="0.35em">0</text>
    <text x="23.76" y="199.84" text-anchor="end" dy="0.35em">5.0×10³</text>
    <text x="23.76" y="191.03" text-anchor="end" dy="0.35em">1.0×10⁴</text>
    <text x="23.76" y="182.21" text-anchor="end" dy="0.35em">1.5×10⁴</text>
    <text x="23.76" y="173.39" text-anchor="end" dy="0.35em">2.0×10⁴</text>
    <text x="23.76" y="164.58" text-anchor="end" dy="0.35em">2.5×10⁴</text>
  </g>
  <g font-size="3.88" font-family="'PT Sans','Helvetica Neue','Helvetica',sans-serif" fill="#564A55" stroke="#000000" stroke-opacity="0.000" id="img-8dd4bcdc-13">
    <text x="8.41" y="184.62" text-anchor="middle" dy="0.35em" transform="rotate(-90, 8.41, 186.62)">λ</text>
  </g>
  <g font-size="3.88" font-family="'PT Sans','Helvetica Neue','Helvetica',sans-serif" fill="#564A55" stroke="#000000" stroke-opacity="0.000" id="img-8dd4bcdc-14">
    <text x="105.13" y="157.4" text-anchor="middle" dy="0.6em">Distribution of λ</text>
  </g>
</g>
<g class="plotroot xscalable yscalable" id="img-8dd4bcdc-15">
  <g font-size="3.88" font-family="'PT Sans','Helvetica Neue','Helvetica',sans-serif" fill="#564A55" stroke="#000000" stroke-opacity="0.000" id="img-8dd4bcdc-16">
    <text x="105.13" y="141.58" text-anchor="middle" dy="0.6em">Iteration</text>
  </g>
  <g class="guide xlabels" font-size="2.82" font-family="'PT Sans Caption','Helvetica Neue','Helvetica',sans-serif" fill="#6C606B" id="img-8dd4bcdc-17">
    <text x="26.76" y="135.46" text-anchor="middle" dy="0.6em">0.016</text>
    <text x="52.88" y="135.46" text-anchor="middle" dy="0.6em">0.017</text>
    <text x="79.01" y="135.46" text-anchor="middle" dy="0.6em">0.018</text>
    <text x="105.13" y="135.46" text-anchor="middle" dy="0.6em">0.019</text>
    <text x="131.25" y="135.46" text-anchor="middle" dy="0.6em">0.020</text>
    <text x="157.38" y="135.46" text-anchor="middle" dy="0.6em">0.021</text>
    <text x="183.5" y="135.46" text-anchor="middle" dy="0.6em">0.022</text>
  </g>
<g clip-path="url(#img-8dd4bcdc-18)">
  <g id="img-8dd4bcdc-19">
    <g pointer-events="visible" opacity="1" fill="#000000" fill-opacity="0.000" stroke="#000000" stroke-opacity="0.000" class="guide background" id="img-8dd4bcdc-20">
      <rect x="24.76" y="86.73" width="160.74" height="47.73"/>
    </g>
    <g class="guide ygridlines xfixed" stroke-dasharray="0.5,0.5" stroke-width="0.2" stroke="#D0D0E0" id="img-8dd4bcdc-21">
      <path fill="none" d="M24.76,132.46 L 185.5 132.46"/>
      <path fill="none" d="M24.76,123.71 L 185.5 123.71"/>
      <path fill="none" d="M24.76,114.97 L 185.5 114.97"/>
      <path fill="none" d="M24.76,106.22 L 185.5 106.22"/>
      <path fill="none" d="M24.76,97.47 L 185.5 97.47"/>
      <path fill="none" d="M24.76,88.73 L 185.5 88.73"/>
    </g>
    <g class="guide xgridlines yfixed" stroke-dasharray="0.5,0.5" stroke-width="0.2" stroke="#D0D0E0" id="img-8dd4bcdc-22">
      <path fill="none" d="M26.76,86.73 L 26.76 134.46"/>
      <path fill="none" d="M52.88,86.73 L 52.88 134.46"/>
      <path fill="none" d="M79.01,86.73 L 79.01 134.46"/>
      <path fill="none" d="M105.13,86.73 L 105.13 134.46"/>
      <path fill="none" d="M131.25,86.73 L 131.25 134.46"/>
      <path fill="none" d="M157.38,86.73 L 157.38 134.46"/>
      <path fill="none" d="M183.5,86.73 L 183.5 134.46"/>
    </g>
    <g class="plotpanel" id="img-8dd4bcdc-23">
      <g shape-rendering="crispEdges" stroke-width="0.3" id="img-8dd4bcdc-24">
        <g stroke="#000000" stroke-opacity="0.000" class="geometry" fill="#00BFFF" id="img-8dd4bcdc-25">
          <rect x="49.36" y="132.46" width="0.92" height="0.01"/>
          <rect x="50.23" y="132.46" width="0.92" height="0.01"/>
          <rect x="51.09" y="132.46" width="0.92" height="0.01"/>
          <rect x="51.96" y="132.46" width="0.92" height="0.01"/>
          <rect x="52.83" y="132.46" width="0.92" height="0.01"/>
          <rect x="53.7" y="132.45" width="0.92" height="0.01"/>
          <rect x="54.57" y="132.44" width="0.92" height="0.02"/>
          <rect x="55.44" y="132.44" width="0.92" height="0.02"/>
          <rect x="56.31" y="132.42" width="0.92" height="0.04"/>
          <rect x="57.18" y="132.43" width="0.92" height="0.03"/>
          <rect x="58.05" y="132.41" width="0.92" height="0.05"/>
          <rect x="58.92" y="132.38" width="0.92" height="0.08"/>
          <rect x="59.78" y="132.34" width="0.92" height="0.12"/>
          <rect x="60.65" y="132.33" width="0.92" height="0.13"/>
          <rect x="61.52" y="132.24" width="0.92" height="0.22"/>
          <rect x="62.39" y="132.23" width="0.92" height="0.23"/>
          <rect x="63.26" y="132.16" width="0.92" height="0.3"/>
          <rect x="64.13" y="132.08" width="0.92" height="0.38"/>
          <rect x="65" y="131.95" width="0.92" height="0.52"/>
          <rect x="65.87" y="131.86" width="0.92" height="0.6"/>
          <rect x="66.74" y="131.73" width="0.92" height="0.73"/>
          <rect x="67.6" y="131.58" width="0.92" height="0.88"/>
          <rect x="68.47" y="131.34" width="0.92" height="1.12"/>
          <rect x="69.34" y="131.14" width="0.92" height="1.32"/>
          <rect x="70.21" y="130.89" width="0.92" height="1.57"/>
          <rect x="71.08" y="130.58" width="0.92" height="1.89"/>
          <rect x="71.95" y="130.1" width="0.92" height="2.36"/>
          <rect x="72.82" y="129.8" width="0.92" height="2.66"/>
          <rect x="73.69" y="129.38" width="0.92" height="3.08"/>
          <rect x="74.56" y="128.79" width="0.92" height="3.67"/>
          <rect x="75.42" y="128.36" width="0.92" height="4.1"/>
          <rect x="76.29" y="127.48" width="0.92" height="4.98"/>
          <rect x="77.16" y="126.68" width="0.92" height="5.78"/>
          <rect x="78.03" y="126.03" width="0.92" height="6.44"/>
          <rect x="78.9" y="124.98" width="0.92" height="7.48"/>
          <rect x="79.77" y="123.9" width="0.92" height="8.56"/>
          <rect x="80.64" y="122.8" width="0.92" height="9.66"/>
          <rect x="81.51" y="121.28" width="0.92" height="11.18"/>
          <rect x="82.38" y="120.33" width="0.92" height="12.13"/>
          <rect x="83.24" y="119.08" width="0.92" height="13.38"/>
          <rect x="84.11" y="117.58" width="0.92" height="14.88"/>
          <rect x="84.98" y="115.95" width="0.92" height="16.51"/>
          <rect x="85.85" y="114.69" width="0.92" height="17.77"/>
          <rect x="86.72" y="113.07" width="0.92" height="19.39"/>
          <rect x="87.59" y="111.2" width="0.92" height="21.26"/>
          <rect x="88.46" y="109.87" width="0.92" height="22.59"/>
          <rect x="89.33" y="107.81" width="0.92" height="24.65"/>
          <rect x="90.2" y="106.06" width="0.92" height="26.4"/>
          <rect x="91.07" y="104.39" width="0.92" height="28.07"/>
          <rect x="91.93" y="102.58" width="0.92" height="29.88"/>
          <rect x="92.8" y="101.35" width="0.92" height="31.11"/>
          <rect x="93.67" y="99.61" width="0.92" height="32.86"/>
          <rect x="94.54" y="98.35" width="0.92" height="34.11"/>
          <rect x="95.41" y="97.13" width="0.92" height="35.33"/>
          <rect x="96.28" y="95.27" width="0.92" height="37.19"/>
          <rect x="97.15" y="94.21" width="0.92" height="38.25"/>
          <rect x="98.02" y="93.02" width="0.92" height="39.44"/>
          <rect x="98.89" y="91.99" width="0.92" height="40.48"/>
          <rect x="99.75" y="91.64" width="0.92" height="40.82"/>
          <rect x="100.62" y="90.37" width="0.92" height="42.1"/>
          <rect x="101.49" y="90.21" width="0.92" height="42.25"/>
          <rect x="102.36" y="89.57" width="0.92" height="42.89"/>
          <rect x="103.23" y="89.67" width="0.92" height="42.79"/>
          <rect x="104.1" y="89.75" width="0.92" height="42.71"/>
          <rect x="104.97" y="89.48" width="0.92" height="42.98"/>
          <rect x="105.84" y="89.99" width="0.92" height="42.47"/>
          <rect x="106.71" y="90.44" width="0.92" height="42.02"/>
          <rect x="107.57" y="90.73" width="0.92" height="41.73"/>
          <rect x="108.44" y="91.45" width="0.92" height="41.01"/>
          <rect x="109.31" y="92.53" width="0.92" height="39.93"/>
          <rect x="110.18" y="93.45" width="0.92" height="39.01"/>
          <rect x="111.05" y="94.32" width="0.92" height="38.14"/>
          <rect x="111.92" y="96.02" width="0.92" height="36.44"/>
          <rect x="112.79" y="97.12" width="0.92" height="35.34"/>
          <rect x="113.66" y="98.45" width="0.92" height="34.01"/>
          <rect x="114.53" y="100.04" width="0.92" height="32.42"/>
          <rect x="115.39" y="101.51" width="0.92" height="30.95"/>
          <rect x="116.26" y="102.99" width="0.92" height="29.47"/>
          <rect x="117.13" y="104.35" width="0.92" height="28.11"/>
          <rect x="118" y="105.63" width="0.92" height="26.83"/>
          <rect x="118.87" y="107.38" width="0.92" height="25.08"/>
          <rect x="119.74" y="108.69" width="0.92" height="23.77"/>
          <rect x="120.61" y="110.5" width="0.92" height="21.96"/>
          <rect x="121.48" y="111.93" width="0.92" height="20.53"/>
          <rect x="122.35" y="113.57" width="0.92" height="18.89"/>
          <rect x="123.22" y="114.94" width="0.92" height="17.52"/>
          <rect x="124.08" y="115.73" width="0.92" height="16.73"/>
          <rect x="124.95" y="117.44" width="0.92" height="15.02"/>
          <rect x="125.82" y="118.52" width="0.92" height="13.94"/>
          <rect x="126.69" y="119.87" width="0.92" height="12.59"/>
          <rect x="127.56" y="120.58" width="0.92" height="11.88"/>
          <rect x="128.43" y="121.81" width="0.92" height="10.65"/>
          <rect x="129.3" y="122.71" width="0.92" height="9.75"/>
          <rect x="130.17" y="123.45" width="0.92" height="9.02"/>
          <rect x="131.04" y="124.56" width="0.92" height="7.9"/>
          <rect x="131.9" y="125.15" width="0.92" height="7.31"/>
          <rect x="132.77" y="125.93" width="0.92" height="6.53"/>
          <rect x="133.64" y="126.43" width="0.92" height="6.04"/>
          <rect x="134.51" y="127.23" width="0.92" height="5.23"/>
          <rect x="135.38" y="127.67" width="0.92" height="4.79"/>
          <rect x="136.25" y="128.22" width="0.92" height="4.24"/>
          <rect x="137.12" y="128.71" width="0.92" height="3.75"/>
          <rect x="137.99" y="129.01" width="0.92" height="3.45"/>
          <rect x="138.86" y="129.54" width="0.92" height="2.92"/>
          <rect x="139.72" y="129.82" width="0.92" height="2.64"/>
          <rect x="140.59" y="130.07" width="0.92" height="2.39"/>
          <rect x="141.46" y="130.48" width="0.92" height="1.98"/>
          <rect x="142.33" y="130.77" width="0.92" height="1.7"/>
          <rect x="143.2" y="130.95" width="0.92" height="1.51"/>
          <rect x="144.07" y="131.11" width="0.92" height="1.35"/>
          <rect x="144.94" y="131.3" width="0.92" height="1.16"/>
          <rect x="145.81" y="131.46" width="0.92" height="1.01"/>
          <rect x="146.68" y="131.6" width="0.92" height="0.86"/>
          <rect x="147.55" y="131.75" width="0.92" height="0.72"/>
          <rect x="148.41" y="131.85" width="0.92" height="0.62"/>
          <rect x="149.28" y="131.92" width="0.92" height="0.55"/>
          <rect x="150.15" y="131.98" width="0.92" height="0.48"/>
          <rect x="151.02" y="132.06" width="0.92" height="0.41"/>
          <rect x="151.89" y="132.14" width="0.92" height="0.32"/>
          <rect x="152.76" y="132.15" width="0.92" height="0.31"/>
          <rect x="153.63" y="132.19" width="0.92" height="0.27"/>
          <rect x="154.5" y="132.24" width="0.92" height="0.22"/>
          <rect x="155.37" y="132.32" width="0.92" height="0.14"/>
          <rect x="156.23" y="132.32" width="0.92" height="0.14"/>
          <rect x="157.1" y="132.32" width="0.92" height="0.15"/>
          <rect x="157.97" y="132.34" width="0.92" height="0.12"/>
          <rect x="158.84" y="132.37" width="0.92" height="0.09"/>
          <rect x="159.71" y="132.38" width="0.92" height="0.08"/>
          <rect x="160.58" y="132.41" width="0.92" height="0.05"/>
          <rect x="161.45" y="132.43" width="0.92" height="0.03"/>
          <rect x="162.32" y="132.42" width="0.92" height="0.04"/>
          <rect x="163.19" y="132.42" width="0.92" height="0.04"/>
          <rect x="164.05" y="132.45" width="0.92" height="0.02"/>
          <rect x="164.92" y="132.43" width="0.92" height="0.03"/>
          <rect x="165.79" y="132.44" width="0.92" height="0.02"/>
          <rect x="166.66" y="132.45" width="0.92" height="0.01"/>
          <rect x="167.53" y="132.44" width="0.92" height="0.02"/>
          <rect x="168.4" y="132.45" width="0.92" height="0.01"/>
          <rect x="169.27" y="132.46" width="0.92" height="0.01"/>
          <rect x="170.14" y="132.46" width="0.92" height="0.01"/>
          <rect x="171.01" y="132.46" width="0.92" height="0.01"/>
          <rect x="171.87" y="132.45" width="0.92" height="0.01"/>
          <rect x="172.74" y="132.46" width="0.92" height="0.01"/>
          <rect x="173.61" y="132.46" width="0.92" height="0.01"/>
          <rect x="174.48" y="132.46" width="0.92" height="0.01"/>
          <rect x="175.35" y="132.46" width="0.92" height="0.01"/>
          <rect x="176.22" y="132.46" width="0.92" height="0.01"/>
          <rect x="177.09" y="132.46" width="0.92" height="0.01"/>
          <rect x="177.96" y="132.46" width="0.92" height="0.01"/>
          <rect x="178.83" y="132.46" width="0.92" height="0.01"/>
        </g>
      </g>
    </g>
  </g>
</g>
  <g class="guide ylabels" font-size="2.82" font-family="'PT Sans Caption','Helvetica Neue','Helvetica',sans-serif" fill="#6C606B" id="img-8dd4bcdc-26">
    <text x="23.76" y="132.46" text-anchor="end" dy="0.35em">0</text>
    <text x="23.76" y="123.71" text-anchor="end" dy="0.35em">5.0×10³</text>
    <text x="23.76" y="114.97" text-anchor="end" dy="0.35em">1.0×10⁴</text>
    <text x="23.76" y="106.22" text-anchor="end" dy="0.35em">1.5×10⁴</text>
    <text x="23.76" y="97.47" text-anchor="end" dy="0.35em">2.0×10⁴</text>
    <text x="23.76" y="88.73" text-anchor="end" dy="0.35em">2.5×10⁴</text>
  </g>
  <g font-size="3.88" font-family="'PT Sans','Helvetica Neue','Helvetica',sans-serif" fill="#564A55" stroke="#000000" stroke-opacity="0.000" id="img-8dd4bcdc-27">
    <text x="8.41" y="108.59" text-anchor="middle" dy="0.35em" transform="rotate(-90, 8.41, 110.59)">σₛ</text>
  </g>
  <g font-size="3.88" font-family="'PT Sans','Helvetica Neue','Helvetica',sans-serif" fill="#564A55" stroke="#000000" stroke-opacity="0.000" id="img-8dd4bcdc-28">
    <text x="105.13" y="81.2" text-anchor="middle" dy="0.6em">Distribution of σₛ</text>
  </g>
</g>
<g class="plotroot xscalable yscalable" id="img-8dd4bcdc-29">
  <g font-size="3.88" font-family="'PT Sans','Helvetica Neue','Helvetica',sans-serif" fill="#564A55" stroke="#000000" stroke-opacity="0.000" id="img-8dd4bcdc-30">
    <text x="104.25" y="65.38" text-anchor="middle" dy="0.6em">Iteration</text>
  </g>
  <g class="guide xlabels" font-size="2.82" font-family="'PT Sans Caption','Helvetica Neue','Helvetica',sans-serif" fill="#6C606B" id="img-8dd4bcdc-31">
    <text x="24.99" y="59.26" text-anchor="middle" dy="0.6em">-0.004</text>
    <text x="51.41" y="59.26" text-anchor="middle" dy="0.6em">-0.003</text>
    <text x="77.83" y="59.26" text-anchor="middle" dy="0.6em">-0.002</text>
    <text x="104.25" y="59.26" text-anchor="middle" dy="0.6em">-0.001</text>
    <text x="130.66" y="59.26" text-anchor="middle" dy="0.6em">0.000</text>
    <text x="157.08" y="59.26" text-anchor="middle" dy="0.6em">0.001</text>
    <text x="183.5" y="59.26" text-anchor="middle" dy="0.6em">0.002</text>
  </g>
<g clip-path="url(#img-8dd4bcdc-32)">
  <g id="img-8dd4bcdc-33">
    <g pointer-events="visible" opacity="1" fill="#000000" fill-opacity="0.000" stroke="#000000" stroke-opacity="0.000" class="guide background" id="img-8dd4bcdc-34">
      <rect x="22.99" y="10.53" width="162.51" height="47.73"/>
    </g>
    <g class="guide ygridlines xfixed" stroke-dasharray="0.5,0.5" stroke-width="0.2" stroke="#D0D0E0" id="img-8dd4bcdc-35">
      <path fill="none" d="M22.99,56.26 L 185.5 56.26"/>
      <path fill="none" d="M22.99,41.68 L 185.5 41.68"/>
      <path fill="none" d="M22.99,27.11 L 185.5 27.11"/>
      <path fill="none" d="M22.99,12.53 L 185.5 12.53"/>
    </g>
    <g class="guide xgridlines yfixed" stroke-dasharray="0.5,0.5" stroke-width="0.2" stroke="#D0D0E0" id="img-8dd4bcdc-36">
      <path fill="none" d="M24.99,10.53 L 24.99 58.26"/>
      <path fill="none" d="M51.41,10.53 L 51.41 58.26"/>
      <path fill="none" d="M77.83,10.53 L 77.83 58.26"/>
      <path fill="none" d="M104.25,10.53 L 104.25 58.26"/>
      <path fill="none" d="M130.66,10.53 L 130.66 58.26"/>
      <path fill="none" d="M157.08,10.53 L 157.08 58.26"/>
      <path fill="none" d="M183.5,10.53 L 183.5 58.26"/>
    </g>
    <g class="plotpanel" id="img-8dd4bcdc-37">
      <g shape-rendering="crispEdges" stroke-width="0.3" id="img-8dd4bcdc-38">
        <g stroke="#000000" stroke-opacity="0.000" class="geometry" fill="#00BFFF" id="img-8dd4bcdc-39">
          <rect x="26.03" y="56.26" width="0.93" height="0.01"/>
          <rect x="26.91" y="56.26" width="0.93" height="0.01"/>
          <rect x="27.79" y="56.26" width="0.93" height="0.01"/>
          <rect x="28.67" y="56.26" width="0.93" height="0.01"/>
          <rect x="29.56" y="56.26" width="0.93" height="0.01"/>
          <rect x="30.44" y="56.26" width="0.93" height="0.01"/>
          <rect x="31.32" y="56.26" width="0.93" height="0.01"/>
          <rect x="32.2" y="56.26" width="0.93" height="0.01"/>
          <rect x="33.08" y="56.26" width="0.93" height="0.01"/>
          <rect x="33.96" y="56.26" width="0.93" height="0.01"/>
          <rect x="34.84" y="56.26" width="0.93" height="0.01"/>
          <rect x="35.72" y="56.26" width="0.93" height="0.01"/>
          <rect x="36.6" y="56.26" width="0.93" height="0.01"/>
          <rect x="37.48" y="56.26" width="0.93" height="0.01"/>
          <rect x="38.36" y="56.26" width="0.93" height="0.01"/>
          <rect x="39.24" y="56.25" width="0.93" height="0.01"/>
          <rect x="40.12" y="56.25" width="0.93" height="0.01"/>
          <rect x="41" y="56.25" width="0.93" height="0.01"/>
          <rect x="41.89" y="56.24" width="0.93" height="0.02"/>
          <rect x="42.77" y="56.25" width="0.93" height="0.01"/>
          <rect x="43.65" y="56.24" width="0.93" height="0.02"/>
          <rect x="44.53" y="56.24" width="0.93" height="0.02"/>
          <rect x="45.41" y="56.23" width="0.93" height="0.03"/>
          <rect x="46.29" y="56.23" width="0.93" height="0.03"/>
          <rect x="47.17" y="56.21" width="0.93" height="0.05"/>
          <rect x="48.05" y="56.22" width="0.93" height="0.04"/>
          <rect x="48.93" y="56.2" width="0.93" height="0.06"/>
          <rect x="49.81" y="56.18" width="0.93" height="0.08"/>
          <rect x="50.69" y="56.15" width="0.93" height="0.11"/>
          <rect x="51.57" y="56.12" width="0.93" height="0.14"/>
          <rect x="52.45" y="56.09" width="0.93" height="0.17"/>
          <rect x="53.33" y="56.07" width="0.93" height="0.19"/>
          <rect x="54.22" y="56.04" width="0.93" height="0.22"/>
          <rect x="55.1" y="56" width="0.93" height="0.27"/>
          <rect x="55.98" y="55.91" width="0.93" height="0.35"/>
          <rect x="56.86" y="55.79" width="0.93" height="0.47"/>
          <rect x="57.74" y="55.72" width="0.93" height="0.54"/>
          <rect x="58.62" y="55.63" width="0.93" height="0.63"/>
          <rect x="59.5" y="55.5" width="0.93" height="0.76"/>
          <rect x="60.38" y="55.35" width="0.93" height="0.91"/>
          <rect x="61.26" y="55.2" width="0.93" height="1.06"/>
          <rect x="62.14" y="54.97" width="0.93" height="1.3"/>
          <rect x="63.02" y="54.78" width="0.93" height="1.48"/>
          <rect x="63.9" y="54.44" width="0.93" height="1.83"/>
          <rect x="64.78" y="54.17" width="0.93" height="2.09"/>
          <rect x="65.66" y="53.63" width="0.93" height="2.63"/>
          <rect x="66.54" y="53.16" width="0.93" height="3.1"/>
          <rect x="67.43" y="52.88" width="0.93" height="3.38"/>
          <rect x="68.31" y="52.22" width="0.93" height="4.04"/>
          <rect x="69.19" y="51.65" width="0.93" height="4.61"/>
          <rect x="70.07" y="51.01" width="0.93" height="5.25"/>
          <rect x="70.95" y="50.16" width="0.93" height="6.11"/>
          <rect x="71.83" y="49.47" width="0.93" height="6.79"/>
          <rect x="72.71" y="48.43" width="0.93" height="7.84"/>
          <rect x="73.59" y="47.54" width="0.93" height="8.72"/>
          <rect x="74.47" y="46.32" width="0.93" height="9.94"/>
          <rect x="75.35" y="45.15" width="0.93" height="11.11"/>
          <rect x="76.23" y="43.85" width="0.93" height="12.41"/>
          <rect x="77.11" y="42.82" width="0.93" height="13.45"/>
          <rect x="77.99" y="41.32" width="0.93" height="14.94"/>
          <rect x="78.87" y="39.83" width="0.93" height="16.43"/>
          <rect x="79.76" y="38.45" width="0.93" height="17.81"/>
          <rect x="80.64" y="37.03" width="0.93" height="19.23"/>
          <rect x="81.52" y="34.91" width="0.93" height="21.35"/>
          <rect x="82.4" y="33.21" width="0.93" height="23.05"/>
          <rect x="83.28" y="32.18" width="0.93" height="24.08"/>
          <rect x="84.16" y="30.13" width="0.93" height="26.14"/>
          <rect x="85.04" y="28.75" width="0.93" height="27.52"/>
          <rect x="85.92" y="27.02" width="0.93" height="29.24"/>
          <rect x="86.8" y="25.26" width="0.93" height="31"/>
          <rect x="87.68" y="23.88" width="0.93" height="32.38"/>
          <rect x="88.56" y="22.2" width="0.93" height="34.06"/>
          <rect x="89.44" y="21.37" width="0.93" height="34.89"/>
          <rect x="90.32" y="19.75" width="0.93" height="36.51"/>
          <rect x="91.2" y="19.09" width="0.93" height="37.17"/>
          <rect x="92.09" y="17.93" width="0.93" height="38.33"/>
          <rect x="92.97" y="17.18" width="0.93" height="39.08"/>
          <rect x="93.85" y="16.84" width="0.93" height="39.42"/>
          <rect x="94.73" y="16.46" width="0.93" height="39.8"/>
          <rect x="95.61" y="16.05" width="0.93" height="40.21"/>
          <rect x="96.49" y="16.21" width="0.93" height="40.05"/>
          <rect x="97.37" y="16.15" width="0.93" height="40.11"/>
          <rect x="98.25" y="16.38" width="0.93" height="39.88"/>
          <rect x="99.13" y="17.31" width="0.93" height="38.95"/>
          <rect x="100.01" y="17.67" width="0.93" height="38.59"/>
          <rect x="100.89" y="18.74" width="0.93" height="37.52"/>
          <rect x="101.77" y="20.01" width="0.93" height="36.25"/>
          <rect x="102.65" y="21.2" width="0.93" height="35.06"/>
          <rect x="103.53" y="22.26" width="0.93" height="34"/>
          <rect x="104.41" y="23.88" width="0.93" height="32.38"/>
          <rect x="105.3" y="25.53" width="0.93" height="30.73"/>
          <rect x="106.18" y="26.95" width="0.93" height="29.31"/>
          <rect x="107.06" y="28.48" width="0.93" height="27.78"/>
          <rect x="107.94" y="30.39" width="0.93" height="25.87"/>
          <rect x="108.82" y="32.13" width="0.93" height="24.13"/>
          <rect x="109.7" y="33.89" width="0.93" height="22.38"/>
          <rect x="110.58" y="35.8" width="0.93" height="20.46"/>
          <rect x="111.46" y="37.35" width="0.93" height="18.91"/>
          <rect x="112.34" y="38.86" width="0.93" height="17.4"/>
          <rect x="113.22" y="40.51" width="0.93" height="15.76"/>
          <rect x="114.1" y="41.78" width="0.93" height="14.48"/>
          <rect x="114.98" y="43.41" width="0.93" height="12.85"/>
          <rect x="115.86" y="44.76" width="0.93" height="11.5"/>
          <rect x="116.74" y="46.09" width="0.93" height="10.17"/>
          <rect x="117.63" y="47.02" width="0.93" height="9.24"/>
          <rect x="118.51" y="48.06" width="0.93" height="8.2"/>
          <rect x="119.39" y="49.04" width="0.93" height="7.22"/>
          <rect x="120.27" y="49.92" width="0.93" height="6.34"/>
          <rect x="121.15" y="50.66" width="0.93" height="5.6"/>
          <rect x="122.03" y="51.28" width="0.93" height="4.99"/>
          <rect x="122.91" y="51.98" width="0.93" height="4.28"/>
          <rect x="123.79" y="52.62" width="0.93" height="3.64"/>
          <rect x="124.67" y="53.12" width="0.93" height="3.14"/>
          <rect x="125.55" y="53.66" width="0.93" height="2.6"/>
          <rect x="126.43" y="53.94" width="0.93" height="2.33"/>
          <rect x="127.31" y="54.38" width="0.93" height="1.88"/>
          <rect x="128.19" y="54.59" width="0.93" height="1.67"/>
          <rect x="129.07" y="54.94" width="0.93" height="1.32"/>
          <rect x="129.96" y="55.14" width="0.93" height="1.12"/>
          <rect x="130.84" y="55.34" width="0.93" height="0.93"/>
          <rect x="131.72" y="55.56" width="0.93" height="0.7"/>
          <rect x="132.6" y="55.59" width="0.93" height="0.67"/>
          <rect x="133.48" y="55.79" width="0.93" height="0.47"/>
          <rect x="134.36" y="55.88" width="0.93" height="0.38"/>
          <rect x="135.24" y="55.95" width="0.93" height="0.31"/>
          <rect x="136.12" y="55.96" width="0.93" height="0.3"/>
          <rect x="137" y="56.05" width="0.93" height="0.21"/>
          <rect x="137.88" y="56.11" width="0.93" height="0.15"/>
          <rect x="138.76" y="56.13" width="0.93" height="0.13"/>
          <rect x="139.64" y="56.14" width="0.93" height="0.12"/>
          <rect x="140.52" y="56.18" width="0.93" height="0.08"/>
          <rect x="141.4" y="56.19" width="0.93" height="0.07"/>
          <rect x="142.29" y="56.21" width="0.93" height="0.05"/>
          <rect x="143.17" y="56.21" width="0.93" height="0.05"/>
          <rect x="144.05" y="56.24" width="0.93" height="0.02"/>
          <rect x="144.93" y="56.23" width="0.93" height="0.03"/>
          <rect x="145.81" y="56.24" width="0.93" height="0.02"/>
          <rect x="146.69" y="56.25" width="0.93" height="0.02"/>
          <rect x="147.57" y="56.25" width="0.93" height="0.01"/>
          <rect x="148.45" y="56.26" width="0.93" height="0.01"/>
          <rect x="149.33" y="56.25" width="0.93" height="0.01"/>
          <rect x="150.21" y="56.26" width="0.93" height="0.01"/>
          <rect x="151.09" y="56.26" width="0.93" height="0.01"/>
          <rect x="151.97" y="56.26" width="0.93" height="0.01"/>
          <rect x="152.85" y="56.26" width="0.93" height="0.01"/>
          <rect x="153.73" y="56.26" width="0.93" height="0.01"/>
          <rect x="154.61" y="56.26" width="0.93" height="0.01"/>
          <rect x="155.5" y="56.26" width="0.93" height="0.01"/>
          <rect x="156.38" y="56.26" width="0.93" height="0.01"/>
          <rect x="157.26" y="56.26" width="0.93" height="0.01"/>
        </g>
      </g>
    </g>
  </g>
</g>
  <g class="guide ylabels" font-size="2.82" font-family="'PT Sans Caption','Helvetica Neue','Helvetica',sans-serif" fill="#6C606B" id="img-8dd4bcdc-40">
    <text x="21.99" y="56.26" text-anchor="end" dy="0.35em">0</text>
    <text x="21.99" y="41.68" text-anchor="end" dy="0.35em">1×10⁴</text>
    <text x="21.99" y="27.11" text-anchor="end" dy="0.35em">2×10⁴</text>
    <text x="21.99" y="12.53" text-anchor="end" dy="0.35em">3×10⁴</text>
  </g>
  <g font-size="3.88" font-family="'PT Sans','Helvetica Neue','Helvetica',sans-serif" fill="#564A55" stroke="#000000" stroke-opacity="0.000" id="img-8dd4bcdc-41">
    <text x="8.41" y="32.39" text-anchor="middle" dy="0.35em" transform="rotate(-90, 8.41, 34.39)">μₛ</text>
  </g>
  <g font-size="3.88" font-family="'PT Sans','Helvetica Neue','Helvetica',sans-serif" fill="#564A55" stroke="#000000" stroke-opacity="0.000" id="img-8dd4bcdc-42">
    <text x="104.25" y="5" text-anchor="middle" dy="0.6em">Distribution of μₛ</text>
  </g>
</g>
<defs>
  <clipPath id="img-8dd4bcdc-32">
  <path d="M22.99,10.53 L 185.5 10.53 185.5 58.26 22.99 58.26" />
</clipPath>
  <clipPath id="img-8dd4bcdc-18">
  <path d="M24.76,86.73 L 185.5 86.73 185.5 134.46 24.76 134.46" />
</clipPath>
  <clipPath id="img-8dd4bcdc-4">
  <path d="M24.76,162.57 L 185.5 162.57 185.5 210.66 24.76 210.66" />
</clipPath>
</defs>
</svg>
