<?xml version="1.0" encoding="UTF-8"?>
<svg xmlns="http://www.w3.org/2000/svg"
     xmlns:xlink="http://www.w3.org/1999/xlink"
     xmlns:gadfly="http://www.gadflyjl.org/ns"
     version="1.2"
     width="190.5mm" height="228.6mm" viewBox="0 0 190.5 228.6"
     stroke="none"
     fill="#000000"
     stroke-width="0.3"
     font-size="3.88"
>
<g class="plotroot xscalable yscalable" id="img-3b7973b2-1">
  <g font-size="3.88" font-family="'PT Sans','Helvetica Neue','Helvetica',sans-serif" fill="#564A55" stroke="#000000" stroke-opacity="0.000" id="img-3b7973b2-2">
    <text x="104.78" y="217.78" text-anchor="middle" dy="0.6em">Iteration</text>
  </g>
  <g class="guide xlabels" font-size="2.82" font-family="'PT Sans Caption','Helvetica Neue','Helvetica',sans-serif" fill="#6C606B" id="img-3b7973b2-3">
    <text x="26.05" y="211.66" text-anchor="middle" dy="0.6em">0.0060</text>
    <text x="57.54" y="211.66" text-anchor="middle" dy="0.6em">0.0062</text>
    <text x="89.03" y="211.66" text-anchor="middle" dy="0.6em">0.0064</text>
    <text x="120.52" y="211.66" text-anchor="middle" dy="0.6em">0.0066</text>
    <text x="152.01" y="211.66" text-anchor="middle" dy="0.6em">0.0068</text>
    <text x="183.5" y="211.66" text-anchor="middle" dy="0.6em">0.0070</text>
  </g>
<g clip-path="url(#img-3b7973b2-4)">
  <g id="img-3b7973b2-5">
    <g pointer-events="visible" opacity="1" fill="#000000" fill-opacity="0.000" stroke="#000000" stroke-opacity="0.000" class="guide background" id="img-3b7973b2-6">
      <rect x="24.05" y="124.48" width="161.45" height="86.19"/>
    </g>
    <g class="guide ygridlines xfixed" stroke-dasharray="0.5,0.5" stroke-width="0.2" stroke="#D0D0E0" id="img-3b7973b2-7">
      <path fill="none" d="M24.05,208.66 L 185.5 208.66"/>
      <path fill="none" d="M24.05,192.22 L 185.5 192.22"/>
      <path fill="none" d="M24.05,175.79 L 185.5 175.79"/>
      <path fill="none" d="M24.05,159.35 L 185.5 159.35"/>
      <path fill="none" d="M24.05,142.91 L 185.5 142.91"/>
      <path fill="none" d="M24.05,126.48 L 185.5 126.48"/>
    </g>
    <g class="guide xgridlines yfixed" stroke-dasharray="0.5,0.5" stroke-width="0.2" stroke="#D0D0E0" id="img-3b7973b2-8">
      <path fill="none" d="M26.05,124.48 L 26.05 210.66"/>
      <path fill="none" d="M57.54,124.48 L 57.54 210.66"/>
      <path fill="none" d="M89.03,124.48 L 89.03 210.66"/>
      <path fill="none" d="M120.52,124.48 L 120.52 210.66"/>
      <path fill="none" d="M152.01,124.48 L 152.01 210.66"/>
      <path fill="none" d="M183.5,124.48 L 183.5 210.66"/>
    </g>
    <g class="plotpanel" id="img-3b7973b2-9">
      <g shape-rendering="crispEdges" stroke-width="0.3" id="img-3b7973b2-10">
        <g stroke="#000000" stroke-opacity="0.000" class="geometry" fill="#00BFFF" id="img-3b7973b2-11">
          <rect x="51.75" y="208.66" width="0.93" height="0.01"/>
          <rect x="52.62" y="208.66" width="0.93" height="0.01"/>
          <rect x="53.5" y="208.66" width="0.93" height="0.01"/>
          <rect x="54.38" y="208.65" width="0.93" height="0.01"/>
          <rect x="55.25" y="208.65" width="0.93" height="0.01"/>
          <rect x="56.13" y="208.64" width="0.93" height="0.02"/>
          <rect x="57" y="208.65" width="0.93" height="0.01"/>
          <rect x="57.88" y="208.65" width="0.93" height="0.01"/>
          <rect x="58.75" y="208.64" width="0.93" height="0.02"/>
          <rect x="59.63" y="208.63" width="0.93" height="0.03"/>
          <rect x="60.5" y="208.64" width="0.93" height="0.02"/>
          <rect x="61.38" y="208.62" width="0.93" height="0.04"/>
          <rect x="62.25" y="208.61" width="0.93" height="0.06"/>
          <rect x="63.13" y="208.57" width="0.93" height="0.09"/>
          <rect x="64" y="208.57" width="0.93" height="0.1"/>
          <rect x="64.88" y="208.59" width="0.93" height="0.07"/>
          <rect x="65.75" y="208.58" width="0.93" height="0.09"/>
          <rect x="66.63" y="208.48" width="0.93" height="0.18"/>
          <rect x="67.5" y="208.5" width="0.93" height="0.16"/>
          <rect x="68.38" y="208.43" width="0.93" height="0.23"/>
          <rect x="69.25" y="208.38" width="0.93" height="0.28"/>
          <rect x="70.13" y="208.31" width="0.93" height="0.36"/>
          <rect x="71" y="208.2" width="0.93" height="0.46"/>
          <rect x="71.88" y="208.1" width="0.93" height="0.56"/>
          <rect x="72.75" y="208.04" width="0.93" height="0.62"/>
          <rect x="73.63" y="207.92" width="0.93" height="0.74"/>
          <rect x="74.5" y="207.88" width="0.93" height="0.79"/>
          <rect x="75.38" y="207.62" width="0.93" height="1.04"/>
          <rect x="76.25" y="207.33" width="0.93" height="1.33"/>
          <rect x="77.13" y="207.23" width="0.93" height="1.43"/>
          <rect x="78" y="207" width="0.93" height="1.66"/>
          <rect x="78.88" y="206.54" width="0.93" height="2.12"/>
          <rect x="79.75" y="206.35" width="0.93" height="2.31"/>
          <rect x="80.63" y="205.69" width="0.93" height="2.97"/>
          <rect x="81.5" y="205.37" width="0.93" height="3.29"/>
          <rect x="82.38" y="204.98" width="0.93" height="3.68"/>
          <rect x="83.26" y="204.15" width="0.93" height="4.51"/>
          <rect x="84.13" y="203.59" width="0.93" height="5.07"/>
          <rect x="85.01" y="202.63" width="0.93" height="6.03"/>
          <rect x="85.88" y="202.04" width="0.93" height="6.62"/>
          <rect x="86.76" y="201.36" width="0.93" height="7.3"/>
          <rect x="87.63" y="199.95" width="0.93" height="8.72"/>
          <rect x="88.51" y="198.85" width="0.93" height="9.81"/>
          <rect x="89.38" y="197.79" width="0.93" height="10.87"/>
          <rect x="90.26" y="196.4" width="0.93" height="12.27"/>
          <rect x="91.13" y="195.08" width="0.93" height="13.58"/>
          <rect x="92.01" y="193.34" width="0.93" height="15.32"/>
          <rect x="92.88" y="191.53" width="0.93" height="17.13"/>
          <rect x="93.76" y="189.67" width="0.93" height="18.99"/>
          <rect x="94.63" y="188.13" width="0.93" height="20.53"/>
          <rect x="95.51" y="185.69" width="0.93" height="22.97"/>
          <rect x="96.38" y="183.83" width="0.93" height="24.83"/>
          <rect x="97.26" y="180.93" width="0.93" height="27.73"/>
          <rect x="98.13" y="178.76" width="0.93" height="29.91"/>
          <rect x="99.01" y="176.05" width="0.93" height="32.61"/>
          <rect x="99.88" y="173.25" width="0.93" height="35.42"/>
          <rect x="100.76" y="170.65" width="0.93" height="38.02"/>
          <rect x="101.63" y="167.91" width="0.93" height="40.75"/>
          <rect x="102.51" y="165.33" width="0.93" height="43.34"/>
          <rect x="103.38" y="162.48" width="0.93" height="46.19"/>
          <rect x="104.26" y="159.31" width="0.93" height="49.35"/>
          <rect x="105.13" y="156.76" width="0.93" height="51.91"/>
          <rect x="106.01" y="154.53" width="0.93" height="54.13"/>
          <rect x="106.88" y="151.18" width="0.93" height="57.48"/>
          <rect x="107.76" y="148.38" width="0.93" height="60.28"/>
          <rect x="108.63" y="145.86" width="0.93" height="62.8"/>
          <rect x="109.51" y="143.43" width="0.93" height="65.24"/>
          <rect x="110.38" y="140.66" width="0.93" height="68"/>
          <rect x="111.26" y="138.95" width="0.93" height="69.71"/>
          <rect x="112.14" y="136.14" width="0.93" height="72.52"/>
          <rect x="113.01" y="134.94" width="0.93" height="73.72"/>
          <rect x="113.89" y="134.4" width="0.93" height="74.26"/>
          <rect x="114.76" y="132.16" width="0.93" height="76.5"/>
          <rect x="115.64" y="130.09" width="0.93" height="78.57"/>
          <rect x="116.51" y="131.01" width="0.93" height="77.66"/>
          <rect x="117.39" y="129.4" width="0.93" height="79.26"/>
          <rect x="118.26" y="128.76" width="0.93" height="79.9"/>
          <rect x="119.14" y="130.39" width="0.93" height="78.27"/>
          <rect x="120.01" y="129.25" width="0.93" height="79.41"/>
          <rect x="120.89" y="130.72" width="0.93" height="77.95"/>
          <rect x="121.76" y="131.01" width="0.93" height="77.66"/>
          <rect x="122.64" y="132.6" width="0.93" height="76.06"/>
          <rect x="123.51" y="133.67" width="0.93" height="74.99"/>
          <rect x="124.39" y="136" width="0.93" height="72.66"/>
          <rect x="125.26" y="137.87" width="0.93" height="70.8"/>
          <rect x="126.14" y="139.24" width="0.93" height="69.42"/>
          <rect x="127.01" y="141.97" width="0.93" height="66.7"/>
          <rect x="127.89" y="144.7" width="0.93" height="63.96"/>
          <rect x="128.76" y="147.26" width="0.93" height="61.4"/>
          <rect x="129.64" y="149.88" width="0.93" height="58.78"/>
          <rect x="130.51" y="152.26" width="0.93" height="56.4"/>
          <rect x="131.39" y="155.61" width="0.93" height="53.05"/>
          <rect x="132.26" y="158.05" width="0.93" height="50.61"/>
          <rect x="133.14" y="160.77" width="0.93" height="47.89"/>
          <rect x="134.01" y="164.22" width="0.93" height="44.44"/>
          <rect x="134.89" y="167.32" width="0.93" height="41.34"/>
          <rect x="135.76" y="170.02" width="0.93" height="38.64"/>
          <rect x="136.64" y="172.4" width="0.93" height="36.26"/>
          <rect x="137.51" y="175.67" width="0.93" height="32.99"/>
          <rect x="138.39" y="178.15" width="0.93" height="30.51"/>
          <rect x="139.27" y="180.45" width="0.93" height="28.21"/>
          <rect x="140.14" y="183.68" width="0.93" height="24.98"/>
          <rect x="141.02" y="185.12" width="0.93" height="23.54"/>
          <rect x="141.89" y="187.37" width="0.93" height="21.29"/>
          <rect x="142.77" y="189.57" width="0.93" height="19.09"/>
          <rect x="143.64" y="191.72" width="0.93" height="16.94"/>
          <rect x="144.52" y="193.81" width="0.93" height="14.86"/>
          <rect x="145.39" y="195.22" width="0.93" height="13.44"/>
          <rect x="146.27" y="197.11" width="0.93" height="11.55"/>
          <rect x="147.14" y="197.91" width="0.93" height="10.75"/>
          <rect x="148.02" y="199.35" width="0.93" height="9.31"/>
          <rect x="148.89" y="200.13" width="0.93" height="8.53"/>
          <rect x="149.77" y="201.27" width="0.93" height="7.39"/>
          <rect x="150.64" y="202.32" width="0.93" height="6.34"/>
          <rect x="151.52" y="203.25" width="0.93" height="5.41"/>
          <rect x="152.39" y="203.82" width="0.93" height="4.84"/>
          <rect x="153.27" y="204.5" width="0.93" height="4.17"/>
          <rect x="154.14" y="205.06" width="0.93" height="3.6"/>
          <rect x="155.02" y="205.8" width="0.93" height="2.86"/>
          <rect x="155.89" y="206.11" width="0.93" height="2.55"/>
          <rect x="156.77" y="206.31" width="0.93" height="2.35"/>
          <rect x="157.64" y="206.96" width="0.93" height="1.7"/>
          <rect x="158.52" y="207" width="0.93" height="1.66"/>
          <rect x="159.39" y="207.39" width="0.93" height="1.27"/>
          <rect x="160.27" y="207.64" width="0.93" height="1.03"/>
          <rect x="161.14" y="207.8" width="0.93" height="0.86"/>
          <rect x="162.02" y="207.86" width="0.93" height="0.81"/>
          <rect x="162.89" y="207.91" width="0.93" height="0.75"/>
          <rect x="163.77" y="208.15" width="0.93" height="0.51"/>
          <rect x="164.64" y="208.26" width="0.93" height="0.4"/>
          <rect x="165.52" y="208.32" width="0.93" height="0.34"/>
          <rect x="166.39" y="208.38" width="0.93" height="0.28"/>
          <rect x="167.27" y="208.42" width="0.93" height="0.24"/>
          <rect x="168.15" y="208.49" width="0.93" height="0.17"/>
          <rect x="169.02" y="208.53" width="0.93" height="0.13"/>
          <rect x="169.9" y="208.53" width="0.93" height="0.13"/>
          <rect x="170.77" y="208.58" width="0.93" height="0.08"/>
          <rect x="171.65" y="208.59" width="0.93" height="0.08"/>
          <rect x="172.52" y="208.62" width="0.93" height="0.04"/>
          <rect x="173.4" y="208.62" width="0.93" height="0.05"/>
          <rect x="174.27" y="208.62" width="0.93" height="0.04"/>
          <rect x="175.15" y="208.65" width="0.93" height="0.01"/>
          <rect x="176.02" y="208.65" width="0.93" height="0.01"/>
          <rect x="176.9" y="208.63" width="0.93" height="0.03"/>
          <rect x="177.77" y="208.65" width="0.93" height="0.01"/>
          <rect x="178.65" y="208.65" width="0.93" height="0.01"/>
          <rect x="179.52" y="208.65" width="0.93" height="0.01"/>
          <rect x="180.4" y="208.65" width="0.93" height="0.01"/>
          <rect x="181.27" y="208.65" width="0.93" height="0.01"/>
          <rect x="182.15" y="208.65" width="0.93" height="0.01"/>
        </g>
      </g>
    </g>
  </g>
</g>
  <g class="guide ylabels" font-size="2.82" font-family="'PT Sans Caption','Helvetica Neue','Helvetica',sans-serif" fill="#6C606B" id="img-3b7973b2-12">
    <text x="23.05" y="208.66" text-anchor="end" dy="0.35em">0</text>
    <text x="23.05" y="192.22" text-anchor="end" dy="0.35em">5.0×10³</text>
    <text x="23.05" y="175.79" text-anchor="end" dy="0.35em">1.0×10⁴</text>
    <text x="23.05" y="159.35" text-anchor="end" dy="0.35em">1.5×10⁴</text>
    <text x="23.05" y="142.91" text-anchor="end" dy="0.35em">2.0×10⁴</text>
    <text x="23.05" y="126.48" text-anchor="end" dy="0.35em">2.5×10⁴</text>
  </g>
  <g font-size="3.88" font-family="'PT Sans','Helvetica Neue','Helvetica',sans-serif" fill="#564A55" stroke="#000000" stroke-opacity="0.000" id="img-3b7973b2-13">
    <text x="8.06" y="165.57" text-anchor="middle" dy="0.35em" transform="rotate(-90, 8.06, 167.57)">σ</text>
  </g>
  <g font-size="3.88" font-family="'PT Sans','Helvetica Neue','Helvetica',sans-serif" fill="#564A55" stroke="#000000" stroke-opacity="0.000" id="img-3b7973b2-14">
    <text x="104.78" y="119.3" text-anchor="middle" dy="0.6em">Distribution of :σ</text>
  </g>
</g>
<g class="plotroot xscalable yscalable" id="img-3b7973b2-15">
  <g font-size="3.88" font-family="'PT Sans','Helvetica Neue','Helvetica',sans-serif" fill="#564A55" stroke="#000000" stroke-opacity="0.000" id="img-3b7973b2-16">
    <text x="104.25" y="103.48" text-anchor="middle" dy="0.6em">Iteration</text>
  </g>
  <g class="guide xlabels" font-size="2.82" font-family="'PT Sans Caption','Helvetica Neue','Helvetica',sans-serif" fill="#6C606B" id="img-3b7973b2-17">
    <text x="24.99" y="97.36" text-anchor="middle" dy="0.6em">0.0000</text>
    <text x="104.25" y="97.36" text-anchor="middle" dy="0.6em">0.0005</text>
    <text x="183.5" y="97.36" text-anchor="middle" dy="0.6em">0.0010</text>
  </g>
<g clip-path="url(#img-3b7973b2-18)">
  <g id="img-3b7973b2-19">
    <g pointer-events="visible" opacity="1" fill="#000000" fill-opacity="0.000" stroke="#000000" stroke-opacity="0.000" class="guide background" id="img-3b7973b2-20">
      <rect x="22.99" y="10.53" width="162.51" height="85.83"/>
    </g>
    <g class="guide ygridlines xfixed" stroke-dasharray="0.5,0.5" stroke-width="0.2" stroke="#D0D0E0" id="img-3b7973b2-21">
      <path fill="none" d="M22.99,94.36 L 185.5 94.36"/>
      <path fill="none" d="M22.99,67.08 L 185.5 67.08"/>
      <path fill="none" d="M22.99,39.81 L 185.5 39.81"/>
      <path fill="none" d="M22.99,12.53 L 185.5 12.53"/>
    </g>
    <g class="guide xgridlines yfixed" stroke-dasharray="0.5,0.5" stroke-width="0.2" stroke="#D0D0E0" id="img-3b7973b2-22">
      <path fill="none" d="M24.99,10.53 L 24.99 96.36"/>
      <path fill="none" d="M104.25,10.53 L 104.25 96.36"/>
      <path fill="none" d="M183.5,10.53 L 183.5 96.36"/>
    </g>
    <g class="plotpanel" id="img-3b7973b2-23">
      <g shape-rendering="crispEdges" stroke-width="0.3" id="img-3b7973b2-24">
        <g stroke="#000000" stroke-opacity="0.000" class="geometry" fill="#00BFFF" id="img-3b7973b2-25">
          <rect x="51.1" y="94.36" width="0.76" height="0.01"/>
          <rect x="51.81" y="94.36" width="0.76" height="0.01"/>
          <rect x="52.52" y="94.36" width="0.76" height="0.01"/>
          <rect x="53.23" y="94.36" width="0.76" height="0.01"/>
          <rect x="53.94" y="94.36" width="0.76" height="0.01"/>
          <rect x="54.65" y="94.36" width="0.76" height="0.01"/>
          <rect x="55.36" y="94.35" width="0.76" height="0.01"/>
          <rect x="56.06" y="94.34" width="0.76" height="0.02"/>
          <rect x="56.77" y="94.35" width="0.76" height="0.01"/>
          <rect x="57.48" y="94.34" width="0.76" height="0.02"/>
          <rect x="58.19" y="94.33" width="0.76" height="0.04"/>
          <rect x="58.9" y="94.32" width="0.76" height="0.04"/>
          <rect x="59.61" y="94.3" width="0.76" height="0.06"/>
          <rect x="60.31" y="94.29" width="0.76" height="0.07"/>
          <rect x="61.02" y="94.28" width="0.76" height="0.08"/>
          <rect x="61.73" y="94.25" width="0.76" height="0.11"/>
          <rect x="62.44" y="94.22" width="0.76" height="0.14"/>
          <rect x="63.15" y="94.21" width="0.76" height="0.15"/>
          <rect x="63.86" y="94.14" width="0.76" height="0.22"/>
          <rect x="64.57" y="94.1" width="0.76" height="0.26"/>
          <rect x="65.27" y="93.99" width="0.76" height="0.37"/>
          <rect x="65.98" y="94" width="0.76" height="0.36"/>
          <rect x="66.69" y="93.84" width="0.76" height="0.52"/>
          <rect x="67.4" y="93.74" width="0.76" height="0.62"/>
          <rect x="68.11" y="93.57" width="0.76" height="0.79"/>
          <rect x="68.82" y="93.35" width="0.76" height="1.01"/>
          <rect x="69.52" y="93.18" width="0.76" height="1.18"/>
          <rect x="70.23" y="92.8" width="0.76" height="1.57"/>
          <rect x="70.94" y="92.71" width="0.76" height="1.65"/>
          <rect x="71.65" y="92.22" width="0.76" height="2.14"/>
          <rect x="72.36" y="91.95" width="0.76" height="2.41"/>
          <rect x="73.07" y="91.47" width="0.76" height="2.89"/>
          <rect x="73.77" y="91.08" width="0.76" height="3.28"/>
          <rect x="74.48" y="90.31" width="0.76" height="4.05"/>
          <rect x="75.19" y="89.74" width="0.76" height="4.62"/>
          <rect x="75.9" y="88.93" width="0.76" height="5.43"/>
          <rect x="76.61" y="87.77" width="0.76" height="6.6"/>
          <rect x="77.32" y="87.15" width="0.76" height="7.21"/>
          <rect x="78.03" y="85.74" width="0.76" height="8.62"/>
          <rect x="78.73" y="84.67" width="0.76" height="9.69"/>
          <rect x="79.44" y="83.2" width="0.76" height="11.16"/>
          <rect x="80.15" y="82.37" width="0.76" height="11.99"/>
          <rect x="80.86" y="80.66" width="0.76" height="13.7"/>
          <rect x="81.57" y="78.56" width="0.76" height="15.8"/>
          <rect x="82.28" y="76.6" width="0.76" height="17.76"/>
          <rect x="82.98" y="74.79" width="0.76" height="19.57"/>
          <rect x="83.69" y="72.45" width="0.76" height="21.91"/>
          <rect x="84.4" y="70.04" width="0.76" height="24.32"/>
          <rect x="85.11" y="67.23" width="0.76" height="27.13"/>
          <rect x="85.82" y="64.95" width="0.76" height="29.41"/>
          <rect x="86.53" y="62.19" width="0.76" height="32.17"/>
          <rect x="87.24" y="59.97" width="0.76" height="34.39"/>
          <rect x="87.94" y="57.34" width="0.76" height="37.02"/>
          <rect x="88.65" y="53.86" width="0.76" height="40.5"/>
          <rect x="89.36" y="50.48" width="0.76" height="43.88"/>
          <rect x="90.07" y="48.76" width="0.76" height="45.6"/>
          <rect x="90.78" y="45.6" width="0.76" height="48.76"/>
          <rect x="91.49" y="42.26" width="0.76" height="52.11"/>
          <rect x="92.19" y="40.08" width="0.76" height="54.28"/>
          <rect x="92.9" y="37.41" width="0.76" height="56.95"/>
          <rect x="93.61" y="34.7" width="0.76" height="59.66"/>
          <rect x="94.32" y="31.16" width="0.76" height="63.21"/>
          <rect x="95.03" y="30.61" width="0.76" height="63.75"/>
          <rect x="95.74" y="27.47" width="0.76" height="66.9"/>
          <rect x="96.45" y="26.07" width="0.76" height="68.29"/>
          <rect x="97.15" y="25.11" width="0.76" height="69.25"/>
          <rect x="97.86" y="23.87" width="0.76" height="70.49"/>
          <rect x="98.57" y="24.1" width="0.76" height="70.26"/>
          <rect x="99.28" y="22.06" width="0.76" height="72.3"/>
          <rect x="99.99" y="22.17" width="0.76" height="72.19"/>
          <rect x="100.7" y="21.81" width="0.76" height="72.55"/>
          <rect x="101.4" y="22.16" width="0.76" height="72.2"/>
          <rect x="102.11" y="22.68" width="0.76" height="71.68"/>
          <rect x="102.82" y="24.64" width="0.76" height="69.72"/>
          <rect x="103.53" y="25.03" width="0.76" height="69.33"/>
          <rect x="104.24" y="26.26" width="0.76" height="68.1"/>
          <rect x="104.95" y="29.51" width="0.76" height="64.85"/>
          <rect x="105.66" y="31.45" width="0.76" height="62.91"/>
          <rect x="106.36" y="33.75" width="0.76" height="60.61"/>
          <rect x="107.07" y="35.73" width="0.76" height="58.63"/>
          <rect x="107.78" y="38.03" width="0.76" height="56.33"/>
          <rect x="108.49" y="41.17" width="0.76" height="53.19"/>
          <rect x="109.2" y="43.33" width="0.76" height="51.03"/>
          <rect x="109.91" y="47.73" width="0.76" height="46.63"/>
          <rect x="110.61" y="49.76" width="0.76" height="44.6"/>
          <rect x="111.32" y="52.27" width="0.76" height="42.1"/>
          <rect x="112.03" y="56.06" width="0.76" height="38.3"/>
          <rect x="112.74" y="58.67" width="0.76" height="35.69"/>
          <rect x="113.45" y="61.14" width="0.76" height="33.22"/>
          <rect x="114.16" y="64.08" width="0.76" height="30.28"/>
          <rect x="114.86" y="66.06" width="0.76" height="28.3"/>
          <rect x="115.57" y="69.1" width="0.76" height="25.26"/>
          <rect x="116.28" y="71.55" width="0.76" height="22.81"/>
          <rect x="116.99" y="73.17" width="0.76" height="21.19"/>
          <rect x="117.7" y="75.36" width="0.76" height="19"/>
          <rect x="118.41" y="77.74" width="0.76" height="16.62"/>
          <rect x="119.12" y="79.6" width="0.76" height="14.76"/>
          <rect x="119.82" y="81.02" width="0.76" height="13.34"/>
          <rect x="120.53" y="82.56" width="0.76" height="11.8"/>
          <rect x="121.24" y="84.12" width="0.76" height="10.24"/>
          <rect x="121.95" y="85.15" width="0.76" height="9.21"/>
          <rect x="122.66" y="86.47" width="0.76" height="7.89"/>
          <rect x="123.37" y="87.73" width="0.76" height="6.63"/>
          <rect x="124.07" y="88.44" width="0.76" height="5.92"/>
          <rect x="124.78" y="89.37" width="0.76" height="4.99"/>
          <rect x="125.49" y="89.94" width="0.76" height="4.42"/>
          <rect x="126.2" y="90.5" width="0.76" height="3.87"/>
          <rect x="126.91" y="91.33" width="0.76" height="3.03"/>
          <rect x="127.62" y="91.59" width="0.76" height="2.77"/>
          <rect x="128.33" y="92.05" width="0.76" height="2.31"/>
          <rect x="129.03" y="92.55" width="0.76" height="1.81"/>
          <rect x="129.74" y="92.75" width="0.76" height="1.61"/>
          <rect x="130.45" y="93.09" width="0.76" height="1.27"/>
          <rect x="131.16" y="93.3" width="0.76" height="1.06"/>
          <rect x="131.87" y="93.46" width="0.76" height="0.91"/>
          <rect x="132.58" y="93.62" width="0.76" height="0.74"/>
          <rect x="133.28" y="93.79" width="0.76" height="0.58"/>
          <rect x="133.99" y="93.86" width="0.76" height="0.5"/>
          <rect x="134.7" y="93.94" width="0.76" height="0.43"/>
          <rect x="135.41" y="94.03" width="0.76" height="0.33"/>
          <rect x="136.12" y="94.15" width="0.76" height="0.22"/>
          <rect x="136.83" y="94.12" width="0.76" height="0.24"/>
          <rect x="137.54" y="94.21" width="0.76" height="0.15"/>
          <rect x="138.24" y="94.21" width="0.76" height="0.15"/>
          <rect x="138.95" y="94.26" width="0.76" height="0.1"/>
          <rect x="139.66" y="94.3" width="0.76" height="0.07"/>
          <rect x="140.37" y="94.3" width="0.76" height="0.06"/>
          <rect x="141.08" y="94.33" width="0.76" height="0.03"/>
          <rect x="141.79" y="94.3" width="0.76" height="0.06"/>
          <rect x="142.49" y="94.31" width="0.76" height="0.05"/>
          <rect x="143.2" y="94.34" width="0.76" height="0.02"/>
          <rect x="143.91" y="94.34" width="0.76" height="0.02"/>
          <rect x="144.62" y="94.36" width="0.76" height="0.01"/>
          <rect x="145.33" y="94.35" width="0.76" height="0.01"/>
          <rect x="146.04" y="94.36" width="0.76" height="0.01"/>
          <rect x="146.75" y="94.36" width="0.76" height="0.01"/>
          <rect x="147.45" y="94.36" width="0.76" height="0.01"/>
          <rect x="148.16" y="94.36" width="0.76" height="0.01"/>
          <rect x="148.87" y="94.36" width="0.76" height="0.01"/>
          <rect x="149.58" y="94.36" width="0.76" height="0.01"/>
          <rect x="150.29" y="94.36" width="0.76" height="0.01"/>
          <rect x="151" y="94.36" width="0.76" height="0.01"/>
          <rect x="151.7" y="94.36" width="0.76" height="0.01"/>
          <rect x="152.41" y="94.36" width="0.76" height="0.01"/>
          <rect x="153.12" y="94.36" width="0.76" height="0.01"/>
          <rect x="153.83" y="94.36" width="0.76" height="0.01"/>
          <rect x="154.54" y="94.36" width="0.76" height="0.01"/>
          <rect x="155.25" y="94.36" width="0.76" height="0.01"/>
          <rect x="155.95" y="94.36" width="0.76" height="0.01"/>
          <rect x="156.66" y="94.36" width="0.76" height="0.01"/>
        </g>
      </g>
    </g>
  </g>
</g>
  <g class="guide ylabels" font-size="2.82" font-family="'PT Sans Caption','Helvetica Neue','Helvetica',sans-serif" fill="#6C606B" id="img-3b7973b2-26">
    <text x="21.99" y="94.36" text-anchor="end" dy="0.35em">0</text>
    <text x="21.99" y="67.08" text-anchor="end" dy="0.35em">1×10⁴</text>
    <text x="21.99" y="39.81" text-anchor="end" dy="0.35em">2×10⁴</text>
    <text x="21.99" y="12.53" text-anchor="end" dy="0.35em">3×10⁴</text>
  </g>
  <g font-size="3.88" font-family="'PT Sans','Helvetica Neue','Helvetica',sans-serif" fill="#564A55" stroke="#000000" stroke-opacity="0.000" id="img-3b7973b2-27">
    <text x="8.41" y="51.44" text-anchor="middle" dy="0.35em" transform="rotate(-90, 8.41, 53.44)">μ</text>
  </g>
  <g font-size="3.88" font-family="'PT Sans','Helvetica Neue','Helvetica',sans-serif" fill="#564A55" stroke="#000000" stroke-opacity="0.000" id="img-3b7973b2-28">
    <text x="104.25" y="5" text-anchor="middle" dy="0.6em">Distribution of μ</text>
  </g>
</g>
<defs>
  <clipPath id="img-3b7973b2-4">
  <path d="M24.05,124.48 L 185.5 124.48 185.5 210.66 24.05 210.66" />
</clipPath>
  <clipPath id="img-3b7973b2-18">
  <path d="M22.99,10.53 L 185.5 10.53 185.5 96.36 22.99 96.36" />
</clipPath>
</defs>
</svg>
