<?xml version="1.0" encoding="UTF-8"?>
<svg xmlns="http://www.w3.org/2000/svg"
     xmlns:xlink="http://www.w3.org/1999/xlink"
     xmlns:gadfly="http://www.gadflyjl.org/ns"
     version="1.2"
     width="190.5mm" height="228.6mm" viewBox="0 0 190.5 228.6"
     stroke="none"
     fill="#000000"
     stroke-width="0.3"
     font-size="3.88"
>
<g class="plotroot xscalable yscalable" id="img-516aaba3-1">
  <g font-size="3.88" font-family="'PT Sans','Helvetica Neue','Helvetica',sans-serif" fill="#564A55" stroke="#000000" stroke-opacity="0.000" id="img-516aaba3-2">
    <text x="95.59" y="217.42" text-anchor="middle" dy="0.6em">X Given S₀=100</text>
  </g>
  <g class="guide xlabels" font-size="2.82" font-family="'PT Sans Caption','Helvetica Neue','Helvetica',sans-serif" fill="#6C606B" id="img-516aaba3-3">
    <text x="20.76" y="211.31" text-anchor="middle" dy="0.6em">50</text>
    <text x="95.59" y="211.31" text-anchor="middle" dy="0.6em">100</text>
    <text x="170.42" y="211.31" text-anchor="middle" dy="0.6em">150</text>
  </g>
  <g class="guide colorkey" id="img-516aaba3-4">
    <g fill="#4C404B" font-size="2.82" font-family="'PT Sans','Helvetica Neue','Helvetica',sans-serif" id="img-516aaba3-5">
      <text x="175.97" y="110.77" dy="0.35em" id="img-516aaba3-6" class="color_Bates">Bates</text>
      <text x="175.97" y="113.89" dy="0.35em" id="img-516aaba3-7" class="color_Heston">Heston</text>
    </g>
    <g stroke="#000000" stroke-opacity="0.000" id="img-516aaba3-8">
      <rect x="173.42" y="109.99" width="1.56" height="1.56" id="img-516aaba3-9" class="color_Bates" fill="#00BFFF"/>
      <rect x="173.42" y="113.11" width="1.56" height="1.56" id="img-516aaba3-10" class="color_Heston" fill="#D4CA3A"/>
    </g>
    <g fill="#362A35" font-size="3.88" font-family="'PT Sans','Helvetica Neue','Helvetica',sans-serif" stroke="#000000" stroke-opacity="0.000" id="img-516aaba3-11">
      <text x="173.42" y="107.07" id="img-516aaba3-12">model</text>
    </g>
  </g>
<g clip-path="url(#img-516aaba3-13)">
  <g id="img-516aaba3-14">
    <g pointer-events="visible" opacity="1" fill="#000000" fill-opacity="0.000" stroke="#000000" stroke-opacity="0.000" class="guide background" id="img-516aaba3-15">
      <rect x="18.76" y="11.23" width="153.66" height="199.08" id="img-516aaba3-16"/>
    </g>
    <g class="guide ygridlines xfixed" stroke-dasharray="0.5,0.5" stroke-width="0.2" stroke="#D0D0E0" id="img-516aaba3-17">
      <path fill="none" d="M18.76,208.31 L 172.42 208.31" id="img-516aaba3-18"/>
      <path fill="none" d="M18.76,110.77 L 172.42 110.77" id="img-516aaba3-19"/>
      <path fill="none" d="M18.76,13.23 L 172.42 13.23" id="img-516aaba3-20"/>
    </g>
    <g class="guide xgridlines yfixed" stroke-dasharray="0.5,0.5" stroke-width="0.2" stroke="#D0D0E0" id="img-516aaba3-21">
      <path fill="none" d="M20.76,11.23 L 20.76 210.31" id="img-516aaba3-22"/>
      <path fill="none" d="M95.59,11.23 L 95.59 210.31" id="img-516aaba3-23"/>
      <path fill="none" d="M170.42,11.23 L 170.42 210.31" id="img-516aaba3-24"/>
    </g>
    <g class="plotpanel" id="img-516aaba3-25">
      <g stroke-width="0.3" fill="#000000" fill-opacity="0.000" stroke-dasharray="none" id="img-516aaba3-26">
        <path fill="none" d="M20.76,77.36 L 20.91 77.44 21.06 77.53 21.21 77.62 21.36 77.71 21.51 77.8 21.66 77.89 21.81 77.98 21.96 78.07 22.11 78.15 22.26 78.24 22.41 78.33 22.56 78.42 22.71 78.51 22.86 78.59 23.01 78.68 23.16 78.77 23.31 78.86 23.45 78.94 23.6 79.03 23.75 79.12 23.9 79.21 24.05 79.29 24.2 79.38 24.35 79.47 24.5 79.55 24.65 79.64 24.8 79.73 24.95 79.81 25.1 79.9 25.25 79.99 25.4 80.07 25.55 80.16 25.7 80.24 25.85 80.33 26 80.42 26.15 80.5 26.3 80.59 26.45 80.67 26.6 80.76 26.75 80.84 26.9 80.93 27.05 81.01 27.2 81.1 27.35 81.18 27.5 81.27 27.65 81.35 27.79 81.44 27.94 81.52 28.09 81.61 28.24 81.69 28.39 81.78 28.54 81.86 28.69 81.95 28.84 82.03 28.99 82.11 29.14 82.2 29.29 82.28 29.44 82.37 29.59 82.45 29.74 82.53 29.89 82.62 30.04 82.7 30.19 82.78 30.34 82.87 30.49 82.95 30.64 83.03 30.79 83.12 30.94 83.2 31.09 83.28 31.24 83.37 31.39 83.45 31.54 83.53 31.69 83.61 31.84 83.7 31.99 83.78 32.13 83.86 32.28 83.94 32.43 84.03 32.58 84.11 32.73 84.19 32.88 84.27 33.03 84.36 33.18 84.44 33.33 84.52 33.48 84.6 33.63 84.68 33.78 84.76 33.93 84.85 34.08 84.93 34.23 85.01 34.38 85.09 34.53 85.17 34.68 85.25 34.83 85.34 34.98 85.42 35.13 85.5 35.28 85.58 35.43 85.66 35.58 85.74 35.73 85.82 35.88 85.9 36.03 85.98 36.18 86.06 36.33 86.15 36.47 86.23 36.62 86.31 36.77 86.39 36.92 86.47 37.07 86.55 37.22 86.63 37.37 86.71 37.52 86.79 37.67 86.87 37.82 86.95 37.97 87.03 38.12 87.11 38.27 87.19 38.42 87.27 38.57 87.35 38.72 87.43 38.87 87.51 39.02 87.59 39.17 87.67 39.32 87.75 39.47 87.83 39.62 87.91 39.77 87.99 39.92 88.07 40.07 88.15 40.22 88.23 40.37 88.31 40.52 88.39 40.67 88.47 40.81 88.55 40.96 88.63 41.11 88.71 41.26 88.79 41.41 88.87 41.56 88.95 41.71 89.03 41.86 89.11 42.01 89.19 42.16 89.26 42.31 89.34 42.46 89.42 42.61 89.55 42.76 89.58 42.91 89.66 43.06 89.74 43.21 89.82 43.36 89.9 43.51 89.98 43.66 90.06 43.81 90.14 43.96 90.22 44.11 90.3 44.26 90.37 44.41 90.45 44.56 90.53 44.71 90.61 44.86 90.69 45.01 90.77 45.15 90.85 45.3 90.93 45.45 91.01 45.6 91.09 45.75 91.17 45.9 91.25 46.05 91.32 46.2 91.4 46.35 91.48 46.5 91.56 46.65 91.64 46.8 91.72 46.95 92.52 47.1 91.88 47.25 91.96 47.4 92.52 47.55 92.52 47.7 92.2 47.85 92.28 48 92.35 48.15 92.43 48.3 92.51 48.45 92.59 48.6 92.67 48.75 92.75 48.9 92.83 49.05 92.91 49.2 92.99 49.35 93.07 49.49 93.21 49.64 93.23 49.79 93.31 49.94 93.39 50.09 93.47 50.24 93.55 50.39 93.63 50.54 93.71 50.69 93.79 50.84 93.87 50.99 93.95 51.14 94.02 51.29 94.1 51.44 94.18 51.59 94.26 51.74 94.34 51.89 94.42 52.04 94.5 52.19 94.58 52.34 94.66 52.49 94.75 52.64 94.83 52.79 94.91 52.94 95.03 53.09 95.07 53.24 95.15 53.39 95.23 53.54 95.31 53.69 95.39 53.83 95.47 53.98 95.55 54.13 95.63 54.28 95.71 54.43 95.79 54.58 95.87 54.73 95.95 54.88 96.03 55.03 96.12 55.18 96.2 55.33 96.28 55.48 96.36 55.63 96.44 55.78 96.52 55.93 96.6 56.08 96.68 56.23 96.77 56.38 96.85 56.53 96.93 56.68 97.01 56.83 97.09 56.98 97.18 57.13 97.26 57.28 97.34 57.43 97.42 57.58 97.5 57.73 97.59 57.88 97.67 58.03 97.75 58.17 97.83 58.32 97.92 58.47 98 58.62 98.08 58.77 98.16 58.92 98.25 59.07 98.33 59.22 98.41 59.37 98.5 59.52 98.58 59.67 98.66 59.82 98.75 59.97 98.83 60.12 98.91 60.27 99 60.42 99.08 60.57 99.16 60.72 99.25 60.87 99.33 61.02 99.42 61.17 99.5 61.32 99.58 61.47 99.67 61.62 99.75 61.77 99.84 61.92 99.92 62.07 100.01 62.22 100.09 62.37 100.18 62.52 100.26 62.66 100.35 62.81 100.43 62.96 100.52 63.11 99.83 63.26 100.69 63.41 100.77 63.56 100.86 63.71 100.95 63.86 101.03 64.01 101.12 64.16 101.2 64.31 101.29 64.46 101.38 64.61 101.46 64.76 101.55 64.91 101.64 65.06 101.72 65.21 101.81 65.36 101.9 65.51 101.98 65.66 102.07 65.81 102.16 65.96 102.25 66.11 102.33 66.26 102.42 66.41 102.51 66.56 102.6 66.71 102.69 66.86 102.77 67 102.86 67.15 102.95 67.3 103.04 67.45 103.13 67.6 103.22 67.75 103.31 67.9 103.39 68.05 103.48 68.2 103.57 68.35 103.66 68.5 103.75 68.65 103.84 68.8 103.93 68.95 104.02 69.1 104.11 69.25 104.2 69.4 104.29 69.55 104.38 69.7 104.47 69.85 104.56 70 104.63 70.15 104.75 70.3 104.84 70.45 104.93 70.6 105.02 70.75 105.11 70.9 105.2 71.05 105.29 71.2 105.39 71.34 105.48 71.49 105.57 71.64 105.66 71.79 105.76 71.94 105.85 72.09 105.94 72.24 106.03 72.39 106.13 72.54 106.22 72.69 106.31 72.84 106.41 72.99 106.5 73.14 106.59 73.29 106.69 73.44 106.78 73.59 106.87 73.74 106.97 73.89 107.06 74.04 107.16 74.19 107.25 74.34 107.35 74.49 107.44 74.64 107.54 74.79 107.63 74.94 107.73 75.09 107.83 75.24 107.92 75.39 108.01 75.54 108.11 75.68 108.21 75.83 108.3 75.98 108.4 76.13 108.5 76.28 108.59 76.43 108.69 76.58 108.79 76.73 108.88 76.88 108.98 77.03 109.08 77.18 109.18 77.33 109.27 77.48 109.37 77.63 109.47 77.78 109.57 77.93 109.66 78.08 109.76 78.23 109.86 78.38 109.96 78.53 110.06 78.68 110.16 78.83 110.26 78.98 110.36 79.13 110.46 79.28 110.56 79.43 110.66 79.58 110.75 79.73 110.85 79.88 110.96 80.02 111.06 80.17 111.16 80.32 111.26 80.47 111.36 80.62 111.46 80.77 111.56 80.92 111.66 81.07 111.76 81.22 111.86 81.37 111.96 81.52 112.07 81.67 112.17 81.82 112.27 81.97 112.37 82.12 112.47 82.27 112.58 82.42 112.68 82.57 112.78 82.72 112.89 82.87 112.99 83.02 113.09 83.17 113.19 83.32 113.3 83.47 113.4 83.62 113.51 83.77 113.61 83.92 113.71 84.07 113.82 84.22 113.92 84.36 114.03 84.51 114.13 84.66 114.24 84.81 114.34 84.96 114.45 85.11 114.55 85.26 114.66 85.41 114.76 85.56 114.87 85.71 114.97 85.86 115.08 86.01 115.19 86.16 115.29 86.31 115.4 86.46 115.51 86.61 115.61 86.76 115.72 86.91 115.82 87.06 115.93 87.21 116.04 87.36 116.15 87.51 116.25 87.66 116.36 87.81 116.47 87.96 116.58 88.11 116.68 88.26 116.79 88.41 116.9 88.56 117.01 88.7 117.12 88.85 117.23 89 117.33 89.15 117.44 89.3 117.55 89.45 117.66 89.6 117.77 89.75 117.88 89.9 117.99 90.05 118.1 90.2 118.21 90.35 118.32 90.5 118.43 90.65 118.54 90.8 118.65 90.95 118.76 91.1 118.87 91.25 118.98 91.4 119.09 91.55 119.2 91.7 119.31 91.85 119.42 92 119.53 92.15 119.65 92.3 119.76 92.45 119.87 92.6 119.98 92.75 120.09 92.9 120.2 93.04 120.32 93.19 120.43 93.34 120.54 93.49 120.65 93.64 120.76 93.79 120.88 93.94 120.99 94.09 121.1 94.24 121.22 94.39 121.33 94.54 121.42 94.69 121.55 94.84 121.67 94.99 121.78 95.14 121.89 95.29 122.01 95.44 122.12 95.59 122.23 95.74 122.35 95.89 122.46 96.04 122.58 96.19 122.69 96.34 122.8 96.49 122.92 96.64 123.03 96.79 123.15 96.94 123.26 97.09 123.38 97.24 123.49 97.38 123.6 97.53 123.72 97.68 123.83 97.83 123.95 97.98 124.06 98.13 124.18 98.28 124.29 98.43 124.41 98.58 124.52 98.73 124.64 98.88 124.75 99.03 124.87 99.18 124.99 99.33 125.1 99.48 125.22 99.63 125.33 99.78 125.45 99.93 125.56 100.08 125.42 100.23 125.8 100.38 125.91 100.53 126.03 100.68 126.14 100.83 126.26 100.98 126.37 101.13 126.49 101.28 126.61 101.43 126.72 101.58 126.84 101.72 126.96 101.87 127.07 102.02 127.19 102.17 127.3 102.32 127.42 102.47 127.54 102.62 127.65 102.77 127.77 102.92 127.89 103.07 128 103.22 128.12 103.37 128.23 103.52 128.35 103.67 128.47 103.82 128.58 103.97 128.7 104.12 128.82 104.27 128.93 104.42 129.05 104.57 129.16 104.72 129.28 104.87 129.4 105.02 129.51 105.17 129.63 105.32 129.74 105.47 129.86 105.62 129.98 105.77 130.09 105.92 130.21 106.06 130.32 106.21 130.44 106.36 130.91 106.51 130.67 106.66 130.79 106.81 130.9 106.96 131.02 107.11 131.13 107.26 131.25 107.41 131.37 107.56 131.48 107.71 131.6 107.86 131.71 108.01 131.83 108.16 131.94 108.31 132.06 108.46 132.17 108.61 132.28 108.76 132.4 108.91 132.51 109.06 132.63 109.21 132.74 109.36 132.86 109.51 132.97 109.66 133.08 109.81 133.2 109.96 133.31 110.11 133.42 110.26 133.54 110.4 133.65 110.55 133.76 110.7 133.87 110.85 133.99 111 134.1 111.15 134.21 111.3 134.32 111.45 134.44 111.6 134.55 111.75 134.56 111.9 134.56 112.05 134.56 112.2 134.56 112.35 134.56 112.5 135.21 112.65 135.32 112.8 135.43 112.95 135.54 113.1 135.65 113.25 135.76 113.4 135.87 113.55 135.98 113.7 136.08 113.85 136.19 114 136.3 114.15 136.41 114.3 136.51 114.45 136.62 114.6 136.73 114.74 136.83 114.89 136.94 115.04 137.04 115.19 137.15 115.34 137.25 115.49 137.36 115.64 137.46 115.79 137.57 115.94 137.67 116.09 137.77 116.24 137.87 116.39 137.98 116.54 138.08 116.69 138.18 116.84 138.28 116.99 138.38 117.14 138.48 117.29 138.58 117.44 138.68 117.59 138.78 117.74 138.88 117.89 138.97 118.04 139.07 118.19 139.17 118.34 139.26 118.49 139.36 118.64 139.45 118.79 139.55 118.94 139.64 119.08 139.74 119.23 139.83 119.38 139.92 119.53 140.01 119.68 140.11 119.83 140.2 119.98 140.29 120.13 140.38 120.28 140.47 120.43 140.56 120.58 140.64 120.73 140.73 120.88 140.82 121.03 140.9 121.18 140.99 121.33 141.07 121.48 141.16 121.63 141.24 121.78 141.33 121.93 141.41 122.08 141.49 122.23 141.57 122.38 141.65 122.53 141.73 122.68 141.81 122.83 141.89 122.98 141.97 123.13 142.04 123.28 142.12 123.42 142.2 123.57 142.27 123.72 142.35 123.87 142.42 124.02 142.49 124.17 142.56 124.32 142.64 124.47 142.71 124.62 142.78 124.77 142.85 124.92 142.92 125.07 142.98 125.22 143.05 125.37 143.12 125.52 143.18 125.67 143.25 125.82 143.31 125.97 143.38 126.12 143.44 126.27 143.5 126.42 143.56 126.57 143.62 126.72 143.68 126.87 143.74 127.02 143.8 127.17 143.86 127.32 143.91 127.47 143.97 127.62 144.03 127.76 144.08 127.91 144.13 128.06 144.19 128.21 144.24 128.36 144.29 128.51 144.34 128.66 144.39 128.81 144.44 128.96 144.49 129.11 144.54 129.26 144.59 129.41 144.63 129.56 144.68 129.71 144.72 129.86 144.77 130.01 144.81 130.16 144.85 130.31 144.9 130.46 144.94 130.61 144.98 130.76 145.02 130.91 145.06 131.06 145.1 131.21 145.14 131.36 145.17 131.51 145.21 131.66 145.25 131.81 145.28 131.96 145.32 132.1 145.35 132.25 145.38 132.4 145.42 132.55 145.45 132.7 145.48 132.85 145.51 133 145.54 133.15 145.57 133.3 145.6 133.45 145.63 133.6 145.66 133.75 145.68 133.9 145.71 134.05 145.73 134.2 145.76 134.35 145.78 134.5 145.81 134.65 145.83 134.8 145.85 134.95 145.88 135.1 145.9 135.25 145.92 135.4 145.94 135.55 145.96 135.7 145.98 135.85 146 136 146.01 136.15 146.03 136.3 146.05 136.44 146.07 136.59 146.08 136.74 146.1 136.89 146.11 137.04 146.13 137.19 146.14 137.34 146.22 137.49 146.17 137.64 146.18 137.79 146.19 137.94 146.22 138.09 146.21 138.24 146.22 138.39 146.23 138.54 146.24 138.69 146.25 138.84 146.26 138.99 146.27 139.14 146.27 139.29 146.28 139.44 146.29 139.59 146.29 139.74 146.3 139.89 146.3 140.04 146.31 140.19 146.31 140.34 146.32 140.49 146.32 140.64 146.32 140.78 146.33 140.93 146.33 141.08 146.33 141.23 146.33 141.38 146.33 141.53 146.33 141.68 146.33 141.83 146.33 141.98 146.33 142.13 146.33 142.28 146.33 142.43 146.33 142.58 146.33 142.73 146.32 142.88 146.32 143.03 146.32 143.18 146.32 143.33 146.31 143.48 146.31 143.63 146.3 143.78 146.3 143.93 146.29 144.08 146.29 144.23 146.28 144.38 146.28 144.53 146.27 144.68 146.26 144.83 146.26 144.98 146.25 145.12 146.24 145.27 146.23 145.42 146.22 145.57 146.22 145.72 146.22 145.87 146.2 146.02 146.19 146.17 146.18 146.32 146.17 146.47 146.16 146.62 146.22 146.77 146.14 146.92 146.13 147.07 146.11 147.22 146.1 147.37 146.09 147.52 146.08 147.67 146.07 147.82 146.05 147.97 146.04 148.12 146.03 148.27 146.01 148.42 146 148.57 145.99 148.72 145.97 148.87 145.96 149.02 145.94 149.17 145.93 149.32 145.91 149.46 145.9 149.61 145.88 149.76 145.87 149.91 145.85 150.06 145.84 150.21 145.82 150.36 145.8 150.51 145.79 150.66 145.77 150.81 145.75 150.96 145.74 151.11 145.72 151.26 145.7 151.41 145.68 151.56 145.67 151.71 145.65 151.86 145.63 152.01 145.61 152.16 145.59 152.31 145.57 152.46 145.55 152.61 145.54 152.76 145.52 152.91 145.5 153.06 145.48 153.21 145.46 153.36 145.44 153.51 145.42 153.66 145.4 153.8 145.38 153.95 145.36 154.1 145.34 154.25 145.32 154.4 145.29 154.55 145.27 154.7 145.25 154.85 145.23 155 145.19 155.15 145.19 155.3 145.17 155.45 145.15 155.6 145.12 155.75 145.1 155.9 145.08 156.05 145.06 156.2 145.03 156.35 145.01 156.5 144.99 156.65 144.97 156.8 144.94 156.95 144.96 157.1 144.84 157.25 144.88 157.4 144.85 157.55 144.83 157.7 144.81 157.85 144.78 158 144.76 158.14 144.73 158.29 144.71 158.44 144.69 158.59 144.66 158.74 144.64 158.89 144.62 159.04 144.59 159.19 144.57 159.34 144.54 159.49 144.52 159.64 144.49 159.79 144.47 159.94 144.44 160.09 144.42 160.24 144.4 160.39 144.37 160.54 144.35 160.69 144.39 160.84 144.3 160.99 144.27 161.14 144.25 161.29 144.22 161.44 144.19 161.59 144.17 161.74 144.14 161.89 144.12 162.04 144.09 162.19 144.07 162.34 144.04 162.48 144.02 162.63 143.99 162.78 143.96 162.93 143.94 163.08 143.91 163.23 143.89 163.38 143.86 163.53 143.84 163.68 143.81 163.83 143.78 163.98 143.76 164.13 143.73 164.28 143.71 164.43 143.68 164.58 143.65 164.73 143.63 164.88 143.6 165.03 143.57 165.18 143.55 165.33 143.52 165.48 143.49 165.63 143.47 165.78 143.44 165.93 143.41 166.08 143.39 166.23 143.36 166.38 143.34 166.53 143.31 166.68 143.28 166.82 143.26 166.97 143.23 167.12 143.2 167.27 143.17 167.42 143.15 167.57 143.12 167.72 143.09 167.87 143.07 168.02 143.02 168.17 143.01 168.32 142.99 168.47 142.96 168.62 142.93 168.77 142.91 168.92 142.88 169.07 142.85 169.22 142.83 169.37 142.8 169.52 142.77 169.67 142.74 169.82 142.72 169.97 142.69 170.12 142.66 170.27 142.64 170.42 142.61" id="img-516aaba3-27" stroke="#00BFFF" class="geometry color_Bates"/>
        <path fill="none" d="M20.76,143.17 L 20.91 143.23 21.06 143.29 21.21 143.23 21.36 143.41 21.51 143.47 21.66 143.53 21.81 143.59 21.96 143.65 22.11 143.71 22.26 143.77 22.41 143.83 22.56 143.89 22.71 143.94 22.86 144 23.01 144.06 23.16 144.12 23.31 144.18 23.45 144.24 23.6 144.3 23.75 144.36 23.9 144.42 24.05 144.48 24.2 144.54 24.35 144.6 24.5 144.66 24.65 144.71 24.8 144.77 24.95 144.83 25.1 144.89 25.25 144.95 25.4 145.01 25.55 145.07 25.7 145.13 25.85 145.18 26 145.24 26.15 145.3 26.3 145.36 26.45 145.42 26.6 145.48 26.75 145.54 26.9 145.59 27.05 145.65 27.2 145.71 27.35 145.77 27.5 145.83 27.65 145.88 27.79 145.94 27.94 146 28.09 146.06 28.24 146.12 28.39 146.17 28.54 146.23 28.69 146.29 28.84 146.33 28.99 146.41 29.14 146.46 29.29 146.52 29.44 146.58 29.59 146.64 29.74 169.29 29.89 169.29 30.04 146.81 30.19 146.87 30.34 146.92 30.49 146.98 30.64 147.04 30.79 147.1 30.94 147.15 31.09 169.29 31.24 147.27 31.39 169.29 31.54 147.38 31.69 169.29 31.84 169.29 31.99 147.55 32.13 169.29 32.28 147.67 32.43 169.29 32.58 169.29 32.73 169.29 32.88 147.9 33.03 169.29 33.18 148.01 33.33 169.29 33.48 148.12 33.63 148.18 33.78 169.29 33.93 148.29 34.08 148.35 34.23 169.29 34.38 169.29 34.53 169.29 34.68 169.29 34.83 169.29 34.98 169.29 35.13 169.29 35.28 169.29 35.43 169.29 35.58 169.29 35.73 169.29 35.88 149.03 36.03 169.29 36.18 169.29 36.33 169.29 36.47 169.29 36.62 169.29 36.77 169.29 36.92 169.29 37.07 169.29 37.22 169.29 37.37 169.29 37.52 169.29 37.67 169.29 37.82 169.29 37.97 169.29 38.12 169.29 38.27 169.29 38.42 169.29 38.57 169.29 38.72 169.29 38.87 169.29 39.02 169.29 39.17 150.26 39.32 169.29 39.47 169.29 39.62 169.29 39.77 169.29 39.92 169.29 40.07 169.29 40.22 169.29 40.37 169.29 40.52 169.29 40.67 169.29 40.81 169.29 40.96 169.29 41.11 169.29 41.26 169.29 41.41 169.29 41.56 169.29 41.71 169.29 41.86 169.29 42.01 169.29 42.16 151.38 42.31 169.29 42.46 169.29 42.61 169.29 42.76 169.29 42.91 169.29 43.06 169.29 43.21 169.29 43.36 169.29 43.51 169.29 43.66 169.29 43.81 169.29 43.96 169.29 44.11 169.29 44.26 169.29 44.41 152.21 44.56 152.26 44.71 152.32 44.86 152.37 45.01 152.43 45.15 152.48 45.3 152.54 45.45 152.59 45.6 152.65 45.75 152.7 45.9 152.76 46.05 152.81 46.2 152.87 46.35 152.92 46.5 152.98 46.65 153.03 46.8 153.09 46.95 153.14 47.1 153.2 47.25 153.25 47.4 153.31 47.55 153.36 47.7 153.42 47.85 153.47 48 153.53 48.15 153.58 48.3 153.64 48.45 153.69 48.6 153.75 48.75 153.8 48.9 153.86 49.05 153.91 49.2 153.97 49.35 154.02 49.49 154.08 49.64 154.13 49.79 154.19 49.94 154.24 50.09 154.3 50.24 154.35 50.39 154.41 50.54 154.46 50.69 154.52 50.84 154.57 50.99 154.63 51.14 154.68 51.29 154.74 51.44 154.79 51.59 154.85 51.74 154.9 51.89 154.96 52.04 155.01 52.19 155.06 52.34 155.12 52.49 155.17 52.64 155.23 52.79 155.28 52.94 155.34 53.09 155.39 53.24 155.45 53.39 155.5 53.54 155.56 53.69 155.61 53.83 155.67 53.98 155.72 54.13 155.78 54.28 155.83 54.43 155.88 54.58 155.94 54.73 155.99 54.88 156.05 55.03 156.1 55.18 156.16 55.33 156.21 55.48 156.27 55.63 156.32 55.78 156.38 55.93 156.43 56.08 156.49 56.23 156.54 56.38 156.6 56.53 156.65 56.68 156.7 56.83 156.76 56.98 156.81 57.13 156.87 57.28 156.92 57.43 156.98 57.58 157.03 57.73 157.09 57.88 157.14 58.03 157.2 58.17 157.25 58.32 157.31 58.47 157.36 58.62 157.41 58.77 157.47 58.92 157.52 59.07 157.58 59.22 157.63 59.37 157.69 59.52 157.74 59.67 157.8 59.82 157.85 59.97 157.91 60.12 157.96 60.27 158.02 60.42 158.07 60.57 158.12 60.72 158.18 60.87 158.23 61.02 158.29 61.17 158.34 61.32 158.4 61.47 158.45 61.62 158.51 61.77 158.56 61.92 158.62 62.07 158.67 62.22 158.73 62.37 158.78 62.52 158.84 62.66 158.89 62.81 158.95 62.96 159 63.11 159.05 63.26 159.11 63.41 159.16 63.56 159.22 63.71 159.27 63.86 159.33 64.01 159.38 64.16 159.44 64.31 159.49 64.46 159.55 64.61 159.6 64.76 159.66 64.91 159.71 65.06 159.77 65.21 159.82 65.36 159.88 65.51 159.93 65.66 159.98 65.81 160.04 65.96 160.1 66.11 160.15 66.26 160.21 66.41 160.26 66.56 160.32 66.71 160.37 66.86 160.42 67 160.48 67.15 160.53 67.3 160.59 67.45 160.64 67.6 160.7 67.75 160.75 67.9 160.81 68.05 160.86 68.2 160.92 68.35 160.97 68.5 161.03 68.65 161.08 68.8 161.14 68.95 161.19 69.1 161.25 69.25 161.3 69.4 161.36 69.55 161.41 69.7 161.47 69.85 161.53 70 161.58 70.15 161.64 70.3 161.69 70.45 161.75 70.6 161.8 70.75 161.86 70.9 161.91 71.05 161.97 71.2 162.02 71.34 162.08 71.49 162.13 71.64 162.19 71.79 162.24 71.94 162.3 72.09 162.35 72.24 162.41 72.39 162.46 72.54 162.52 72.69 162.57 72.84 162.63 72.99 162.68 73.14 162.74 73.29 162.8 73.44 162.85 73.59 162.91 73.74 162.96 73.89 163.02 74.04 163.07 74.19 163.13 74.34 163.18 74.49 163.24 74.64 163.29 74.79 163.35 74.94 163.41 75.09 163.46 75.24 163.52 75.39 163.57 75.54 163.63 75.68 163.68 75.83 163.74 75.98 163.79 76.13 163.85 76.28 163.9 76.43 163.96 76.58 164.02 76.73 164.07 76.88 164.13 77.03 164.18 77.18 164.24 77.33 164.29 77.48 164.35 77.63 164.41 77.78 164.46 77.93 164.52 78.08 164.57 78.23 164.63 78.38 164.68 78.53 164.74 78.68 164.8 78.83 164.85 78.98 164.91 79.13 164.96 79.28 165.02 79.43 165.07 79.58 165.13 79.73 165.19 79.88 165.24 80.02 165.29 80.17 165.35 80.32 165.41 80.47 165.47 80.62 165.52 80.77 165.58 80.92 165.63 81.07 165.69 81.22 165.74 81.37 165.8 81.52 165.86 81.67 165.91 81.82 165.97 81.97 166.02 82.12 166.08 82.27 166.14 82.42 166.19 82.57 166.25 82.72 166.3 82.87 166.36 83.02 166.42 83.17 166.47 83.32 166.53 83.47 166.58 83.62 166.64 83.77 166.69 83.92 166.75 84.07 166.81 84.22 166.86 84.36 166.92 84.51 166.97 84.66 167.03 84.81 167.09 84.96 167.12 85.11 167.2 85.26 167.25 85.41 167.31 85.56 167.36 85.71 167.42 85.86 167.48 86.01 167.53 86.16 167.59 86.31 167.64 86.46 167.7 86.61 167.75 86.76 167.81 86.91 167.86 87.06 167.92 87.21 167.98 87.36 168.03 87.51 168.09 87.66 168.14 87.81 168.2 87.96 168.25 88.11 168.31 88.26 168.36 88.41 168.42 88.56 168.47 88.7 168.53 88.85 168.58 89 168.64 89.15 168.69 89.3 168.75 89.45 168.8 89.6 168.86 89.75 168.91 89.9 168.97 90.05 169.02 90.2 169.07 90.35 169.13 90.5 169.18 90.65 169.24 90.8 169.29 90.95 169.35 91.1 169.4 91.25 169.45 91.4 169.51 91.55 169.56 91.7 169.61 91.85 169.67 92 169.72 92.15 169.77 92.3 169.83 92.45 169.88 92.6 169.93 92.75 169.99 92.9 170.04 93.04 170.09 93.19 170.14 93.34 170.2 93.49 170.25 93.64 170.3 93.79 170.35 93.94 170.4 94.09 170.46 94.24 170.51 94.39 170.56 94.54 170.61 94.69 170.66 94.84 170.71 94.99 170.76 95.14 170.81 95.29 170.86 95.44 170.91 95.59 170.96 95.74 171.01 95.89 171.06 96.04 171.11 96.19 171.16 96.34 171.2 96.49 171.25 96.64 171.3 96.79 171.35 96.94 171.4 97.09 171.46 97.24 171.49 97.38 171.54 97.53 171.58 97.68 171.63 97.83 171.68 97.98 171.72 98.13 171.77 98.28 171.81 98.43 171.86 98.58 171.9 98.73 171.94 98.88 171.99 99.03 172.03 99.18 172.07 99.33 172.12 99.48 172.16 99.63 172.2 99.78 172.24 99.93 172.28 100.08 172.32 100.23 172.36 100.38 172.4 100.53 172.44 100.68 172.48 100.83 172.52 100.98 172.56 101.13 172.6 101.28 172.64 101.43 172.67 101.58 172.71 101.72 172.75 101.87 172.78 102.02 172.82 102.17 172.85 102.32 172.89 102.47 172.92 102.62 172.95 102.77 172.99 102.92 173.02 103.07 173.05 103.22 173.08 103.37 173.12 103.52 173.15 103.67 173.18 103.82 173.21 103.97 173.23 104.12 173.27 104.27 173.29 104.42 173.32 104.57 173.35 104.72 173.38 104.87 173.4 105.02 173.43 105.17 173.45 105.32 173.48 105.47 173.5 105.62 173.53 105.77 173.55 105.92 173.58 106.06 173.6 106.21 173.62 106.36 173.64 106.51 173.66 106.66 173.68 106.81 173.7 106.96 173.72 107.11 173.74 107.26 173.76 107.41 173.78 107.56 173.8 107.71 173.81 107.86 173.83 108.01 173.85 108.16 173.86 108.31 173.88 108.46 173.89 108.61 173.91 108.76 173.92 108.91 173.94 109.06 173.95 109.21 173.96 109.36 173.97 109.51 173.99 109.66 174 109.81 174.01 109.96 174.02 110.11 174.03 110.26 174.04 110.4 174.05 110.55 174.06 110.7 174.07 110.85 174.07 111 174.08 111.15 174.09 111.3 174.1 111.45 174.1 111.6 174.11 111.75 174.11 111.9 174.12 112.05 174.12 112.2 174.13 112.35 174.13 112.5 174.14 112.65 174.14 112.8 174.14 112.95 173.86 113.1 174.15 113.25 174.15 113.4 174.15 113.55 174.16 113.7 174.16 113.85 174.16 114 174.16 114.15 174.16 114.3 174.16 114.45 174.15 114.6 174.16 114.74 174.16 114.89 174.16 115.04 174.15 115.19 174.15 115.34 174.15 115.49 174.15 115.64 174.14 115.79 174.14 115.94 174.14 116.09 173.86 116.24 174.13 116.39 174.13 116.54 174.12 116.69 174.12 116.84 174.11 116.99 174.11 117.14 174.1 117.29 173.86 117.44 174.09 117.59 174.09 117.74 174.08 117.89 174.08 118.04 174.07 118.19 174.06 118.34 174.06 118.49 174.05 118.64 174.04 118.79 174.03 118.94 174.03 119.08 174.02 119.23 174.01 119.38 174 119.53 174 119.68 173.99 119.83 173.98 119.98 173.97 120.13 173.96 120.28 173.95 120.43 173.94 120.58 173.93 120.73 173.92 120.88 173.91 121.03 173.9 121.18 173.89 121.33 173.88 121.48 173.87 121.63 173.86 121.78 173.85 121.93 173.84 122.08 173.83 122.23 173.82 122.38 173.81 122.53 173.8 122.68 173.78 122.83 173.77 122.98 173.76 123.13 173.75 123.28 173.74 123.42 173.73 123.57 173.71 123.72 173.7 123.87 173.69 124.02 173.68 124.17 173.66 124.32 173.65 124.47 173.64 124.62 173.63 124.77 173.61 124.92 173.6 125.07 173.59 125.22 173.57 125.37 173.56 125.52 173.55 125.67 173.53 125.82 173.52 125.97 173.51 126.12 173.49 126.27 173.48 126.42 173.46 126.57 173.45 126.72 173.44 126.87 173.42 127.02 173.41 127.17 173.39 127.32 173.38 127.47 173.36 127.62 173.35 127.76 173.34 127.91 173.32 128.06 173.31 128.21 173.29 128.36 173.29 128.51 173.26 128.66 173.25 128.81 173.23 128.96 173.22 129.11 173.2 129.26 173.19 129.41 173.17 129.56 173.16 129.71 173.14 129.86 173.13 130.01 173.11 130.16 173.09 130.31 173.08 130.46 173.06 130.61 173.05 130.76 173.03 130.91 173.02 131.06 173 131.21 172.98 131.36 172.97 131.51 172.95 131.66 172.94 131.81 172.92 131.96 172.9 132.1 172.89 132.25 172.87 132.4 172.86 132.55 172.84 132.7 172.82 132.85 172.81 133 172.79 133.15 172.77 133.3 172.76 133.45 172.74 133.6 172.73 133.75 172.71 133.9 172.69 134.05 172.68 134.2 172.66 134.35 172.64 134.5 172.63 134.65 172.61 134.8 172.59 134.95 172.58 135.1 172.56 135.25 172.54 135.4 172.53 135.55 172.51 135.7 172.49 135.85 172.48 136 172.46 136.15 172.44 136.3 172.42 136.44 172.41 136.59 172.39 136.74 172.37 136.89 172.36 137.04 172.34 137.19 172.32 137.34 172.31 137.49 172.29 137.64 172.27 137.79 172.25 137.94 172.24 138.09 172.22 138.24 172.21 138.39 172.19 138.54 172.17 138.69 172.15 138.84 172.13 138.99 172.12 139.14 172.1 139.29 172.08 139.44 172.07 139.59 172.05 139.74 172.03 139.89 172.01 140.04 172 140.19 171.98 140.34 171.96 140.49 171.95 140.64 171.93 140.78 171.91 140.93 171.89 141.08 171.88 141.23 171.86 141.38 171.84 141.53 171.82 141.68 171.81 141.83 171.79 141.98 171.77 142.13 171.75 142.28 171.74 142.43 171.72 142.58 171.7 142.73 171.69 142.88 171.67 143.03 171.65 143.18 171.63 143.33 171.62 143.48 171.6 143.63 171.58 143.78 171.56 143.93 171.55 144.08 171.53 144.23 171.51 144.38 171.49 144.53 171.48 144.68 171.46 144.83 171.44 144.98 171.42 145.12 171.41 145.27 171.39 145.42 171.37 145.57 171.35 145.72 171.34 145.87 171.32 146.02 171.3 146.17 171.28 146.32 171.27 146.47 171.25 146.62 171.23 146.77 171.21 146.92 171.2 147.07 171.18 147.22 171.16 147.37 171.15 147.52 171.13 147.67 171.11 147.82 171.09 147.97 171.08 148.12 171.06 148.27 171.04 148.42 171.02 148.57 171.01 148.72 170.99 148.87 170.97 149.02 170.95 149.17 170.94 149.32 170.92 149.46 170.9 149.61 170.88 149.76 170.87 149.91 170.85 150.06 170.83 150.21 170.82 150.36 170.8 150.51 170.78 150.66 170.76 150.81 170.75 150.96 170.73 151.11 170.71 151.26 170.69 151.41 170.68 151.56 170.66 151.71 170.64 151.86 170.62 152.01 170.61 152.16 170.59 152.31 170.57 152.46 170.56 152.61 170.54 152.76 170.52 152.91 170.5 153.06 170.49 153.21 170.47 153.36 170.45 153.51 170.44 153.66 170.42 153.8 170.4 153.95 170.38 154.1 170.38 154.25 170.35 154.4 170.33 154.55 170.32 154.7 170.3 154.85 170.28 155 170.26 155.15 170.25 155.3 170.23 155.45 170.21 155.6 170.2 155.75 170.18 155.9 170.16 156.05 170.14 156.2 170.13 156.35 170.11 156.5 170.09 156.65 170.08 156.8 170.06 156.95 170.04 157.1 170.03 157.25 170.01 157.4 169.99 157.55 169.97 157.7 169.96 157.85 169.94 158 169.92 158.14 169.91 158.29 169.89 158.44 169.87 158.59 169.86 158.74 169.84 158.89 169.82 159.04 169.81 159.19 169.79 159.34 169.77 159.49 169.76 159.64 169.74 159.79 169.72 159.94 169.7 160.09 169.69 160.24 169.67 160.39 169.65 160.54 169.64 160.69 169.62 160.84 169.6 160.99 169.59 161.14 169.57 161.29 169.55 161.44 169.54 161.59 169.52 161.74 169.5 161.89 169.49 162.04 169.47 162.19 169.45 162.34 169.44 162.48 169.42 162.63 169.4 162.78 169.39 162.93 169.37 163.08 169.35 163.23 169.34 163.38 169.32 163.53 169.31 163.68 169.29 163.83 169.27 163.98 169.26 164.13 169.24 164.28 169.22 164.43 169.21 164.58 169.19 164.73 169.17 164.88 169.16 165.03 169.14 165.18 169.12 165.33 169.11 165.48 169.09 165.63 169.08 165.78 169.06 165.93 169.04 166.08 169.03 166.23 169.01 166.38 168.99 166.53 168.98 166.68 168.96 166.82 168.94 166.97 168.93 167.12 168.91 167.27 168.9 167.42 168.88 167.57 168.86 167.72 168.85 167.87 168.83 168.02 168.82 168.17 168.8 168.32 168.78 168.47 168.77 168.62 168.75 168.77 168.73 168.92 168.72 169.07 168.7 169.22 168.69 169.37 168.67 169.52 168.65 169.67 168.64 169.82 168.62 169.97 168.61 170.12 168.59 170.27 168.57 170.42 168.56" id="img-516aaba3-28" stroke="#D4CA3A" class="geometry color_Heston"/>
      </g>
    </g>
  </g>
</g>
  <g class="guide ylabels" font-size="2.82" font-family="'PT Sans Caption','Helvetica Neue','Helvetica',sans-serif" fill="#6C606B" id="img-516aaba3-29">
    <text x="17.76" y="208.31" text-anchor="end" dy="0.35em" id="img-516aaba3-30">0.0</text>
    <text x="17.76" y="110.77" text-anchor="end" dy="0.35em" id="img-516aaba3-31">0.5</text>
    <text x="17.76" y="13.23" text-anchor="end" dy="0.35em" id="img-516aaba3-32">1.0</text>
  </g>
  <g font-size="3.88" font-family="'PT Sans','Helvetica Neue','Helvetica',sans-serif" fill="#564A55" stroke="#000000" stroke-opacity="0.000" id="img-516aaba3-33">
    <text x="8.76" y="108.77" text-anchor="middle" dy="0.35em" transform="rotate(-90, 8.76, 110.77)" id="img-516aaba3-34">Implied σ</text>
  </g>
  <g font-size="3.88" font-family="'PT Sans','Helvetica Neue','Helvetica',sans-serif" fill="#564A55" stroke="#000000" stroke-opacity="0.000" id="img-516aaba3-35">
    <text x="95.59" y="5" text-anchor="middle" dy="0.6em" id="img-516aaba3-36">Volatility Smile by Moneyness (μⱼ=-0.15, σ=.4, σⱼ=0.25, v₀ = 0.2²))</text>
  </g>
</g>
<defs>
  <clipPath id="img-516aaba3-13">
  <path d="M18.76,11.23 L 172.42 11.23 172.42 210.31 18.76 210.31" />
</clipPath>
</defs>
</svg>
