<?xml version="1.0" encoding="UTF-8"?>
<svg xmlns="http://www.w3.org/2000/svg"
     xmlns:xlink="http://www.w3.org/1999/xlink"
     xmlns:gadfly="http://www.gadflyjl.org/ns"
     version="1.2"
     width="190.5mm" height="228.6mm" viewBox="0 0 190.5 228.6"
     stroke="none"
     fill="#000000"
     stroke-width="0.3"
     font-size="3.88"
>
<g class="plotroot xscalable yscalable" id="img-d614c504-1">
  <g font-size="3.88" font-family="'PT Sans','Helvetica Neue','Helvetica',sans-serif" fill="#564A55" stroke="#000000" stroke-opacity="0.000" id="img-d614c504-2">
    <text x="95.59" y="217.42" text-anchor="middle" dy="0.6em">X Given S₀=100</text>
  </g>
  <g class="guide xlabels" font-size="2.82" font-family="'PT Sans Caption','Helvetica Neue','Helvetica',sans-serif" fill="#6C606B" id="img-d614c504-3">
    <text x="20.76" y="211.31" text-anchor="middle" dy="0.6em">50</text>
    <text x="95.59" y="211.31" text-anchor="middle" dy="0.6em">100</text>
    <text x="170.42" y="211.31" text-anchor="middle" dy="0.6em">150</text>
  </g>
  <g class="guide colorkey" id="img-d614c504-4">
    <g fill="#4C404B" font-size="2.82" font-family="'PT Sans','Helvetica Neue','Helvetica',sans-serif" id="img-d614c504-5">
      <text x="175.97" y="110.77" dy="0.35em" id="img-d614c504-6" class="color_Bates">Bates</text>
      <text x="175.97" y="113.89" dy="0.35em" id="img-d614c504-7" class="color_Heston">Heston</text>
    </g>
    <g stroke="#000000" stroke-opacity="0.000" id="img-d614c504-8">
      <rect x="173.42" y="109.99" width="1.56" height="1.56" id="img-d614c504-9" class="color_Bates" fill="#00BFFF"/>
      <rect x="173.42" y="113.11" width="1.56" height="1.56" id="img-d614c504-10" class="color_Heston" fill="#D4CA3A"/>
    </g>
    <g fill="#362A35" font-size="3.88" font-family="'PT Sans','Helvetica Neue','Helvetica',sans-serif" stroke="#000000" stroke-opacity="0.000" id="img-d614c504-11">
      <text x="173.42" y="107.07" id="img-d614c504-12">model</text>
    </g>
  </g>
<g clip-path="url(#img-d614c504-13)">
  <g id="img-d614c504-14">
    <g pointer-events="visible" opacity="1" fill="#000000" fill-opacity="0.000" stroke="#000000" stroke-opacity="0.000" class="guide background" id="img-d614c504-15">
      <rect x="18.76" y="11.23" width="153.66" height="199.08" id="img-d614c504-16"/>
    </g>
    <g class="guide ygridlines xfixed" stroke-dasharray="0.5,0.5" stroke-width="0.2" stroke="#D0D0E0" id="img-d614c504-17">
      <path fill="none" d="M18.76,208.31 L 172.42 208.31" id="img-d614c504-18"/>
      <path fill="none" d="M18.76,110.77 L 172.42 110.77" id="img-d614c504-19"/>
      <path fill="none" d="M18.76,13.23 L 172.42 13.23" id="img-d614c504-20"/>
    </g>
    <g class="guide xgridlines yfixed" stroke-dasharray="0.5,0.5" stroke-width="0.2" stroke="#D0D0E0" id="img-d614c504-21">
      <path fill="none" d="M20.76,11.23 L 20.76 210.31" id="img-d614c504-22"/>
      <path fill="none" d="M95.59,11.23 L 95.59 210.31" id="img-d614c504-23"/>
      <path fill="none" d="M170.42,11.23 L 170.42 210.31" id="img-d614c504-24"/>
    </g>
    <g class="plotpanel" id="img-d614c504-25">
      <g stroke-width="0.3" fill="#000000" fill-opacity="0.000" stroke-dasharray="none" id="img-d614c504-26">
        <path fill="none" d="M20.76,144.36 L 20.91 144.41 21.06 144.46 21.21 144.51 21.36 144.57 21.51 144.62 21.66 144.67 21.81 144.73 21.96 144.78 22.11 144.83 22.26 144.88 22.41 144.94 22.56 144.99 22.71 145.04 22.86 145.09 23.01 145.15 23.16 145.2 23.31 145.25 23.45 145.3 23.6 145.35 23.75 145.41 23.9 145.46 24.05 145.51 24.2 145.56 24.35 145.61 24.5 145.67 24.65 145.72 24.8 145.77 24.95 145.82 25.1 145.87 25.25 145.93 25.4 145.98 25.55 146.03 25.7 146.08 25.85 146.13 26 146.18 26.15 146.24 26.3 146.29 26.45 146.34 26.6 146.39 26.75 146.44 26.9 146.49 27.05 146.54 27.2 146.6 27.35 146.65 27.5 146.7 27.65 146.75 27.79 146.8 27.94 146.85 28.09 146.9 28.24 146.95 28.39 147.01 28.54 147.06 28.69 147.11 28.84 147.16 28.99 147.21 29.14 147.26 29.29 147.31 29.44 147.36 29.59 147.41 29.74 169.29 29.89 169.29 30.04 147.57 30.19 147.62 30.34 147.67 30.49 147.72 30.64 147.77 30.79 147.82 30.94 147.87 31.09 169.29 31.24 147.97 31.39 169.29 31.54 148.07 31.69 169.29 31.84 169.29 31.99 148.22 32.13 169.29 32.28 148.32 32.43 169.29 32.58 169.29 32.73 169.29 32.88 148.53 33.03 169.29 33.18 148.63 33.33 169.29 33.48 148.73 33.63 148.78 33.78 169.29 33.93 148.88 34.08 169.29 34.23 148.98 34.38 169.29 34.53 169.29 34.68 169.29 34.83 149.18 34.98 169.29 35.13 169.29 35.28 169.29 35.43 169.29 35.58 169.29 35.73 169.29 35.88 169.29 36.03 169.29 36.18 169.29 36.33 169.29 36.47 169.29 36.62 169.29 36.77 169.29 36.92 169.29 37.07 169.29 37.22 169.29 37.37 150.02 37.52 169.29 37.67 169.29 37.82 169.29 37.97 169.29 38.12 169.29 38.27 169.29 38.42 169.29 38.57 169.29 38.72 169.29 38.87 169.29 39.02 169.29 39.17 169.29 39.32 169.29 39.47 169.29 39.62 169.29 39.77 169.29 39.92 169.29 40.07 169.29 40.22 169.29 40.37 169.29 40.52 169.29 40.67 169.29 40.81 169.29 40.96 169.29 41.11 169.29 41.26 169.29 41.41 169.29 41.56 169.29 41.71 169.29 41.86 169.29 42.01 169.29 42.16 169.29 42.31 169.29 42.46 151.7 42.61 169.29 42.76 169.29 42.91 169.29 43.06 169.29 43.21 169.29 43.36 169.29 43.51 169.29 43.66 152.09 43.81 169.29 43.96 169.29 44.11 169.29 44.26 169.29 44.41 169.29 44.56 152.38 44.71 152.43 44.86 152.48 45.01 152.53 45.15 152.57 45.3 152.62 45.45 152.67 45.6 152.72 45.75 152.77 45.9 152.82 46.05 152.87 46.2 152.91 46.35 152.96 46.5 153.01 46.65 153.06 46.8 153.11 46.95 153.16 47.1 153.21 47.25 153.25 47.4 153.3 47.55 153.35 47.7 153.4 47.85 153.45 48 153.5 48.15 153.55 48.3 153.59 48.45 153.64 48.6 153.69 48.75 153.74 48.9 153.79 49.05 153.84 49.2 153.88 49.35 153.93 49.49 153.98 49.64 154.03 49.79 154.08 49.94 154.13 50.09 154.17 50.24 154.22 50.39 154.27 50.54 154.32 50.69 154.37 50.84 154.41 50.99 154.46 51.14 154.51 51.29 154.56 51.44 154.61 51.59 154.66 51.74 154.7 51.89 154.75 52.04 154.8 52.19 154.85 52.34 154.9 52.49 154.94 52.64 154.99 52.79 155.04 52.94 155.09 53.09 155.14 53.24 155.19 53.39 155.23 53.54 155.28 53.69 155.33 53.83 155.38 53.98 155.43 54.13 155.47 54.28 155.52 54.43 155.57 54.58 155.62 54.73 155.67 54.88 155.72 55.03 155.76 55.18 155.81 55.33 155.86 55.48 155.91 55.63 155.96 55.78 156 55.93 156.05 56.08 156.1 56.23 156.15 56.38 156.2 56.53 156.24 56.68 156.29 56.83 156.34 56.98 156.39 57.13 156.44 57.28 156.49 57.43 156.53 57.58 156.58 57.73 156.63 57.88 156.68 58.03 156.73 58.17 156.77 58.32 156.82 58.47 156.87 58.62 156.92 58.77 156.97 58.92 157.02 59.07 157.06 59.22 157.11 59.37 157.16 59.52 157.21 59.67 157.26 59.82 157.3 59.97 157.35 60.12 157.4 60.27 157.45 60.42 157.5 60.57 157.55 60.72 157.59 60.87 157.64 61.02 157.69 61.17 157.74 61.32 157.79 61.47 157.84 61.62 157.88 61.77 157.93 61.92 157.98 62.07 158.03 62.22 158.08 62.37 158.13 62.52 158.17 62.66 158.22 62.81 158.27 62.96 158.32 63.11 158.37 63.26 158.42 63.41 158.47 63.56 158.51 63.71 158.56 63.86 158.61 64.01 158.66 64.16 158.71 64.31 158.76 64.46 158.81 64.61 158.85 64.76 158.9 64.91 158.95 65.06 159 65.21 159.05 65.36 159.1 65.51 159.15 65.66 159.19 65.81 159.24 65.96 159.29 66.11 159.34 66.26 159.39 66.41 159.44 66.56 159.49 66.71 159.53 66.86 159.58 67 159.63 67.15 159.68 67.3 159.73 67.45 159.78 67.6 159.83 67.75 159.88 67.9 159.93 68.05 159.97 68.2 160.02 68.35 160.07 68.5 160.12 68.65 160.17 68.8 160.22 68.95 160.27 69.1 160.32 69.25 160.36 69.4 160.41 69.55 160.46 69.7 160.51 69.85 160.56 70 160.61 70.15 160.66 70.3 160.71 70.45 160.76 70.6 160.81 70.75 160.85 70.9 160.9 71.05 160.95 71.2 161 71.34 161.05 71.49 161.1 71.64 161.15 71.79 161.2 71.94 161.25 72.09 161.3 72.24 161.34 72.39 161.39 72.54 161.44 72.69 161.49 72.84 161.54 72.99 161.59 73.14 161.64 73.29 161.69 73.44 161.74 73.59 161.79 73.74 161.83 73.89 161.88 74.04 161.93 74.19 161.98 74.34 162.03 74.49 162.08 74.64 162.13 74.79 162.18 74.94 162.23 75.09 162.28 75.24 162.32 75.39 162.37 75.54 162.42 75.68 162.47 75.83 162.52 75.98 162.57 76.13 162.62 76.28 162.67 76.43 162.71 76.58 162.76 76.73 162.81 76.88 162.86 77.03 162.91 77.18 162.96 77.33 163.01 77.48 163.06 77.63 163.1 77.78 163.15 77.93 163.2 78.08 163.25 78.23 163.3 78.38 163.35 78.53 163.4 78.68 163.44 78.83 163.49 78.98 163.54 79.13 163.59 79.28 163.64 79.43 163.68 79.58 163.73 79.73 163.78 79.88 163.83 80.02 163.88 80.17 163.93 80.32 163.97 80.47 164.02 80.62 164.07 80.77 164.12 80.92 164.16 81.07 164.21 81.22 164.26 81.37 164.31 81.52 164.36 81.67 164.4 81.82 164.45 81.97 164.5 82.12 164.54 82.27 164.59 82.42 164.64 82.57 164.69 82.72 164.73 82.87 164.78 83.02 164.83 83.17 164.87 83.32 164.92 83.47 164.97 83.62 165.01 83.77 165.06 83.92 165.11 84.07 165.15 84.22 165.2 84.36 165.25 84.51 165.29 84.66 165.34 84.81 165.38 84.96 165.43 85.11 165.48 85.26 165.52 85.41 165.57 85.56 165.61 85.71 165.66 85.86 165.7 86.01 165.75 86.16 165.79 86.31 165.84 86.46 165.88 86.61 165.93 86.76 165.97 86.91 166.02 87.06 166.06 87.21 166.11 87.36 166.15 87.51 166.19 87.66 166.24 87.81 166.28 87.96 166.33 88.11 166.37 88.26 166.41 88.41 166.46 88.56 166.5 88.7 166.54 88.85 166.59 89 166.63 89.15 166.67 89.3 166.71 89.45 166.76 89.6 166.8 89.75 166.84 89.9 166.88 90.05 166.92 90.2 166.97 90.35 167.01 90.5 167.05 90.65 167.09 90.8 167.13 90.95 167.17 91.1 167.21 91.25 167.25 91.4 167.29 91.55 167.33 91.7 167.37 91.85 167.41 92 167.45 92.15 167.49 92.3 167.53 92.45 167.57 92.6 167.61 92.75 167.65 92.9 167.69 93.04 167.73 93.19 167.77 93.34 167.8 93.49 167.84 93.64 167.88 93.79 167.92 93.94 167.95 94.09 167.99 94.24 168.03 94.39 168.07 94.54 168.1 94.69 168.14 94.84 168.17 94.99 168.21 95.14 168.25 95.29 168.28 95.44 168.32 95.59 168.35 95.74 168.39 95.89 168.42 96.04 168.46 96.19 168.49 96.34 168.52 96.49 168.56 96.64 168.59 96.79 168.63 96.94 168.66 97.09 168.69 97.24 168.72 97.38 168.76 97.53 168.79 97.68 168.82 97.83 168.85 97.98 168.88 98.13 168.91 98.28 168.95 98.43 168.98 98.58 169.01 98.73 169.04 98.88 169.07 99.03 169.1 99.18 169.13 99.33 169.15 99.48 169.18 99.63 169.21 99.78 169.24 99.93 169.27 100.08 169.3 100.23 169.32 100.38 169.35 100.53 169.38 100.68 169.4 100.83 169.43 100.98 169.46 101.13 169.48 101.28 169.51 101.43 169.53 101.58 169.56 101.72 169.58 101.87 169.61 102.02 169.63 102.17 169.65 102.32 169.68 102.47 169.7 102.62 169.72 102.77 169.75 102.92 169.77 103.07 169.79 103.22 169.81 103.37 169.83 103.52 169.85 103.67 169.87 103.82 169.86 103.97 169.92 104.12 169.94 104.27 169.95 104.42 169.97 104.57 169.99 104.72 170.01 104.87 170.03 105.02 170.05 105.17 170.06 105.32 170.08 105.47 170.1 105.62 170.11 105.77 170.13 105.92 170.15 106.06 170.16 106.21 170.18 106.36 170.19 106.51 170.21 106.66 170.22 106.81 170.23 106.96 170.25 107.11 170.26 107.26 170.27 107.41 170.29 107.56 170.3 107.71 170.31 107.86 170.32 108.01 170.33 108.16 170.34 108.31 170.35 108.46 170.36 108.61 170.38 108.76 170.38 108.91 170.39 109.06 170.4 109.21 170.41 109.36 170.42 109.51 170.42 109.66 170.43 109.81 170.44 109.96 170.44 110.11 170.45 110.26 170.46 110.4 170.46 110.55 170.47 110.7 170.47 110.85 170.47 111 170.48 111.15 170.48 111.3 170.49 111.45 170.49 111.6 170.49 111.75 170.49 111.9 170.5 112.05 170.5 112.2 170.5 112.35 170.49 112.5 170.49 112.65 170.5 112.8 170.5 112.95 170.49 113.1 170.5 113.25 170.5 113.4 170.5 113.55 170.49 113.7 170.49 113.85 170.49 114 170.49 114.15 170.48 114.3 170.48 114.45 170.48 114.6 170.47 114.74 170.47 114.89 170.46 115.04 170.46 115.19 170.45 115.34 170.44 115.49 170.44 115.64 170.43 115.79 170.43 115.94 170.42 116.09 170.41 116.24 170.4 116.39 170.39 116.54 170.39 116.69 170.38 116.84 170.37 116.99 170.36 117.14 170.35 117.29 170.34 117.44 170.33 117.59 170.32 117.74 170.31 117.89 170.3 118.04 170.29 118.19 170.27 118.34 170.26 118.49 170.25 118.64 170.24 118.79 170.22 118.94 170.21 119.08 170.2 119.23 170.18 119.38 170.17 119.53 170.16 119.68 170.14 119.83 170.13 119.98 170.11 120.13 170.1 120.28 170.08 120.43 170.07 120.58 170.05 120.73 170.03 120.88 170.02 121.03 170 121.18 169.98 121.33 169.97 121.48 169.95 121.63 169.93 121.78 169.91 121.93 169.9 122.08 169.88 122.23 169.86 122.38 169.84 122.53 169.82 122.68 169.8 122.83 169.78 122.98 169.76 123.13 169.74 123.28 169.73 123.42 169.71 123.57 169.68 123.72 169.66 123.87 169.64 124.02 169.62 124.17 169.6 124.32 169.58 124.47 169.56 124.62 169.54 124.77 169.52 124.92 169.5 125.07 169.47 125.22 169.45 125.37 169.43 125.52 169.41 125.67 169.38 125.82 169.36 125.97 169.34 126.12 169.32 126.27 169.29 126.42 169.27 126.57 169.25 126.72 169.22 126.87 169.2 127.02 169.18 127.17 169.15 127.32 169.13 127.47 169.1 127.62 169.08 127.76 169.06 127.91 169.03 128.06 169.01 128.21 168.98 128.36 168.95 128.51 168.93 128.66 168.91 128.81 168.88 128.96 168.86 129.11 168.83 129.26 168.81 129.41 168.78 129.56 168.76 129.71 168.73 129.86 168.71 130.01 168.68 130.16 168.66 130.31 168.63 130.46 168.61 130.61 168.58 130.76 168.56 130.91 168.53 131.06 168.5 131.21 168.48 131.36 168.45 131.51 168.43 131.66 168.4 131.81 168.37 131.96 168.35 132.1 168.32 132.25 168.3 132.4 168.27 132.55 168.24 132.7 168.22 132.85 168.19 133 168.16 133.15 168.14 133.3 168.11 133.45 168.09 133.6 168.06 133.75 168.03 133.9 168.01 134.05 167.98 134.2 167.95 134.35 167.93 134.5 167.9 134.65 167.88 134.8 167.85 134.95 167.82 135.1 167.8 135.25 167.77 135.4 167.74 135.55 167.72 135.7 167.69 135.85 167.66 136 167.64 136.15 167.61 136.3 167.58 136.44 167.56 136.59 167.53 136.74 167.5 136.89 167.48 137.04 167.45 137.19 167.43 137.34 167.4 137.49 167.37 137.64 167.35 137.79 167.32 137.94 167.29 138.09 167.27 138.24 167.24 138.39 167.22 138.54 167.19 138.69 167.16 138.84 167.14 138.99 167.11 139.14 167.09 139.29 167.06 139.44 167.03 139.59 167.01 139.74 166.98 139.89 166.96 140.04 166.93 140.19 166.9 140.34 166.88 140.49 166.85 140.64 166.83 140.78 166.8 140.93 166.77 141.08 166.75 141.23 166.72 141.38 166.7 141.53 166.67 141.68 166.65 141.83 166.62 141.98 166.6 142.13 166.57 142.28 166.54 142.43 166.52 142.58 166.49 142.73 166.47 142.88 166.44 143.03 166.42 143.18 166.39 143.33 166.37 143.48 166.34 143.63 166.32 143.78 166.29 143.93 166.27 144.08 166.24 144.23 166.22 144.38 166.19 144.53 166.17 144.68 166.14 144.83 166.12 144.98 166.09 145.12 166.07 145.27 166.04 145.42 166.02 145.57 166 145.72 165.97 145.87 165.95 146.02 165.92 146.17 165.9 146.32 165.87 146.47 165.85 146.62 165.83 146.77 165.8 146.92 165.78 147.07 165.75 147.22 165.73 147.37 165.7 147.52 165.68 147.67 165.66 147.82 165.63 147.97 165.61 148.12 165.59 148.27 165.56 148.42 165.54 148.57 165.51 148.72 165.49 148.87 165.47 149.02 165.44 149.17 165.42 149.32 165.4 149.46 165.37 149.61 165.35 149.76 165.33 149.91 165.3 150.06 165.28 150.21 165.26 150.36 165.23 150.51 165.21 150.66 165.19 150.81 165.16 150.96 165.14 151.11 165.12 151.26 165.09 151.41 165.07 151.56 165.05 151.71 165.03 151.86 165 152.01 164.98 152.16 164.96 152.31 164.94 152.46 164.91 152.61 164.89 152.76 164.87 152.91 164.85 153.06 164.82 153.21 164.8 153.36 164.78 153.51 164.76 153.66 164.73 153.8 164.71 153.95 164.69 154.1 164.67 154.25 164.64 154.4 164.62 154.55 164.6 154.7 164.58 154.85 164.56 155 164.53 155.15 164.51 155.3 164.49 155.45 164.47 155.6 164.45 155.75 164.42 155.9 164.4 156.05 164.38 156.2 164.36 156.35 164.34 156.5 164.32 156.65 164.29 156.8 164.27 156.95 164.25 157.1 164.23 157.25 164.21 157.4 164.19 157.55 164.17 157.7 164.14 157.85 164.12 158 164.1 158.14 164.08 158.29 164.06 158.44 164.04 158.59 164.02 158.74 164 158.89 163.98 159.04 163.95 159.19 163.93 159.34 163.91 159.49 163.89 159.64 163.87 159.79 163.85 159.94 163.83 160.09 163.81 160.24 163.79 160.39 163.77 160.54 163.75 160.69 163.72 160.84 163.7 160.99 163.68 161.14 163.66 161.29 163.64 161.44 163.62 161.59 163.6 161.74 163.58 161.89 163.56 162.04 163.54 162.19 163.52 162.34 163.5 162.48 163.48 162.63 163.46 162.78 163.44 162.93 163.42 163.08 163.4 163.23 163.38 163.38 163.36 163.53 163.34 163.68 163.32 163.83 163.3 163.98 163.28 164.13 163.26 164.28 163.24 164.43 163.22 164.58 163.2 164.73 163.18 164.88 163.16 165.03 163.14 165.18 163.12 165.33 163.1 165.48 163.08 165.63 163.06 165.78 163.04 165.93 163.02 166.08 163 166.23 162.98 166.38 162.96 166.53 162.94 166.68 162.92 166.82 162.9 166.97 162.88 167.12 162.86 167.27 162.84 167.42 162.82 167.57 162.8 167.72 162.78 167.87 162.76 168.02 162.74 168.17 162.72 168.32 162.7 168.47 162.69 168.62 162.67 168.77 162.65 168.92 162.63 169.07 162.61 169.22 162.59 169.37 162.57 169.52 162.55 169.67 162.53 169.82 162.51 169.97 162.49 170.12 162.47 170.27 162.45 170.42 162.44" id="img-d614c504-27" stroke="#00BFFF" class="geometry color_Bates"/>
        <path fill="none" d="M20.76,164.94 L 20.91 165.06 21.06 165.1 21.21 165.11 21.36 165.08 21.51 165.02 21.66 164.95 21.81 164.89 21.96 164.83 22.11 164.78 22.26 164.76 22.41 164.74 22.56 164.75 22.71 164.77 22.86 164.8 23.01 164.85 23.16 164.91 23.31 164.97 23.45 165.05 23.6 165.12 23.75 165.19 23.9 165.26 24.05 165.32 24.2 165.38 24.35 165.42 24.5 165.46 24.65 165.5 24.8 165.52 24.95 165.54 25.1 165.56 25.25 165.57 25.4 165.59 25.55 165.61 25.7 165.62 25.85 165.65 26 165.67 26.15 165.7 26.3 165.73 26.45 165.76 26.6 165.8 26.75 165.84 26.9 165.88 27.05 165.92 27.2 165.96 27.35 166 27.5 166.04 27.65 166.08 27.79 166.12 27.94 166.16 28.09 166.19 28.24 166.22 28.39 166.26 28.54 166.29 28.69 166.32 28.84 166.35 28.99 166.38 29.14 166.41 29.29 166.44 29.44 166.47 29.59 166.5 29.74 169.29 29.89 169.29 30.04 166.59 30.19 166.62 30.34 166.66 30.49 166.69 30.64 166.73 30.79 166.76 30.94 166.79 31.09 169.29 31.24 166.86 31.39 169.29 31.54 166.93 31.69 169.29 31.84 169.29 31.99 167.03 32.13 169.29 32.28 167.09 32.43 169.29 32.58 169.29 32.73 169.29 32.88 167.22 33.03 169.29 33.18 167.28 33.33 169.29 33.48 167.35 33.63 167.38 33.78 167.41 33.93 167.44 34.08 169.29 34.23 169.29 34.38 169.29 34.53 169.29 34.68 169.29 34.83 169.29 34.98 169.29 35.13 169.29 35.28 169.29 35.43 169.29 35.58 169.29 35.73 169.29 35.88 167.86 36.03 169.29 36.18 167.93 36.33 169.29 36.47 169.29 36.62 169.29 36.77 169.29 36.92 169.29 37.07 169.29 37.22 169.29 37.37 169.29 37.52 169.29 37.67 168.24 37.82 168.28 37.97 168.31 38.12 168.34 38.27 168.37 38.42 168.4 38.57 168.43 38.72 168.46 38.87 168.5 39.02 168.53 39.17 168.56 39.32 168.59 39.47 168.62 39.62 168.65 39.77 168.69 39.92 168.72 40.07 168.75 40.22 168.78 40.37 168.81 40.52 168.84 40.67 168.87 40.81 168.9 40.96 168.94 41.11 168.97 41.26 169 41.41 169.03 41.56 169.06 41.71 169.09 41.86 169.12 42.01 169.15 42.16 169.18 42.31 169.21 42.46 169.25 42.61 169.28 42.76 169.31 42.91 169.34 43.06 169.37 43.21 169.4 43.36 169.43 43.51 169.46 43.66 169.49 43.81 169.52 43.96 169.56 44.11 169.59 44.26 169.62 44.41 169.65 44.56 169.68 44.71 169.71 44.86 169.74 45.01 169.77 45.15 169.8 45.3 169.83 45.45 169.86 45.6 169.89 45.75 169.92 45.9 169.95 46.05 169.98 46.2 170.02 46.35 170.05 46.5 170.08 46.65 170.11 46.8 170.14 46.95 170.17 47.1 170.2 47.25 170.23 47.4 170.26 47.55 170.29 47.7 170.32 47.85 170.35 48 170.38 48.15 170.41 48.3 170.44 48.45 170.47 48.6 170.5 48.75 170.53 48.9 170.56 49.05 170.59 49.2 170.62 49.35 170.65 49.49 170.68 49.64 170.71 49.79 170.74 49.94 170.77 50.09 170.8 50.24 170.83 50.39 170.86 50.54 170.89 50.69 170.92 50.84 170.95 50.99 170.98 51.14 171.02 51.29 171.05 51.44 171.08 51.59 171.11 51.74 171.14 51.89 171.16 52.04 171.19 52.19 171.22 52.34 171.25 52.49 171.28 52.64 171.31 52.79 171.34 52.94 171.37 53.09 171.4 53.24 171.43 53.39 171.46 53.54 198.54 53.69 198.54 53.83 198.54 53.98 198.54 54.13 198.54 54.28 198.54 54.43 198.54 54.58 198.54 54.73 198.54 54.88 198.54 55.03 198.54 55.18 198.54 55.33 171.85 55.48 198.54 55.63 198.54 55.78 171.94 55.93 198.54 56.08 198.54 56.23 198.54 56.38 198.54 56.53 198.54 56.68 198.54 56.83 198.54 56.98 198.54 57.13 198.54 57.28 198.54 57.43 198.54 57.58 172.29 57.73 198.54 57.88 198.54 58.03 198.54 58.17 198.54 58.32 198.54 58.47 198.54 58.62 198.54 58.77 198.54 58.92 172.56 59.07 198.54 59.22 198.54 59.37 198.54 59.52 198.54 59.67 198.54 59.82 172.73 59.97 198.54 60.12 198.54 60.27 198.54 60.42 172.85 60.57 198.54 60.72 198.54 60.87 172.94 61.02 198.54 61.17 198.54 61.32 173.02 61.47 198.54 61.62 198.54 61.77 198.54 61.92 198.54 62.07 198.54 62.22 198.54 62.37 198.54 62.52 198.54 62.66 198.54 62.81 198.54 62.96 198.54 63.11 198.54 63.26 198.54 63.41 198.54 63.56 198.54 63.71 198.54 63.86 198.54 64.01 198.54 64.16 198.54 64.31 173.6 64.46 198.54 64.61 173.66 64.76 198.54 64.91 198.54 65.06 198.54 65.21 198.54 65.36 198.54 65.51 198.54 65.66 173.86 65.81 198.54 65.96 173.92 66.11 198.54 66.26 173.98 66.41 198.57 66.56 174.03 66.71 208.29 66.86 174.09 67 198.54 67.15 198.54 67.3 174.17 67.45 198.68 67.6 174.23 67.75 174.26 67.9 174.29 68.05 174.32 68.2 174.35 68.35 174.37 68.5 174.4 68.65 174.43 68.8 174.46 68.95 174.49 69.1 174.52 69.25 174.54 69.4 174.57 69.55 174.6 69.7 174.63 69.85 174.66 70 174.69 70.15 174.71 70.3 174.74 70.45 174.77 70.6 174.8 70.75 174.83 70.9 174.85 71.05 174.88 71.2 174.91 71.34 174.94 71.49 174.97 71.64 175 71.79 175.02 71.94 175.05 72.09 175.08 72.24 175.11 72.39 175.14 72.54 175.16 72.69 175.19 72.84 175.22 72.99 175.25 73.14 175.27 73.29 175.3 73.44 175.33 73.59 175.36 73.74 175.39 73.89 175.41 74.04 175.44 74.19 175.47 74.34 175.5 74.49 175.52 74.64 175.55 74.79 175.58 74.94 175.61 75.09 175.64 75.24 175.66 75.39 175.69 75.54 175.72 75.68 175.75 75.83 175.77 75.98 175.8 76.13 175.83 76.28 175.86 76.43 175.88 76.58 175.91 76.73 175.94 76.88 175.97 77.03 175.99 77.18 176.02 77.33 176.05 77.48 176.08 77.63 176.1 77.78 176.13 77.93 176.16 78.08 176.18 78.23 176.21 78.38 176.24 78.53 176.27 78.68 176.29 78.83 176.32 78.98 176.35 79.13 176.37 79.28 176.4 79.43 176.43 79.58 176.46 79.73 176.48 79.88 176.51 80.02 176.54 80.17 176.56 80.32 176.59 80.47 176.62 80.62 176.64 80.77 176.67 80.92 176.7 81.07 176.72 81.22 176.75 81.37 176.78 81.52 176.8 81.67 176.83 81.82 176.86 81.97 176.88 82.12 176.91 82.27 176.94 82.42 176.96 82.57 176.99 82.72 177.02 82.87 177.04 83.02 177.07 83.17 177.1 83.32 177.12 83.47 177.15 83.62 177.17 83.77 177.2 83.92 177.23 84.07 177.25 84.22 177.28 84.36 177.31 84.51 177.33 84.66 177.36 84.81 177.38 84.96 177.41 85.11 177.44 85.26 177.46 85.41 177.49 85.56 177.51 85.71 177.54 85.86 177.56 86.01 177.59 86.16 177.62 86.31 177.64 86.46 177.67 86.61 177.69 86.76 177.72 86.91 177.74 87.06 177.77 87.21 177.79 87.36 177.82 87.51 177.85 87.66 177.87 87.81 177.9 87.96 177.92 88.11 177.95 88.26 177.97 88.41 178 88.56 178.02 88.7 178.05 88.85 178.07 89 178.1 89.15 178.12 89.3 178.15 89.45 178.17 89.6 178.2 89.75 178.22 89.9 178.24 90.05 178.27 90.2 178.29 90.35 178.32 90.5 178.34 90.65 178.37 90.8 178.39 90.95 178.42 91.1 178.44 91.25 178.46 91.4 178.49 91.55 178.51 91.7 178.54 91.85 178.56 92 178.58 92.15 178.61 92.3 178.63 92.45 178.66 92.6 178.68 92.75 178.7 92.9 178.73 93.04 178.75 93.19 178.77 93.34 178.8 93.49 178.82 93.64 178.84 93.79 178.87 93.94 178.89 94.09 178.91 94.24 178.93 94.39 178.96 94.54 178.98 94.69 179 94.84 179.03 94.99 179.05 95.14 179.07 95.29 179.09 95.44 179.12 95.59 179.14 95.74 179.16 95.89 179.18 96.04 179.21 96.19 183.92 96.34 179.25 96.49 179.27 96.64 179.29 96.79 179.32 96.94 179.34 97.09 179.36 97.24 179.38 97.38 179.4 97.53 179.42 97.68 179.44 97.83 179.47 97.98 179.49 98.13 179.51 98.28 179.53 98.43 179.55 98.58 179.57 98.73 179.59 98.88 179.61 99.03 179.63 99.18 179.65 99.33 179.67 99.48 179.69 99.63 179.71 99.78 183.92 99.93 179.75 100.08 179.77 100.23 179.79 100.38 179.81 100.53 179.83 100.68 179.85 100.83 179.87 100.98 179.89 101.13 183.92 101.28 179.93 101.43 179.95 101.58 179.98 101.72 179.99 101.87 180.01 102.02 180.02 102.17 180.04 102.32 180.06 102.47 180.08 102.62 180.1 102.77 180.12 102.92 180.13 103.07 180.15 103.22 180.17 103.37 180.19 103.52 180.2 103.67 180.22 103.82 180.24 103.97 180.26 104.12 180.27 104.27 180.29 104.42 180.31 104.57 180.32 104.72 180.34 104.87 180.36 105.02 180.37 105.17 180.39 105.32 180.41 105.47 180.42 105.62 180.44 105.77 180.46 105.92 180.47 106.06 180.49 106.21 180.5 106.36 180.52 106.51 180.53 106.66 180.55 106.81 180.56 106.96 180.58 107.11 180.26 107.26 180.61 107.41 180.62 107.56 180.64 107.71 180.65 107.86 180.67 108.01 180.68 108.16 180.69 108.31 180.71 108.46 180.72 108.61 180.74 108.76 180.75 108.91 180.76 109.06 180.78 109.21 180.79 109.36 180.8 109.51 180.82 109.66 180.26 109.81 180.84 109.96 180.85 110.11 180.87 110.26 180.88 110.4 180.89 110.55 180.26 110.7 180.91 110.85 180.93 111 180.94 111.15 180.95 111.3 180.96 111.45 180.26 111.6 180.98 111.75 180.26 111.9 181 112.05 181.02 112.2 181.03 112.35 181.04 112.5 181.05 112.65 181.06 112.8 181.07 112.95 181.08 113.1 181.09 113.25 181.1 113.4 181.11 113.55 181.12 113.7 181.13 113.85 181.14 114 181.15 114.15 181.15 114.3 181.16 114.45 181.17 114.6 181.17 114.74 181.19 114.89 181.2 115.04 181.21 115.19 181.21 115.34 181.22 115.49 181.23 115.64 181.24 115.79 181.25 115.94 181.25 116.09 181.26 116.24 181.27 116.39 181.28 116.54 181.28 116.69 181.29 116.84 181.3 116.99 181.3 117.14 181.31 117.29 181.32 117.44 181.32 117.59 181.33 117.74 181.34 117.89 181.34 118.04 181.35 118.19 181.35 118.34 181.36 118.49 181.37 118.64 181.37 118.79 181.38 118.94 180.26 119.08 181.39 119.23 181.39 119.38 181.4 119.53 181.4 119.68 181.41 119.83 181.41 119.98 181.42 120.13 181.42 120.28 181.43 120.43 181.43 120.58 181.44 120.73 181.44 120.88 181.44 121.03 181.45 121.18 181.45 121.33 181.46 121.48 181.46 121.63 181.46 121.78 181.47 121.93 181.47 122.08 181.46 122.23 181.48 122.38 181.48 122.53 181.48 122.68 181.48 122.83 180.26 122.98 181.49 123.13 181.49 123.28 180.26 123.42 181.5 123.57 181.5 123.72 181.5 123.87 181.52 124.02 181.51 124.17 181.51 124.32 181.51 124.47 181.51 124.62 180.26 124.77 181.52 124.92 181.52 125.07 181.52 125.22 181.52 125.37 181.52 125.52 181.52 125.67 181.52 125.82 181.53 125.97 181.53 126.12 181.53 126.27 181.53 126.42 181.53 126.57 181.53 126.72 181.53 126.87 181.53 127.02 181.53 127.17 181.53 127.32 181.53 127.47 181.53 127.62 181.53 127.76 181.53 127.91 180.26 128.06 180.26 128.21 181.53 128.36 180.26 128.51 181.53 128.66 181.53 128.81 181.53 128.96 181.53 129.11 180.26 129.26 181.53 129.41 181.53 129.56 181.53 129.71 181.53 129.86 180.26 130.01 181.53 130.16 181.53 130.31 181.52 130.46 181.52 130.61 181.52 130.76 181.52 130.91 181.52 131.06 181.52 131.21 181.52 131.36 181.52 131.51 181.51 131.66 181.51 131.81 181.51 131.96 181.51 132.1 181.51 132.25 181.51 132.4 181.5 132.55 181.5 132.7 181.5 132.85 181.5 133 180.26 133.15 181.49 133.3 181.49 133.45 181.49 133.6 181.49 133.75 181.17 133.9 181.48 134.05 181.48 134.2 181.48 134.35 181.48 134.5 181.47 134.65 181.47 134.8 181.47 134.95 181.46 135.1 181.46 135.25 181.17 135.4 181.46 135.55 208.29 135.7 208.29 135.85 208.29 136 181.44 136.15 181.44 136.3 208.29 136.44 181.44 136.59 208.29 136.74 181.43 136.89 208.29 137.04 181.42 137.19 208.29 137.34 208.29 137.49 208.29 137.64 181.41 137.79 181.41 137.94 208.29 138.09 181.4 138.24 181.39 138.39 208.29 138.54 208.29 138.69 208.29 138.84 181.38 138.99 198.54 139.14 198.54 139.29 198.54 139.44 181.36 139.59 198.54 139.74 181.36 139.89 198.54 140.04 198.54 140.19 198.54 140.34 198.54 140.49 198.54 140.64 198.54 140.78 198.54 140.93 198.54 141.08 198.54 141.23 198.54 141.38 198.54 141.53 198.54 141.68 198.54 141.83 198.54 141.98 198.54 142.13 198.54 142.28 181.28 142.43 198.54 142.58 198.54 142.73 198.54 142.88 198.54 143.03 198.54 143.18 181.26 143.33 198.54 143.48 198.54 143.63 198.54 143.78 181.24 143.93 198.54 144.08 198.54 144.23 198.54 144.38 198.54 144.53 198.54 144.68 198.54 144.83 198.54 144.98 198.54 145.12 198.54 145.27 198.54 145.42 198.54 145.57 181.18 145.72 181.17 145.87 198.54 146.02 198.54 146.17 198.54 146.32 198.54 146.47 181.15 146.62 198.54 146.77 198.54 146.92 198.54 147.07 198.54 147.22 198.54 147.37 198.54 147.52 181.11 147.67 198.54 147.82 198.54 147.97 198.54 148.12 198.54 148.27 198.54 148.42 198.54 148.57 198.54 148.72 181.06 148.87 181.06 149.02 198.54 149.17 198.54 149.32 198.54 149.46 198.54 149.61 198.54 149.76 198.54 149.91 198.54 150.06 198.54 150.21 198.54 150.36 198.54 150.51 198.54 150.66 180.99 150.81 198.54 150.96 180.98 151.11 198.54 151.26 198.54 151.41 198.54 151.56 180.96 151.71 198.54 151.86 180.94 152.01 198.54 152.16 198.54 152.31 198.54 152.46 198.54 152.61 198.54 152.76 198.54 152.91 180.9 153.06 198.54 153.21 198.54 153.36 198.54 153.51 198.54 153.66 198.54 153.8 198.54 153.95 198.54 154.1 198.54 154.25 198.54 154.4 198.54 154.55 198.54 154.7 198.54 154.85 198.54 155 198.54 155.15 198.54 155.3 198.54 155.45 198.54 155.6 198.54 155.75 198.54 155.9 198.54 156.05 180.77 156.2 198.54 156.35 198.54 156.5 198.54 156.65 198.54 156.8 180.74 156.95 198.54 157.1 198.54 157.25 198.54 157.4 198.54 157.55 198.54 157.7 198.54 157.85 198.54 158 180.69 158.14 198.54 158.29 180.68 158.44 198.54 158.59 180.66 158.74 198.54 158.89 198.54 159.04 198.54 159.19 198.54 159.34 198.54 159.49 180.63 159.64 198.54 159.79 180.61 159.94 198.54 160.09 198.54 160.24 180.59 160.39 198.54 160.54 198.54 160.69 198.54 160.84 198.54 160.99 198.54 161.14 198.54 161.29 198.54 161.44 198.54 161.59 198.54 161.74 198.54 161.89 198.54 162.04 198.54 162.19 198.54 162.34 180.5 162.48 198.54 162.63 198.54 162.78 198.54 162.93 198.54 163.08 198.54 163.23 198.54 163.38 180.46 163.53 198.54 163.68 198.54 163.83 198.54 163.98 198.54 164.13 198.54 164.28 198.54 164.43 198.54 164.58 180.4 164.73 198.54 164.88 198.54 165.03 180.38 165.18 198.54 165.33 198.54 165.48 198.54 165.63 198.54 165.78 180.35 165.93 198.54 166.08 198.54 166.23 198.54 166.38 198.54 166.53 198.54 166.68 198.54 166.82 198.54 166.97 198.54 167.12 198.54 167.27 180.28 167.42 180.27 167.57 198.54 167.72 198.54 167.87 198.54 168.02 198.54 168.17 198.54 168.32 198.54 168.47 198.54 168.62 198.54 168.77 198.54 168.92 198.54 169.07 198.54 169.22 198.54 169.37 198.54 169.52 180.18 169.67 198.54 169.82 198.54 169.97 198.54 170.12 198.54 170.27 198.54 170.42 198.54" id="img-d614c504-28" stroke="#D4CA3A" class="geometry color_Heston"/>
      </g>
    </g>
  </g>
</g>
  <g class="guide ylabels" font-size="2.82" font-family="'PT Sans Caption','Helvetica Neue','Helvetica',sans-serif" fill="#6C606B" id="img-d614c504-29">
    <text x="17.76" y="208.31" text-anchor="end" dy="0.35em" id="img-d614c504-30">0.0</text>
    <text x="17.76" y="110.77" text-anchor="end" dy="0.35em" id="img-d614c504-31">0.5</text>
    <text x="17.76" y="13.23" text-anchor="end" dy="0.35em" id="img-d614c504-32">1.0</text>
  </g>
  <g font-size="3.88" font-family="'PT Sans','Helvetica Neue','Helvetica',sans-serif" fill="#564A55" stroke="#000000" stroke-opacity="0.000" id="img-d614c504-33">
    <text x="8.76" y="108.77" text-anchor="middle" dy="0.35em" transform="rotate(-90, 8.76, 110.77)" id="img-d614c504-34">Implied σ</text>
  </g>
  <g font-size="3.88" font-family="'PT Sans','Helvetica Neue','Helvetica',sans-serif" fill="#564A55" stroke="#000000" stroke-opacity="0.000" id="img-d614c504-35">
    <text x="95.59" y="5" text-anchor="middle" dy="0.6em" id="img-d614c504-36">Volatility Smile by Moneyness (μⱼ=-0.0301, θ=.09, σⱼ=0.11))</text>
  </g>
</g>
<defs>
  <clipPath id="img-d614c504-13">
  <path d="M18.76,11.23 L 172.42 11.23 172.42 210.31 18.76 210.31" />
</clipPath>
</defs>
</svg>
