<?xml version="1.0" encoding="UTF-8"?>
<svg xmlns="http://www.w3.org/2000/svg"
     xmlns:xlink="http://www.w3.org/1999/xlink"
     xmlns:gadfly="http://www.gadflyjl.org/ns"
     version="1.2"
     width="190.5mm" height="228.6mm" viewBox="0 0 190.5 228.6"
     stroke="none"
     fill="#000000"
     stroke-width="0.3"
     font-size="3.88"
>
<g class="plotroot xscalable yscalable" id="img-f35f10b1-1">
  <g font-size="3.88" font-family="'PT Sans','Helvetica Neue','Helvetica',sans-serif" fill="#564A55" stroke="#000000" stroke-opacity="0.000" id="img-f35f10b1-2">
    <text x="95.59" y="217.07" text-anchor="middle" dy="0.6em">Time to Maturity</text>
  </g>
  <g class="guide xlabels" font-size="2.82" font-family="'PT Sans Caption','Helvetica Neue','Helvetica',sans-serif" fill="#6C606B" id="img-f35f10b1-3">
    <text x="20.76" y="210.96" text-anchor="middle" dy="0.6em">0</text>
    <text x="50.69" y="210.96" text-anchor="middle" dy="0.6em">1</text>
    <text x="80.62" y="210.96" text-anchor="middle" dy="0.6em">2</text>
    <text x="110.55" y="210.96" text-anchor="middle" dy="0.6em">3</text>
    <text x="140.49" y="210.96" text-anchor="middle" dy="0.6em">4</text>
    <text x="170.42" y="210.96" text-anchor="middle" dy="0.6em">5</text>
  </g>
  <g class="guide colorkey" id="img-f35f10b1-4">
    <g fill="#4C404B" font-size="2.82" font-family="'PT Sans','Helvetica Neue','Helvetica',sans-serif" id="img-f35f10b1-5">
      <text x="175.98" y="110.59" dy="0.35em" id="img-f35f10b1-6" class="color_Bates">Bates</text>
      <text x="175.98" y="113.71" dy="0.35em" id="img-f35f10b1-7" class="color_Heston">Heston</text>
    </g>
    <g stroke="#000000" stroke-opacity="0.000" id="img-f35f10b1-8">
      <rect x="173.42" y="109.82" width="1.56" height="1.56" id="img-f35f10b1-9" class="color_Bates" fill="#00BFFF"/>
      <rect x="173.42" y="112.93" width="1.56" height="1.56" id="img-f35f10b1-10" class="color_Heston" fill="#D4CA3A"/>
    </g>
    <g fill="#362A35" font-size="3.88" font-family="'PT Sans','Helvetica Neue','Helvetica',sans-serif" stroke="#000000" stroke-opacity="0.000" id="img-f35f10b1-11">
      <text x="173.42" y="106.89" id="img-f35f10b1-12">model</text>
    </g>
  </g>
<g clip-path="url(#img-f35f10b1-13)">
  <g id="img-f35f10b1-14">
    <g pointer-events="visible" opacity="1" fill="#000000" fill-opacity="0.000" stroke="#000000" stroke-opacity="0.000" class="guide background" id="img-f35f10b1-15">
      <rect x="18.76" y="11.23" width="153.66" height="198.72" id="img-f35f10b1-16"/>
    </g>
    <g class="guide ygridlines xfixed" stroke-dasharray="0.5,0.5" stroke-width="0.2" stroke="#D0D0E0" id="img-f35f10b1-17">
      <path fill="none" d="M18.76,207.96 L 172.42 207.96" id="img-f35f10b1-18"/>
      <path fill="none" d="M18.76,110.59 L 172.42 110.59" id="img-f35f10b1-19"/>
      <path fill="none" d="M18.76,13.23 L 172.42 13.23" id="img-f35f10b1-20"/>
    </g>
    <g class="guide xgridlines yfixed" stroke-dasharray="0.5,0.5" stroke-width="0.2" stroke="#D0D0E0" id="img-f35f10b1-21">
      <path fill="none" d="M20.76,11.23 L 20.76 209.96" id="img-f35f10b1-22"/>
      <path fill="none" d="M50.69,11.23 L 50.69 209.96" id="img-f35f10b1-23"/>
      <path fill="none" d="M80.62,11.23 L 80.62 209.96" id="img-f35f10b1-24"/>
      <path fill="none" d="M110.55,11.23 L 110.55 209.96" id="img-f35f10b1-25"/>
      <path fill="none" d="M140.49,11.23 L 140.49 209.96" id="img-f35f10b1-26"/>
      <path fill="none" d="M170.42,11.23 L 170.42 209.96" id="img-f35f10b1-27"/>
    </g>
    <g class="plotpanel" id="img-f35f10b1-28">
      <g stroke-width="0.3" fill="#000000" fill-opacity="0.000" stroke-dasharray="none" id="img-f35f10b1-29">
        <path fill="none" d="M21.06,90.85 L 21.36 119.33 21.66 132.2 21.96 139.93 22.26 145.21 22.56 149.1 22.86 152.11 23.16 154.52 23.45 156.49 23.75 158.15 24.05 159.56 24.35 160.77 24.65 161.81 24.95 162.73 25.25 163.53 25.55 164.23 25.85 164.86 26.15 165.41 26.45 165.9 26.75 166.33 27.05 166.72 27.35 167.06 27.65 167.37 27.94 167.64 28.24 167.89 28.54 168.11 28.84 168.31 29.14 168.48 29.44 168.64 29.74 168.78 30.04 168.91 30.34 169.02 30.64 169.12 30.94 169.22 31.24 169.3 31.54 169.37 31.84 169.44 32.13 169.5 32.43 169.55 32.73 169.58 33.03 169.64 33.33 169.67 33.63 169.7 33.93 169.73 34.23 169.76 34.53 169.78 34.83 169.8 35.13 169.81 35.43 169.83 35.73 169.84 36.03 169.85 36.33 169.85 36.62 169.86 36.92 169.86 37.22 169.87 37.52 169.87 37.82 169.87 38.12 169.87 38.42 169.86 38.72 169.86 39.02 169.86 39.32 169.85 39.62 169.85 39.92 169.84 40.22 169.83 40.52 169.83 40.81 169.82 41.11 169.81 41.41 169.8 41.71 169.79 42.01 169.78 42.31 169.77 42.61 169.77 42.91 169.76 43.21 169.74 43.51 169.73 43.81 169.72 44.11 169.71 44.41 169.7 44.71 169.69 45.01 169.68 45.3 169.67 45.6 169.66 45.9 169.65 46.2 169.64 46.5 169.62 46.8 169.61 47.1 169.6 47.4 169.59 47.7 169.58 48 169.57 48.3 169.56 48.6 169.54 48.9 169.53 49.2 169.52 49.49 169.51 49.79 169.5 50.09 169.49 50.39 169.48 50.69 169.47 50.99 169.45 51.29 169.44 51.59 169.43 51.89 169.42 52.19 169.41 52.49 169.4 52.79 169.39 53.09 169.38 53.39 169.37 53.69 169.36 53.98 169.35 54.28 169.35 54.58 169.33 54.88 169.35 55.18 169.31 55.48 169.3 55.78 169.29 56.08 169.28 56.38 169.27 56.68 169.26 56.98 169.25 57.28 169.24 57.58 169.23 57.88 169.22 58.17 169.21 58.47 169.2 58.77 169.19 59.07 169.18 59.37 169.17 59.67 169.17 59.97 169.16 60.27 169.15 60.57 169.14 60.87 169.13 61.17 169.12 61.47 169.11 61.77 169.11 62.07 169.1 62.37 169.09 62.66 169.08 62.96 169.07 63.26 169.07 63.56 169.06 63.86 169.05 64.16 169.04 64.46 169.04 64.76 169.03 65.06 169.02 65.36 169.01 65.66 169.01 65.96 169 66.26 168.99 66.56 168.98 66.86 168.98 67.15 168.97 67.45 168.96 67.75 168.96 68.05 168.95 68.35 168.94 68.65 168.94 68.95 168.93 69.25 168.92 69.55 168.92 69.85 168.91 70.15 168.9 70.45 168.9 70.75 168.89 71.05 168.89 71.34 168.88 71.64 168.87 71.94 168.87 72.24 168.86 72.54 168.86 72.84 168.85 73.14 168.85 73.44 168.84 73.74 168.83 74.04 168.83 74.34 168.82 74.64 168.82 74.94 168.81 75.24 168.81 75.54 168.8 75.83 168.8 76.13 168.79 76.43 168.79 76.73 168.78 77.03 168.78 77.33 168.77 77.63 168.77 77.93 168.76 78.23 168.76 78.53 168.75 78.83 168.75 79.13 168.74 79.43 168.74 79.73 168.73 80.02 168.73 80.32 168.73 80.62 168.72 80.92 168.72 81.22 168.71 81.52 168.71 81.82 168.7 82.12 168.7 82.42 168.69 82.72 168.69 83.02 168.69 83.32 168.68 83.62 168.68 83.92 168.67 84.22 168.67 84.51 168.67 84.81 168.66 85.11 168.66 85.41 168.65 85.71 168.65 86.01 168.65 86.31 168.64 86.61 168.64 86.91 168.64 87.21 168.63 87.51 168.63 87.81 168.62 88.11 168.62 88.41 168.62 88.7 168.61 89 168.61 89.3 168.61 89.6 168.6 89.9 168.6 90.2 168.6 90.5 168.59 90.8 168.59 91.1 168.59 91.4 168.58 91.7 168.58 92 168.58 92.3 168.57 92.6 168.57 92.9 168.57 93.19 168.57 93.49 168.56 93.79 168.56 94.09 168.56 94.39 168.55 94.69 168.55 94.99 168.55 95.29 168.54 95.59 168.54 95.89 168.54 96.19 168.54 96.49 168.53 96.79 168.53 97.09 168.53 97.38 168.53 97.68 168.52 97.98 168.52 98.28 168.52 98.58 168.51 98.88 168.51 99.18 168.51 99.48 168.51 99.78 168.5 100.08 168.5 100.38 168.5 100.68 168.5 100.98 168.49 101.28 168.49 101.58 168.49 101.87 168.49 102.17 168.48 102.47 168.48 102.77 168.48 103.07 168.48 103.37 168.48 103.67 168.47 103.97 168.47 104.27 168.47 104.57 168.47 104.87 168.46 105.17 168.46 105.47 168.46 105.77 168.46 106.06 168.45 106.36 168.45 106.66 168.45 106.96 168.45 107.26 168.45 107.56 168.44 107.86 168.44 108.16 168.44 108.46 168.44 108.76 168.44 109.06 168.43 109.36 168.43 109.66 168.43 109.96 168.43 110.26 168.43 110.55 168.42 110.85 168.42 111.15 168.42 111.45 168.42 111.75 168.42 112.05 168.41 112.35 168.41 112.65 168.41 112.95 168.41 113.25 168.41 113.55 168.4 113.85 168.4 114.15 168.4 114.45 168.4 114.74 168.4 115.04 168.4 115.34 168.39 115.64 168.39 115.94 168.39 116.24 168.39 116.54 168.39 116.84 168.39 117.14 168.38 117.44 168.38 117.74 168.38 118.04 168.38 118.34 168.38 118.64 168.38 118.94 168.37 119.23 168.37 119.53 168.37 119.83 168.37 120.13 168.37 120.43 168.37 120.73 168.36 121.03 168.36 121.33 168.36 121.63 168.36 121.93 168.36 122.23 168.36 122.53 168.35 122.83 168.35 123.13 168.35 123.42 168.35 123.72 168.35 124.02 168.35 124.32 168.35 124.62 168.34 124.92 168.34 125.22 168.34 125.52 168.34 125.82 168.34 126.12 168.34 126.42 168.34 126.72 168.33 127.02 168.33 127.32 168.33 127.62 168.33 127.91 168.33 128.21 168.33 128.51 168.33 128.81 168.32 129.11 168.32 129.41 168.32 129.71 168.32 130.01 168.32 130.31 168.32 130.61 168.32 130.91 168.31 131.21 168.31 131.51 168.31 131.81 168.31 132.1 168.31 132.4 168.31 132.7 168.31 133 168.31 133.3 168.3 133.6 168.3 133.9 168.3 134.2 168.3 134.5 168.3 134.8 168.3 135.1 168.3 135.4 168.3 135.7 168.29 136 168.29 136.3 168.29 136.59 168.29 136.89 168.29 137.19 168.29 137.49 168.29 137.79 168.29 138.09 168.29 138.39 168.28 138.69 168.28 138.99 168.28 139.29 168.28 139.59 168.28 139.89 168.28 140.19 168.28 140.49 168.28 140.78 168.28 141.08 168.27 141.38 168.27 141.68 168.27 141.98 168.27 142.28 168.27 142.58 168.27 142.88 168.27 143.18 168.27 143.48 168.27 143.78 168.26 144.08 168.26 144.38 168.26 144.68 168.26 144.98 168.27 145.27 168.26 145.57 168.26 145.87 168.26 146.17 168.27 146.47 168.25 146.77 168.27 147.07 168.25 147.37 168.25 147.67 168.25 147.97 168.25 148.27 168.25 148.57 168.25 148.87 168.25 149.17 168.25 149.46 168.24 149.76 168.24 150.06 168.24 150.36 168.24 150.66 168.24 150.96 168.24 151.26 168.24 151.56 168.24 151.86 168.24 152.16 168.24 152.46 168.24 152.76 168.23 153.06 168.23 153.36 168.23 153.66 168.23 153.95 168.23 154.25 168.23 154.55 168.23 154.85 168.23 155.15 168.23 155.45 168.23 155.75 168.22 156.05 168.22 156.35 168.22 156.65 168.22 156.95 168.22 157.25 168.22 157.55 168.22 157.85 168.22 158.14 168.22 158.44 168.22 158.74 168.22 159.04 168.22 159.34 168.21 159.64 168.21 159.94 168.21 160.24 168.21 160.54 168.21 160.84 168.21 161.14 168.21 161.44 168.21 161.74 168.21 162.04 168.21 162.34 168.21 162.63 168.2 162.93 168.2 163.23 168.2 163.53 168.2 163.83 168.2 164.13 168.2 164.43 168.2 164.73 168.2 165.03 168.2 165.33 168.2 165.63 168.2 165.93 168.2 166.23 168.2 166.53 168.2 166.82 168.19 167.12 168.19 167.42 168.19 167.72 168.19 168.02 168.19 168.32 168.19 168.62 168.19 168.92 168.19 169.22 168.19 169.52 168.19 169.82 168.19 170.12 168.18 170.42 168.18" id="img-f35f10b1-30" stroke="#00BFFF" class="geometry color_Bates"/>
        <path fill="none" d="M21.06,169.01 L 21.36 198.2 21.66 198.2 21.96 198.2 22.26 198.2 22.56 198.2 22.86 180.96 23.16 198.2 23.45 180.98 23.75 198.2 24.05 198.2 24.35 198.2 24.65 198.2 24.95 181.03 25.25 198.2 25.55 198.2 25.85 198.2 26.15 181.07 26.45 181.08 26.75 207.94 27.05 181.1 27.35 181.11 27.65 181.12 27.94 181.13 28.24 181.14 28.54 181.15 28.84 179.96 29.14 179.96 29.44 181.18 29.74 181.19 30.04 179.96 30.34 181.21 30.64 181.22 30.94 181.23 31.24 181.24 31.54 181.25 31.84 181.26 32.13 179.96 32.43 179.96 32.73 179.96 33.03 181.3 33.33 181.31 33.63 181.32 33.93 181.33 34.23 181.34 34.53 181.35 34.83 181.36 35.13 181.37 35.43 179.96 35.73 181.39 36.03 181.39 36.33 181.41 36.62 179.96 36.92 181.42 37.22 181.43 37.52 181.44 37.82 181.44 38.12 181.46 38.42 181.47 38.72 181.48 39.02 181.49 39.32 181.5 39.62 181.51 39.92 181.52 40.22 181.53 40.52 181.54 40.81 181.55 41.11 181.56 41.41 181.57 41.71 181.58 42.01 181.58 42.31 181.59 42.61 181.6 42.91 181.61 43.21 181.62 43.51 181.63 43.81 181.64 44.11 181.65 44.41 181.66 44.71 181.67 45.01 181.68 45.3 181.69 45.6 181.7 45.9 181.71 46.2 181.71 46.5 181.72 46.8 181.73 47.1 181.74 47.4 181.75 47.7 181.76 48 181.77 48.3 181.78 48.6 181.79 48.9 181.8 49.2 181.8 49.49 181.81 49.79 181.82 50.09 181.83 50.39 181.84 50.69 181.85 50.99 181.86 51.29 181.87 51.59 181.87 51.89 181.88 52.19 181.89 52.49 181.9 52.79 181.91 53.09 181.92 53.39 181.93 53.69 181.94 53.98 181.94 54.28 181.95 54.58 181.96 54.88 181.97 55.18 181.98 55.48 181.99 55.78 181.99 56.08 182 56.38 182.01 56.68 182.02 56.98 182.03 57.28 182.04 57.58 182.04 57.88 182.05 58.17 182.06 58.47 182.07 58.77 182.08 59.07 182.09 59.37 182.09 59.67 182.1 59.97 182.11 60.27 182.12 60.57 182.13 60.87 182.13 61.17 182.14 61.47 182.15 61.77 182.16 62.07 182.16 62.37 182.17 62.66 182.18 62.96 182.19 63.26 182.2 63.56 182.2 63.86 182.21 64.16 182.22 64.46 182.23 64.76 182.23 65.06 182.24 65.36 182.25 65.66 182.26 65.96 182.26 66.26 182.27 66.56 182.28 66.86 182.29 67.15 182.29 67.45 182.3 67.75 182.31 68.05 182.31 68.35 182.32 68.65 182.33 68.95 182.34 69.25 182.34 69.55 182.35 69.85 182.36 70.15 182.36 70.45 182.37 70.75 182.38 71.05 182.38 71.34 182.39 71.64 182.4 71.94 182.4 72.24 182.41 72.54 182.42 72.84 182.42 73.14 182.43 73.44 182.44 73.74 182.44 74.04 182.45 74.34 182.46 74.64 182.46 74.94 182.47 75.24 182.48 75.54 182.48 75.83 182.49 76.13 182.49 76.43 182.5 76.73 182.51 77.03 182.51 77.33 182.52 77.63 182.52 77.93 182.53 78.23 182.52 78.53 182.52 78.83 182.55 79.13 182.55 79.43 182.56 79.73 182.57 80.02 182.57 80.32 182.58 80.62 182.58 80.92 182.59 81.22 182.59 81.52 182.6 81.82 182.61 82.12 182.61 82.42 182.62 82.72 182.62 83.02 182.63 83.32 182.63 83.62 182.64 83.92 182.64 84.22 182.65 84.51 182.65 84.81 182.66 85.11 182.66 85.41 182.67 85.71 182.67 86.01 182.68 86.31 182.68 86.61 182.69 86.91 182.69 87.21 182.7 87.51 182.7 87.81 182.71 88.11 182.71 88.41 182.72 88.7 182.72 89 182.73 89.3 182.73 89.6 182.74 89.9 182.74 90.2 182.74 90.5 182.75 90.8 182.75 91.1 182.76 91.4 182.76 91.7 182.77 92 182.77 92.3 182.77 92.6 182.78 92.9 182.78 93.19 182.79 93.49 182.79 93.79 182.79 94.09 182.8 94.39 182.8 94.69 182.81 94.99 182.81 95.29 182.81 95.59 182.82 95.89 182.82 96.19 182.82 96.49 182.83 96.79 182.83 97.09 182.84 97.38 182.84 97.68 182.84 97.98 182.85 98.28 182.85 98.58 182.85 98.88 182.86 99.18 182.86 99.48 182.86 99.78 182.87 100.08 182.87 100.38 182.87 100.68 182.88 100.98 182.88 101.28 182.88 101.58 182.88 101.87 182.89 102.17 182.89 102.47 182.89 102.77 182.9 103.07 182.9 103.37 182.9 103.67 182.9 103.97 182.91 104.27 182.91 104.57 183.61 104.87 182.92 105.17 182.92 105.47 182.92 105.77 183.61 106.06 182.93 106.36 182.93 106.66 182.93 106.96 182.93 107.26 182.93 107.56 182.94 107.86 182.94 108.16 182.94 108.46 182.94 108.76 182.95 109.06 182.95 109.36 182.95 109.66 182.95 109.96 182.95 110.26 182.96 110.55 182.96 110.85 182.96 111.15 182.96 111.45 182.96 111.75 182.97 112.05 182.97 112.35 182.97 112.65 182.97 112.95 182.97 113.25 182.97 113.55 182.98 113.85 182.98 114.15 182.98 114.45 182.98 114.74 182.98 115.04 182.98 115.34 182.98 115.64 182.99 115.94 182.99 116.24 182.99 116.54 182.99 116.84 182.99 117.14 183.61 117.44 182.99 117.74 182.99 118.04 183 118.34 183 118.64 183 118.94 182.98 119.23 183 119.53 183 119.83 183 120.13 183 120.43 183 120.73 183.04 121.03 183 121.33 183.61 121.63 183.01 121.93 183.01 122.23 183.01 122.53 183.01 122.83 183.01 123.13 183.01 123.42 183.01 123.72 183.04 124.02 183.01 124.32 183.01 124.62 183.01 124.92 183.01 125.22 183.01 125.52 183.01 125.82 183.01 126.12 183.01 126.42 183.01 126.72 183.01 127.02 183.01 127.32 183.01 127.62 183.01 127.91 183.02 128.21 183.02 128.51 183.61 128.81 183.02 129.11 183.02 129.41 183.02 129.71 183.02 130.01 183.61 130.31 183.02 130.61 183.01 130.91 183.01 131.21 183.01 131.51 183.01 131.81 183.01 132.1 183.04 132.4 183.01 132.7 183.01 133 183.01 133.3 183.01 133.6 183.01 133.9 183.01 134.2 183.01 134.5 183.04 134.8 183.01 135.1 183.01 135.4 183.01 135.7 183.01 136 183.01 136.3 183.01 136.59 183.01 136.89 183.01 137.19 183.01 137.49 183 137.79 183 138.09 183 138.39 183 138.69 183 138.99 183 139.29 183 139.59 183 139.89 183 140.19 183 140.49 183 140.78 182.98 141.08 182.99 141.38 182.98 141.68 182.99 141.98 182.99 142.28 182.99 142.58 182.99 142.88 182.99 143.18 182.99 143.48 182.99 143.78 182.98 144.08 182.98 144.38 182.98 144.68 182.98 144.98 182.98 145.27 182.98 145.57 182.98 145.87 182.98 146.17 182.97 146.47 182.97 146.77 182.97 147.07 182.97 147.37 182.97 147.67 182.97 147.97 182.97 148.27 182.96 148.57 182.96 148.87 182.96 149.17 182.96 149.46 182.96 149.76 182.96 150.06 182.95 150.36 182.95 150.66 182.95 150.96 182.95 151.26 182.95 151.56 183.61 151.86 182.94 152.16 182.94 152.46 182.94 152.76 182.94 153.06 182.94 153.36 182.94 153.66 182.93 153.95 182.93 154.25 182.93 154.55 182.93 154.85 182.93 155.15 182.92 155.45 182.92 155.75 182.92 156.05 183.61 156.35 182.92 156.65 182.91 156.95 182.91 157.25 182.91 157.55 183.61 157.85 182.91 158.14 182.9 158.44 183.61 158.74 182.9 159.04 182.9 159.34 182.89 159.64 182.89 159.94 182.89 160.24 182.89 160.54 182.89 160.84 182.88 161.14 182.88 161.44 182.88 161.74 182.88 162.04 182.87 162.34 182.87 162.63 182.87 162.93 182.87 163.23 182.87 163.53 182.86 163.83 182.86 164.13 182.86 164.43 182.86 164.73 182.85 165.03 182.87 165.33 182.85 165.63 182.85 165.93 182.84 166.23 182.84 166.53 182.84 166.82 182.84 167.12 182.83 167.42 182.83 167.72 182.83 168.02 182.82 168.32 182.82 168.62 182.82 168.92 182.82 169.22 182.81 169.52 182.81 169.82 182.81 170.12 182.81 170.42 182.8" id="img-f35f10b1-31" stroke="#D4CA3A" class="geometry color_Heston"/>
      </g>
    </g>
  </g>
</g>
  <g class="guide ylabels" font-size="2.82" font-family="'PT Sans Caption','Helvetica Neue','Helvetica',sans-serif" fill="#6C606B" id="img-f35f10b1-32">
    <text x="17.76" y="207.96" text-anchor="end" dy="0.35em" id="img-f35f10b1-33">0.0</text>
    <text x="17.76" y="110.59" text-anchor="end" dy="0.35em" id="img-f35f10b1-34">0.5</text>
    <text x="17.76" y="13.23" text-anchor="end" dy="0.35em" id="img-f35f10b1-35">1.0</text>
  </g>
  <g font-size="3.88" font-family="'PT Sans','Helvetica Neue','Helvetica',sans-serif" fill="#564A55" stroke="#000000" stroke-opacity="0.000" id="img-f35f10b1-36">
    <text x="8.76" y="108.59" text-anchor="middle" dy="0.35em" transform="rotate(-90, 8.76, 110.59)" id="img-f35f10b1-37">Implied σ</text>
  </g>
  <g font-size="3.88" font-family="'PT Sans','Helvetica Neue','Helvetica',sans-serif" fill="#564A55" stroke="#000000" stroke-opacity="0.000" id="img-f35f10b1-38">
    <text x="95.59" y="5" text-anchor="middle" dy="0.6em" id="img-f35f10b1-39">Volatility Smile by Time (μⱼ=-0.0301, θ=.09, σⱼ=0.11)</text>
  </g>
</g>
<defs>
  <clipPath id="img-f35f10b1-13">
  <path d="M18.76,11.23 L 172.42 11.23 172.42 209.96 18.76 209.96" />
</clipPath>
</defs>
</svg>
