<?xml version="1.0" encoding="UTF-8"?>
<svg xmlns="http://www.w3.org/2000/svg"
     xmlns:xlink="http://www.w3.org/1999/xlink"
     xmlns:gadfly="http://www.gadflyjl.org/ns"
     version="1.2"
     width="190.5mm" height="228.6mm" viewBox="0 0 190.5 228.6"
     stroke="none"
     fill="#000000"
     stroke-width="0.3"
     font-size="3.88"
>
<g class="plotroot xscalable yscalable" id="img-38a65cc3-1">
  <g font-size="3.88" font-family="'PT Sans','Helvetica Neue','Helvetica',sans-serif" fill="#564A55" stroke="#000000" stroke-opacity="0.000" id="img-38a65cc3-2">
    <text x="95.59" y="217.07" text-anchor="middle" dy="0.6em">Time to Maturity</text>
  </g>
  <g class="guide xlabels" font-size="2.82" font-family="'PT Sans Caption','Helvetica Neue','Helvetica',sans-serif" fill="#6C606B" id="img-38a65cc3-3">
    <text x="20.76" y="210.96" text-anchor="middle" dy="0.6em">0</text>
    <text x="50.69" y="210.96" text-anchor="middle" dy="0.6em">1</text>
    <text x="80.62" y="210.96" text-anchor="middle" dy="0.6em">2</text>
    <text x="110.55" y="210.96" text-anchor="middle" dy="0.6em">3</text>
    <text x="140.49" y="210.96" text-anchor="middle" dy="0.6em">4</text>
    <text x="170.42" y="210.96" text-anchor="middle" dy="0.6em">5</text>
  </g>
  <g class="guide colorkey" id="img-38a65cc3-4">
    <g fill="#4C404B" font-size="2.82" font-family="'PT Sans','Helvetica Neue','Helvetica',sans-serif" id="img-38a65cc3-5">
      <text x="175.97" y="110.59" dy="0.35em" id="img-38a65cc3-6" class="color_Bates">Bates</text>
      <text x="175.97" y="113.71" dy="0.35em" id="img-38a65cc3-7" class="color_Heston">Heston</text>
    </g>
    <g stroke="#000000" stroke-opacity="0.000" id="img-38a65cc3-8">
      <rect x="173.42" y="109.82" width="1.56" height="1.56" id="img-38a65cc3-9" class="color_Bates" fill="#00BFFF"/>
      <rect x="173.42" y="112.93" width="1.56" height="1.56" id="img-38a65cc3-10" class="color_Heston" fill="#D4CA3A"/>
    </g>
    <g fill="#362A35" font-size="3.88" font-family="'PT Sans','Helvetica Neue','Helvetica',sans-serif" stroke="#000000" stroke-opacity="0.000" id="img-38a65cc3-11">
      <text x="173.42" y="106.89" id="img-38a65cc3-12">model</text>
    </g>
  </g>
<g clip-path="url(#img-38a65cc3-13)">
  <g id="img-38a65cc3-14">
    <g pointer-events="visible" opacity="1" fill="#000000" fill-opacity="0.000" stroke="#000000" stroke-opacity="0.000" class="guide background" id="img-38a65cc3-15">
      <rect x="18.76" y="11.23" width="153.66" height="198.72" id="img-38a65cc3-16"/>
    </g>
    <g class="guide ygridlines xfixed" stroke-dasharray="0.5,0.5" stroke-width="0.2" stroke="#D0D0E0" id="img-38a65cc3-17">
      <path fill="none" d="M18.76,207.96 L 172.42 207.96" id="img-38a65cc3-18"/>
      <path fill="none" d="M18.76,110.59 L 172.42 110.59" id="img-38a65cc3-19"/>
      <path fill="none" d="M18.76,13.23 L 172.42 13.23" id="img-38a65cc3-20"/>
    </g>
    <g class="guide xgridlines yfixed" stroke-dasharray="0.5,0.5" stroke-width="0.2" stroke="#D0D0E0" id="img-38a65cc3-21">
      <path fill="none" d="M20.76,11.23 L 20.76 209.96" id="img-38a65cc3-22"/>
      <path fill="none" d="M50.69,11.23 L 50.69 209.96" id="img-38a65cc3-23"/>
      <path fill="none" d="M80.62,11.23 L 80.62 209.96" id="img-38a65cc3-24"/>
      <path fill="none" d="M110.55,11.23 L 110.55 209.96" id="img-38a65cc3-25"/>
      <path fill="none" d="M140.49,11.23 L 140.49 209.96" id="img-38a65cc3-26"/>
      <path fill="none" d="M170.42,11.23 L 170.42 209.96" id="img-38a65cc3-27"/>
    </g>
    <g class="plotpanel" id="img-38a65cc3-28">
      <g stroke-width="0.3" fill="#000000" fill-opacity="0.000" stroke-dasharray="none" id="img-38a65cc3-29">
        <path fill="none" d="M21.06,73.5 L 21.36 104.88 21.66 125.22 21.96 127.73 22.26 133.6 22.56 137.9 22.86 141.17 23.16 143.7 23.45 145.64 23.75 147.12 24.05 148.22 24.35 149.01 24.65 149.55 24.95 149.88 25.25 150.05 25.55 150.07 25.85 149.99 26.15 149.81 26.45 149.57 26.75 149.26 27.05 148.91 27.35 148.51 27.65 148.09 27.94 147.63 28.24 147.16 28.54 146.67 28.84 146.16 29.14 145.64 29.44 145.11 29.74 144.58 30.04 144.04 30.34 143.49 30.64 142.95 30.94 142.4 31.24 141.86 31.54 141.3 31.84 140.77 32.13 140.24 32.43 139.7 32.73 139.18 33.03 138.66 33.33 138.15 33.63 137.64 33.93 137.15 34.23 136.66 34.53 136.19 34.83 135.72 35.13 135.26 35.43 134.82 35.73 134.39 36.03 133.96 36.33 133.55 36.62 133.15 36.92 132.76 37.22 132.39 37.52 132.02 37.82 131.67 38.12 131.32 38.42 130.99 38.72 130.69 39.02 130.36 39.32 130.06 39.62 129.76 39.92 129.48 40.22 129.21 40.52 128.95 40.81 128.7 41.11 128.45 41.41 128.22 41.71 127.99 42.01 127.77 42.31 127.56 42.61 127.36 42.91 127.16 43.21 125.22 43.51 126.79 43.81 126.61 44.11 126.44 44.41 126.28 44.71 126.12 45.01 125.97 45.3 125.82 45.6 125.68 45.9 125.56 46.2 125.41 46.5 125.28 46.8 125.16 47.1 125.04 47.4 124.93 47.7 124.82 48 124.71 48.3 124.61 48.6 124.51 48.9 124.41 49.2 124.32 49.49 124.23 49.79 124.14 50.09 124.06 50.39 123.98 50.69 123.9 50.99 123.82 51.29 123.75 51.59 123.68 51.89 123.61 52.19 123.54 52.49 123.48 52.79 123.41 53.09 123.35 53.39 123.29 53.69 123.23 53.98 123.18 54.28 123.12 54.58 123.05 54.88 123.02 55.18 122.96 55.48 122.92 55.78 122.87 56.08 122.82 56.38 122.77 56.68 122.73 56.98 122.69 57.28 122.64 57.58 122.6 57.88 122.56 58.17 122.52 58.47 122.48 58.77 122.44 59.07 122.41 59.37 122.37 59.67 122.33 59.97 122.3 60.27 122.26 60.57 122.23 60.87 122.2 61.17 122.16 61.47 122.13 61.77 122.1 62.07 122.07 62.37 122.04 62.66 122.01 62.96 121.98 63.26 121.96 63.56 121.92 63.86 121.9 64.16 121.87 64.46 121.84 64.76 121.81 65.06 121.79 65.36 121.76 65.66 121.74 65.96 121.71 66.26 121.69 66.56 121.66 66.86 121.64 67.15 121.62 67.45 121.59 67.75 121.57 68.05 121.55 68.35 121.53 68.65 121.51 68.95 121.48 69.25 121.46 69.55 121.44 69.85 121.42 70.15 121.4 70.45 121.38 70.75 121.36 71.05 121.34 71.34 121.32 71.64 121.3 71.94 121.28 72.24 121.27 72.54 121.25 72.84 121.23 73.14 121.21 73.44 121.2 73.74 121.18 74.04 121.16 74.34 121.14 74.64 121.13 74.94 121.11 75.24 121.1 75.54 121.08 75.83 121.06 76.13 121.05 76.43 121.03 76.73 121.02 77.03 121 77.33 121 77.63 121 77.93 120.96 78.23 120.95 78.53 120.93 78.83 120.92 79.13 120.91 79.43 120.89 79.73 120.88 80.02 120.87 80.32 120.85 80.62 120.84 80.92 120.83 81.22 120.82 81.52 120.8 81.82 120.79 82.12 120.78 82.42 120.77 82.72 120.76 83.02 120.75 83.32 120.73 83.62 120.72 83.92 120.71 84.22 120.7 84.51 120.69 84.81 120.68 85.11 120.67 85.41 120.66 85.71 120.65 86.01 120.64 86.31 120.63 86.61 120.62 86.91 120.61 87.21 120.6 87.51 120.59 87.81 120.58 88.11 120.58 88.41 120.57 88.7 120.56 89 120.55 89.3 120.54 89.6 120.53 89.9 120.52 90.2 120.52 90.5 120.51 90.8 120.5 91.1 120.49 91.4 120.48 91.7 120.48 92 120.47 92.3 120.46 92.6 120.45 92.9 120.45 93.19 120.44 93.49 120.43 93.79 120.43 94.09 120.42 94.39 120.41 94.69 120.43 94.99 120.4 95.29 120.39 95.59 120.39 95.89 120.38 96.19 120.37 96.49 120.37 96.79 120.36 97.09 120.36 97.38 120.35 97.68 120.34 97.98 120.34 98.28 120.32 98.58 120.33 98.88 120.32 99.18 120.32 99.48 120.31 99.78 120.3 100.08 119.75 100.38 120.29 100.68 120.29 100.98 120.28 101.28 120.28 101.58 120.27 101.87 120.27 102.17 120.26 102.47 120.26 102.77 120.25 103.07 120.25 103.37 120.25 103.67 120.24 103.97 120.24 104.27 120.23 104.57 120.23 104.87 120.22 105.17 120.22 105.47 120.22 105.77 120.21 106.06 120.21 106.36 120.2 106.66 120.2 106.96 120.2 107.26 120.19 107.56 120.19 107.86 120.18 108.16 120.18 108.46 119.75 108.76 120.17 109.06 120.17 109.36 120.17 109.66 120.16 109.96 120.16 110.26 120.16 110.55 120.15 110.85 120.15 111.15 120.15 111.45 119.75 111.75 120.14 112.05 120.14 112.35 120.13 112.65 120.13 112.95 120.13 113.25 120.13 113.55 120.12 113.85 120.12 114.15 120.12 114.45 120.11 114.74 120.11 115.04 120.11 115.34 120.11 115.64 120.1 115.94 120.1 116.24 120.1 116.54 120.1 116.84 120.09 117.14 120.09 117.44 120.09 117.74 120.09 118.04 120.09 118.34 120.08 118.64 120.08 118.94 120.08 119.23 120.08 119.53 120.07 119.83 120.07 120.13 120.07 120.43 120.07 120.73 120.07 121.03 120.06 121.33 120.06 121.63 120.06 121.93 120.09 122.23 120.06 122.53 120.05 122.83 120.09 123.13 120.05 123.42 120.05 123.72 120.05 124.02 120.05 124.32 120.04 124.62 120.04 124.92 120.04 125.22 120.04 125.52 120.04 125.82 120.04 126.12 120.03 126.42 119.75 126.72 120.03 127.02 120.03 127.32 120.03 127.62 119.75 127.91 119.75 128.21 120.02 128.51 120.02 128.81 120.02 129.11 120.02 129.41 120.02 129.71 120.02 130.01 120.02 130.31 120.02 130.61 120.01 130.91 120.01 131.21 120.01 131.51 120.01 131.81 120.01 132.1 120.01 132.4 120.01 132.7 120.01 133 120.01 133.3 119.75 133.6 120 133.9 120 134.2 120 134.5 120 134.8 119.75 135.1 120 135.4 120 135.7 120 136 120 136.3 120 136.59 120 136.89 120 137.19 120 137.49 119.99 137.79 119.99 138.09 119.99 138.39 119.99 138.69 119.99 138.99 119.99 139.29 119.99 139.59 119.99 139.89 119.99 140.19 119.99 140.49 119.99 140.78 119.99 141.08 119.75 141.38 119.75 141.68 119.99 141.98 119.75 142.28 119.99 142.58 119.99 142.88 119.99 143.18 119.99 143.48 119.99 143.78 119.99 144.08 119.99 144.38 119.98 144.68 119.98 144.98 119.98 145.27 119.98 145.57 119.98 145.87 119.98 146.17 119.98 146.47 119.98 146.77 119.98 147.07 119.98 147.37 119.98 147.67 119.98 147.97 119.98 148.27 119.98 148.57 119.98 148.87 119.98 149.17 119.98 149.46 119.98 149.76 119.98 150.06 119.98 150.36 119.98 150.66 119.98 150.96 119.98 151.26 119.98 151.56 119.98 151.86 119.98 152.16 119.98 152.46 119.98 152.76 119.98 153.06 119.98 153.36 119.98 153.66 119.98 153.95 119.98 154.25 119.98 154.55 119.75 154.85 119.98 155.15 119.98 155.45 119.75 155.75 119.98 156.05 119.98 156.35 119.98 156.65 119.98 156.95 119.99 157.25 119.99 157.55 119.99 157.85 119.99 158.14 119.99 158.44 119.99 158.74 119.75 159.04 119.99 159.34 119.99 159.64 119.99 159.94 119.99 160.24 119.99 160.54 119.99 160.84 119.75 161.14 119.99 161.44 119.99 161.74 119.99 162.04 119.99 162.34 119.99 162.63 119.99 162.93 119.99 163.23 119.99 163.53 119.99 163.83 119.99 164.13 119.99 164.43 119.99 164.73 119.99 165.03 120 165.33 120 165.63 120 165.93 120 166.23 120 166.53 120 166.82 120 167.12 120 167.42 120 167.72 120 168.02 119.75 168.32 120 168.62 120 168.92 120 169.22 120 169.52 120 169.82 120 170.12 120.01 170.42 120.01" id="img-38a65cc3-30" stroke="#00BFFF" class="geometry color_Bates"/>
        <path fill="none" d="M21.06,169.01 L 21.36 198.2 21.66 198.2 21.96 198.2 22.26 198.2 22.56 198.2 22.86 198.2 23.16 171.93 23.45 198.2 23.75 198.2 24.05 172.09 24.35 198.2 24.65 198.2 24.95 198.2 25.25 172.31 25.55 198.2 25.85 172.41 26.15 172.46 26.45 172.52 26.75 172.57 27.05 172.62 27.35 172.68 27.65 172.73 27.94 172.78 28.24 172.83 28.54 172.89 28.84 172.94 29.14 172.99 29.44 173.05 29.74 173.1 30.04 173.15 30.34 173.2 30.64 173.26 30.94 173.31 31.24 173.36 31.54 173.41 31.84 173.47 32.13 173.52 32.43 173.57 32.73 173.63 33.03 173.68 33.33 173.73 33.63 173.78 33.93 173.84 34.23 173.89 34.53 173.94 34.83 173.99 35.13 174.05 35.43 174.1 35.73 174.15 36.03 174.2 36.33 174.25 36.62 174.31 36.92 174.36 37.22 174.41 37.52 174.46 37.82 174.51 38.12 174.57 38.42 174.62 38.72 174.67 39.02 174.72 39.32 174.77 39.62 174.83 39.92 174.88 40.22 174.93 40.52 174.98 40.81 175.03 41.11 175.08 41.41 175.13 41.71 175.18 42.01 175.23 42.31 175.28 42.61 175.33 42.91 175.38 43.21 175.43 43.51 175.48 43.81 175.53 44.11 175.58 44.41 175.63 44.71 175.68 45.01 175.73 45.3 175.78 45.6 175.83 45.9 175.88 46.2 175.93 46.5 175.98 46.8 176.03 47.1 176.08 47.4 176.12 47.7 176.17 48 176.22 48.3 176.27 48.6 176.32 48.9 176.36 49.2 176.41 49.49 176.46 49.79 176.51 50.09 176.55 50.39 176.6 50.69 176.65 50.99 176.69 51.29 176.74 51.59 176.79 51.89 176.83 52.19 176.88 52.49 176.92 52.79 176.97 53.09 177.01 53.39 177.06 53.69 177.11 53.98 177.15 54.28 177.2 54.58 177.24 54.88 177.28 55.18 177.33 55.48 177.37 55.78 177.42 56.08 177.46 56.38 177.5 56.68 177.55 56.98 177.59 57.28 177.63 57.58 177.68 57.88 177.72 58.17 177.76 58.47 177.81 58.77 177.85 59.07 177.89 59.37 177.93 59.67 177.97 59.97 178.02 60.27 178.06 60.57 178.1 60.87 178.14 61.17 178.18 61.47 178.22 61.77 178.26 62.07 178.3 62.37 178.34 62.66 178.38 62.96 178.42 63.26 178.46 63.56 178.5 63.86 178.54 64.16 178.58 64.46 178.62 64.76 178.66 65.06 178.7 65.36 178.74 65.66 178.78 65.96 178.82 66.26 178.85 66.56 178.89 66.86 178.93 67.15 178.97 67.45 179 67.75 179.04 68.05 183.61 68.35 179.12 68.65 183.61 68.95 179.19 69.25 179.23 69.55 179.26 69.85 179.3 70.15 179.34 70.45 179.37 70.75 183.61 71.05 183.61 71.34 179.48 71.64 179.51 71.94 179.55 72.24 179.58 72.54 179.62 72.84 179.65 73.14 179.69 73.44 179.72 73.74 179.76 74.04 183.61 74.34 179.82 74.64 179.86 74.94 179.89 75.24 179.92 75.54 179.96 75.83 179.99 76.13 180.02 76.43 180.06 76.73 180.09 77.03 180.12 77.33 180.15 77.63 180.19 77.93 180.22 78.23 180.25 78.53 180.28 78.83 180.31 79.13 180.34 79.43 180.37 79.73 180.41 80.02 180.44 80.32 180.47 80.62 180.5 80.92 180.53 81.22 180.53 81.52 180.59 81.82 180.62 82.12 180.65 82.42 180.68 82.72 180.71 83.02 180.74 83.32 180.77 83.62 180.8 83.92 180.82 84.22 180.85 84.51 180.88 84.81 183.61 85.11 180.87 85.41 180.87 85.71 180.99 86.01 183.61 86.31 180.87 86.61 181.08 86.91 181.1 87.21 180.87 87.51 181.16 87.81 181.19 88.11 181.21 88.41 183.61 88.7 181.27 89 181.29 89.3 181.32 89.6 181.35 89.9 181.37 90.2 181.4 90.5 181.42 90.8 181.45 91.1 181.47 91.4 181.5 91.7 181.52 92 181.55 92.3 181.57 92.6 181.6 92.9 181.62 93.19 181.65 93.49 181.67 93.79 181.7 94.09 181.72 94.39 181.74 94.69 181.77 94.99 181.79 95.29 181.81 95.59 181.84 95.89 181.86 96.19 181.88 96.49 181.91 96.79 181.93 97.09 183.61 97.38 181.97 97.68 182 97.98 182.02 98.28 182.04 98.58 182.06 98.88 182.09 99.18 182.11 99.48 182.13 99.78 182.15 100.08 182.17 100.38 182.19 100.68 182.21 100.98 182.23 101.28 182.25 101.58 182.28 101.87 182.3 102.17 182.32 102.47 182.34 102.77 182.36 103.07 182.38 103.37 182.4 103.67 182.42 103.97 182.44 104.27 182.45 104.57 183.61 104.87 182.49 105.17 182.51 105.47 182.53 105.77 182.55 106.06 182.57 106.36 182.59 106.66 182.61 106.96 182.62 107.26 182.64 107.56 182.66 107.86 182.68 108.16 182.7 108.46 182.71 108.76 182.73 109.06 182.75 109.36 182.77 109.66 182.78 109.96 182.8 110.26 182.82 110.55 182.83 110.85 182.85 111.15 182.87 111.45 182.88 111.75 182.9 112.05 182.92 112.35 182.93 112.65 182.95 112.95 182.96 113.25 182.98 113.55 183 113.85 183.01 114.15 183.03 114.45 183.04 114.74 183.06 115.04 183.07 115.34 183.09 115.64 183.61 115.94 183.61 116.24 183.13 116.54 183.15 116.84 183.16 117.14 183.17 117.44 183.19 117.74 183.2 118.04 183.22 118.34 183.23 118.64 183.24 118.94 183.26 119.23 183.27 119.53 183.28 119.83 183.3 120.13 183.32 120.43 183.32 120.73 183.61 121.03 183.35 121.33 183.36 121.63 183.37 121.93 183.39 122.23 183.4 122.53 183.41 122.83 183.42 123.13 183.44 123.42 183.45 123.72 183.46 124.02 183.47 124.32 183.48 124.62 183.5 124.92 183.51 125.22 183.52 125.52 183.53 125.82 183.54 126.12 183.55 126.42 183.56 126.72 183.57 127.02 183.58 127.32 183.59 127.62 183.61 127.91 183.62 128.21 183.63 128.51 183.64 128.81 183.65 129.11 183.66 129.41 183.67 129.71 183.68 130.01 183.69 130.31 183.7 130.61 183.71 130.91 183.72 131.21 183.73 131.51 183.73 131.81 183.74 132.1 183.75 132.4 183.76 132.7 183.77 133 183.78 133.3 183.79 133.6 183.8 133.9 183.81 134.2 183.81 134.5 183.82 134.8 183.83 135.1 183.84 135.4 183.85 135.7 183.86 136 183.86 136.3 183.87 136.59 183.88 136.89 183.89 137.19 183.9 137.49 183.9 137.79 183.91 138.09 183.92 138.39 183.93 138.69 183.93 138.99 183.94 139.29 183.95 139.59 183.95 139.89 183.96 140.19 183.97 140.49 183.97 140.78 183.98 141.08 183.99 141.38 183.99 141.68 184 141.98 184.01 142.28 184.01 142.58 184.02 142.88 184.03 143.18 184.03 143.48 184.04 143.78 184.04 144.08 184.05 144.38 184.06 144.68 184.06 144.98 184.07 145.27 184.07 145.57 184.08 145.87 184.08 146.17 184.09 146.47 184.09 146.77 184.1 147.07 184.11 147.37 184.11 147.67 184.12 147.97 184.12 148.27 184.13 148.57 184.13 148.87 184.14 149.17 184.14 149.46 184.14 149.76 184.15 150.06 184.15 150.36 184.16 150.66 184.16 150.96 184.17 151.26 184.17 151.56 184.18 151.86 184.18 152.16 184.18 152.46 184.19 152.76 184.19 153.06 184.2 153.36 184.2 153.66 184.2 153.95 184.21 154.25 184.21 154.55 184.21 154.85 184.22 155.15 184.22 155.45 184.23 155.75 184.23 156.05 184.23 156.35 184.24 156.65 184.24 156.95 184.24 157.25 184.24 157.55 184.25 157.85 184.25 158.14 184.25 158.44 184.26 158.74 184.26 159.04 184.26 159.34 184.27 159.64 184.27 159.94 184.27 160.24 184.27 160.54 184.28 160.84 184.28 161.14 184.28 161.44 184.28 161.74 184.29 162.04 184.29 162.34 184.29 162.63 184.29 162.93 184.29 163.23 184.3 163.53 184.3 163.83 184.3 164.13 184.3 164.43 184.31 164.73 184.31 165.03 184.31 165.33 184.31 165.63 184.31 165.93 184.31 166.23 184.32 166.53 184.32 166.82 184.32 167.12 184.32 167.42 184.32 167.72 184.32 168.02 184.33 168.32 184.33 168.62 184.33 168.92 184.33 169.22 184.33 169.52 184.33 169.82 184.33 170.12 184.33 170.42 184.34" id="img-38a65cc3-31" stroke="#D4CA3A" class="geometry color_Heston"/>
      </g>
    </g>
  </g>
</g>
  <g class="guide ylabels" font-size="2.82" font-family="'PT Sans Caption','Helvetica Neue','Helvetica',sans-serif" fill="#6C606B" id="img-38a65cc3-32">
    <text x="17.76" y="207.96" text-anchor="end" dy="0.35em" id="img-38a65cc3-33">0.0</text>
    <text x="17.76" y="110.59" text-anchor="end" dy="0.35em" id="img-38a65cc3-34">0.5</text>
    <text x="17.76" y="13.23" text-anchor="end" dy="0.35em" id="img-38a65cc3-35">1.0</text>
  </g>
  <g font-size="3.88" font-family="'PT Sans','Helvetica Neue','Helvetica',sans-serif" fill="#564A55" stroke="#000000" stroke-opacity="0.000" id="img-38a65cc3-36">
    <text x="8.76" y="108.59" text-anchor="middle" dy="0.35em" transform="rotate(-90, 8.76, 110.59)" id="img-38a65cc3-37">Implied σ</text>
  </g>
  <g font-size="3.88" font-family="'PT Sans','Helvetica Neue','Helvetica',sans-serif" fill="#564A55" stroke="#000000" stroke-opacity="0.000" id="img-38a65cc3-38">
    <text x="95.59" y="5" text-anchor="middle" dy="0.6em" id="img-38a65cc3-39">Volatility Smile by Time (μⱼ=-0.15, σ=.4, σⱼ=0.25, v₀ = 0.2²)</text>
  </g>
</g>
<defs>
  <clipPath id="img-38a65cc3-13">
  <path d="M18.76,11.23 L 172.42 11.23 172.42 209.96 18.76 209.96" />
</clipPath>
</defs>
</svg>
